<svg width="96" height="85" viewBox="0 0 96 85" fill="none" xmlns="http://www.w3.org/2000/svg">
<g clip-path="url(#clip0_1211_35576)">
<path d="M85.4643 0H11.6829C9.96173 0 8.56641 1.39532 8.56641 3.11653V57.9638C8.56641 59.685 9.96173 61.0803 11.6829 61.0803H85.4643C87.1855 61.0803 88.5808 59.685 88.5808 57.9638V3.11653C88.5808 1.39532 87.1855 0 85.4643 0Z" fill="#D7D7D8"/>
<path d="M11.6817 0.716309C10.3583 0.716309 9.28125 1.79335 9.28125 3.11673V57.9626C9.28125 59.2859 10.3583 60.363 11.6817 60.363H85.463C86.7864 60.363 87.8634 59.2859 87.8634 57.9626V3.11673C87.8634 1.79335 86.7864 0.716309 85.463 0.716309H11.6817Z" fill="white"/>
<path d="M48.8566 0.365234H48.2852V60.7824H48.8566V0.365234Z" fill="#D7D7D8"/>
<path d="M45.1764 10.2019C45.6233 10.2019 45.9856 9.83962 45.9856 9.39271C45.9856 8.94579 45.6233 8.5835 45.1764 8.5835C44.7295 8.5835 44.3672 8.94579 44.3672 9.39271C44.3672 9.83962 44.7295 10.2019 45.1764 10.2019Z" fill="#D7D7D8"/>
<path d="M51.9694 10.2019C52.4163 10.2019 52.7786 9.83962 52.7786 9.39271C52.7786 8.94579 52.4163 8.5835 51.9694 8.5835C51.5225 8.5835 51.1602 8.94579 51.1602 9.39271C51.1602 9.83962 51.5225 10.2019 51.9694 10.2019Z" fill="#D7D7D8"/>
<path d="M45.1764 20.7761C45.6233 20.7761 45.9856 20.4138 45.9856 19.9669C45.9856 19.52 45.6233 19.1577 45.1764 19.1577C44.7295 19.1577 44.3672 19.52 44.3672 19.9669C44.3672 20.4138 44.7295 20.7761 45.1764 20.7761Z" fill="#D7D7D8"/>
<path d="M51.9694 20.7761C52.4163 20.7761 52.7786 20.4138 52.7786 19.9669C52.7786 19.52 52.4163 19.1577 51.9694 19.1577C51.5225 19.1577 51.1602 19.52 51.1602 19.9669C51.1602 20.4138 51.5225 20.7761 51.9694 20.7761Z" fill="#D7D7D8"/>
<path d="M45.1764 31.3489C45.6233 31.3489 45.9856 30.9866 45.9856 30.5397C45.9856 30.0928 45.6233 29.7305 45.1764 29.7305C44.7295 29.7305 44.3672 30.0928 44.3672 30.5397C44.3672 30.9866 44.7295 31.3489 45.1764 31.3489Z" fill="#D7D7D8"/>
<path d="M51.9694 31.3489C52.4163 31.3489 52.7786 30.9866 52.7786 30.5397C52.7786 30.0928 52.4163 29.7305 51.9694 29.7305C51.5225 29.7305 51.1602 30.0928 51.1602 30.5397C51.1602 30.9866 51.5225 31.3489 51.9694 31.3489Z" fill="#D7D7D8"/>
<path d="M45.1764 41.9226C45.6233 41.9226 45.9856 41.5603 45.9856 41.1134C45.9856 40.6665 45.6233 40.3042 45.1764 40.3042C44.7295 40.3042 44.3672 40.6665 44.3672 41.1134C44.3672 41.5603 44.7295 41.9226 45.1764 41.9226Z" fill="#D7D7D8"/>
<path d="M51.9694 41.9226C52.4163 41.9226 52.7786 41.5603 52.7786 41.1134C52.7786 40.6665 52.4163 40.3042 51.9694 40.3042C51.5225 40.3042 51.1602 40.6665 51.1602 41.1134C51.1602 41.5603 51.5225 41.9226 51.9694 41.9226Z" fill="#D7D7D8"/>
<path d="M45.1764 52.4954C45.6233 52.4954 45.9856 52.1331 45.9856 51.6862C45.9856 51.2392 45.6233 50.877 45.1764 50.877C44.7295 50.877 44.3672 51.2392 44.3672 51.6862C44.3672 52.1331 44.7295 52.4954 45.1764 52.4954Z" fill="#D7D7D8"/>
<path d="M51.9694 52.4954C52.4163 52.4954 52.7786 52.1331 52.7786 51.6862C52.7786 51.2392 52.4163 50.877 51.9694 50.877C51.5225 50.877 51.1602 51.2392 51.1602 51.6862C51.1602 52.1331 51.5225 52.4954 51.9694 52.4954Z" fill="#D7D7D8"/>
<path d="M45.248 9.01874L45.0977 8.77526C45.1349 8.75235 48.8358 6.51663 52.0497 8.77956L51.885 9.01444C48.8257 6.86037 45.2824 8.99726 45.248 9.01874Z" fill="#D7D7D8"/>
<path d="M45.248 10.0114L45.0977 9.76794C45.1349 9.74502 48.8358 7.50931 52.0497 9.77223L51.885 10.0071C48.8257 7.85305 45.2824 9.98993 45.248 10.0114Z" fill="#D7D7D8"/>
<path d="M45.248 19.6389L45.0977 19.3954C45.1349 19.3725 48.8358 17.1368 52.0497 19.3997L51.885 19.6346C48.8257 17.4805 45.2824 19.6174 45.248 19.6389Z" fill="#D7D7D8"/>
<path d="M45.248 20.6325L45.0977 20.389C45.1349 20.3661 48.8358 18.1304 52.0497 20.3933L51.885 20.6282C48.8257 18.4741 45.2824 20.611 45.248 20.6325Z" fill="#D7D7D8"/>
<path d="M45.248 30.2585L45.0977 30.015C45.1349 29.9921 48.8358 27.7564 52.0497 30.0193L51.885 30.2542C48.8257 28.1001 45.2824 30.237 45.248 30.2585Z" fill="#D7D7D8"/>
<path d="M45.248 31.2526L45.0977 31.0091C45.1349 30.9862 48.8343 28.7505 52.0497 31.0134L51.885 31.2483C48.8257 29.0943 45.2824 31.2311 45.248 31.2526Z" fill="#D7D7D8"/>
<path d="M45.248 40.8786L45.0977 40.6351C45.1349 40.6122 48.8358 38.3765 52.0497 40.6394L51.885 40.8743C48.8257 38.7217 45.2824 40.8571 45.248 40.8786Z" fill="#D7D7D8"/>
<path d="M45.248 41.8727L45.0977 41.6293C45.1349 41.6064 48.8343 39.3706 52.0497 41.6336L51.885 41.8684C48.8257 39.7144 45.2824 41.8513 45.248 41.8727Z" fill="#D7D7D8"/>
<path d="M45.248 51.4987L45.0977 51.2552C45.1349 51.2323 48.8358 48.9966 52.0497 51.2595L51.885 51.493C48.8257 49.3389 45.2824 51.4758 45.248 51.4973V51.4987Z" fill="#D7D7D8"/>
<path d="M45.248 52.4929L45.0977 52.2494C45.1349 52.2265 48.8358 49.9908 52.0497 52.2537L51.885 52.4871C48.8257 50.3331 45.2824 52.4699 45.248 52.4914V52.4929Z" fill="#D7D7D8"/>
<path d="M66.6969 16.008C66.6969 16.008 63.7494 16.3403 63.5589 20.9048C63.3999 24.7088 63.0763 26.8285 64.6245 27.622C65.1773 27.9055 65.8276 27.9299 66.4191 27.7365L72.7352 25.6598C72.7352 25.6598 72.8297 18.8137 70.6427 17.1495C68.4557 15.4852 66.6969 16.008 66.6969 16.008Z" fill="#2F2E43"/>
<path d="M70.1811 26.5007L66.9844 27.5519V22.9502H69.8846L70.1811 26.5007Z" fill="#F3A3A6"/>
<path d="M60.4066 52.6217C60.2333 53.6758 59.53 54.4321 58.8368 54.3103C58.1422 54.1886 57.7211 53.2347 57.8944 52.1806C57.9574 51.7581 58.125 51.3585 58.3814 51.0162L59.1734 46.5591L61.3289 47.0102L60.3192 51.3556C60.4524 51.7667 60.4825 52.2006 60.4066 52.6217Z" fill="#F3A3A6"/>
<path d="M67.7253 82.2573H64.732L62.9961 66.2607H67.6236L67.7253 82.2573Z" fill="#F3A3A6"/>
<path d="M61.819 84.8295C61.5039 84.8295 61.2232 84.8224 61.0127 84.8023C60.2178 84.7293 59.4587 84.1421 59.0777 83.7998C58.9073 83.6465 58.8514 83.4002 58.9402 83.1882C59.0047 83.0364 59.1322 82.9232 59.2911 82.8774L61.3922 82.2773L64.7952 79.9814L64.8339 80.0502C64.8482 80.076 65.1819 80.6775 65.2936 81.0843C65.3366 81.2389 65.3251 81.3678 65.2607 81.4681C65.2163 81.5368 65.1532 81.5769 65.1031 81.5999C65.1647 81.6643 65.3581 81.7946 65.9524 81.8892C66.8218 82.0267 67.0023 81.1272 67.0108 81.09L67.0166 81.0599L67.0424 81.0427C67.4548 80.7763 67.7098 80.656 67.7971 80.6818C67.8516 80.6976 67.9432 80.7262 68.1896 83.1753C68.2139 83.2527 68.3872 83.8155 68.2698 84.3555C68.1423 84.9427 65.5801 84.7408 65.0673 84.6935C65.053 84.6949 63.1352 84.831 61.8204 84.831L61.819 84.8295Z" fill="#2F2E43"/>
<path d="M74.4924 82.2573H71.4976L69.7617 66.2607H74.3893L74.4924 82.2573Z" fill="#F3A3A6"/>
<path d="M68.5807 84.8295C68.2656 84.8295 67.9849 84.8224 67.7744 84.8023C66.9795 84.7293 66.2204 84.1421 65.8394 83.7998C65.669 83.6465 65.6132 83.4002 65.702 83.1882C65.7664 83.0364 65.8939 82.9232 66.0529 82.8774L68.1539 82.2773L71.5569 79.9814L71.5956 80.0502C71.6099 80.076 71.9436 80.6775 72.0553 81.0843C72.0983 81.2389 72.0868 81.3678 72.0224 81.4681C71.978 81.5368 71.915 81.5769 71.8648 81.5999C71.9264 81.6643 72.1198 81.7946 72.7142 81.8892C73.5835 82.0267 73.764 81.1272 73.7726 81.09L73.7783 81.0599L73.8041 81.0427C74.218 80.7763 74.4715 80.656 74.5589 80.6818C74.6133 80.6976 74.705 80.7262 74.9513 83.1753C74.9756 83.2527 75.1489 83.8155 75.0315 84.3555C74.904 84.9427 72.3418 84.7408 71.829 84.6935C71.8147 84.6949 69.897 84.831 68.5822 84.831L68.5807 84.8295Z" fill="#2F2E43"/>
<path d="M75.3519 42.9655H60.8047L66.0338 25.7544H71.8343L75.3519 42.9655Z" fill="#1195D6"/>
<path d="M66.9481 25.757C66.9481 25.757 63.3345 25.6625 62.955 26.6135C62.574 27.5645 58.1055 50.1951 58.1055 50.1951H61.053L66.9481 25.7584V25.757Z" fill="#1195D6"/>
<path d="M67.3806 24.2231C69.1398 24.2231 70.5659 22.797 70.5659 21.0378C70.5659 19.2786 69.1398 17.8525 67.3806 17.8525C65.6214 17.8525 64.1953 19.2786 64.1953 21.0378C64.1953 22.797 65.6214 24.2231 67.3806 24.2231Z" fill="#F3A3A6"/>
<path d="M66.5093 17.1968C66.5093 17.1968 64.7562 24.315 66.7055 27.642L63.9599 27.0591C63.9599 27.0591 62.8958 19.2692 65.0355 17.8527L66.5093 17.1968Z" fill="#2F2E43"/>
<path d="M72.3279 42.9653H62.7807L57.5573 64.4044C57.4614 65.3096 58.0357 66.1546 58.9151 66.3909C61.781 67.1586 68.6585 68.2456 79.0666 65.2165C80.0677 64.9257 80.6363 63.8687 80.3226 62.8733L72.3279 42.9653Z" fill="#2F2E43"/>
<path d="M95.88 84.8296C95.88 84.9241 95.8041 85.0001 95.7096 85.0001H0.291529C0.197002 85.0001 0.121094 84.9241 0.121094 84.8296C0.121094 84.7351 0.197002 84.6592 0.291529 84.6592H95.7096C95.8041 84.6592 95.88 84.7351 95.88 84.8296Z" fill="#2F2E43"/>
<path d="M68.4688 25.7544L71.4378 25.624C72.7239 25.7214 73.8869 26.4203 74.5758 27.5103C76.674 30.8273 80.5997 37.818 77.0951 38.7762C72.4747 40.038 70.2361 33.0129 70.2361 33.0129L68.4688 25.7544Z" fill="#1195D6"/>
<path d="M65.7321 28.2811L73.0021 22.9875C73.0881 22.9245 73.2084 22.9446 73.2714 23.0305L73.4476 23.2726C73.5106 23.3585 73.4905 23.4788 73.4046 23.5418L66.136 28.8353H66.1346L65.1707 29.2507L65.0977 29.1504L65.7321 28.2811Z" fill="#2F2E43"/>
<path d="M67.4528 27.8384C66.8427 26.9619 66.8212 25.9292 67.4027 25.5325C67.9856 25.1358 68.9523 25.5268 69.5625 26.4033C69.8117 26.7499 69.9692 27.1538 70.0236 27.5777L72.5601 31.3273L70.6997 32.506L68.3966 28.6848C68.0142 28.4829 67.6905 28.1922 67.4528 27.8384Z" fill="#F3A3A6"/>
<path d="M68.9531 30.8701L71.0485 28.9409L75.1919 32.7993L71.3392 35.4332L68.9531 30.8701Z" fill="#1195D6"/>
<path d="M15.9934 10.8705C18.9366 10.7573 21.8827 10.7086 24.8288 10.7258C27.7749 10.743 30.6723 10.8246 33.5898 10.9722C35.2511 11.0552 36.9097 11.1598 38.5682 11.2858C38.8446 11.3073 38.8432 10.8762 38.5682 10.8562C35.6307 10.6342 32.6889 10.478 29.7442 10.3864C26.7995 10.2947 23.9007 10.2718 20.979 10.3105C19.3161 10.3334 17.6533 10.3764 15.9919 10.4408C15.7169 10.4508 15.7155 10.8805 15.9919 10.8705H15.9934Z" fill="#1195D6"/>
<path d="M15.9934 15.7318C18.9366 15.6187 21.8827 15.57 24.8288 15.5872C27.7749 15.6043 30.6723 15.686 33.5898 15.8335C35.2511 15.9166 36.9097 16.0211 38.5682 16.1472C38.8446 16.1686 38.8432 15.7375 38.5682 15.7175C35.6307 15.4955 32.6889 15.3394 29.7442 15.2477C26.7995 15.156 23.9007 15.1331 20.979 15.1718C19.3161 15.1947 17.6533 15.2377 15.9919 15.3021C15.7169 15.3122 15.7155 15.7418 15.9919 15.7318H15.9934Z" fill="#2F2E43"/>
<path d="M15.9958 20.5928C18.3848 20.4997 20.7752 20.3938 23.167 20.3522C25.2122 20.3164 27.2575 20.3494 29.2998 20.4482C30.7564 20.5184 32.2116 20.6172 33.6667 20.726C33.9431 20.7475 33.9417 20.3164 33.6667 20.2964C31.2835 20.1159 28.8974 19.9684 26.507 19.9226C24.4618 19.8839 22.4151 19.9283 20.3713 19.997C18.9133 20.0472 17.4553 20.1059 15.9958 20.1632C15.7209 20.1732 15.7194 20.6029 15.9958 20.5928Z" fill="#2F2E43"/>
<path d="M15.9944 25.4534C18.5237 25.356 21.0545 25.2529 23.5852 25.2157C25.851 25.1813 28.1182 25.2114 30.3826 25.3145C31.8907 25.3832 33.3974 25.4792 34.9041 25.5938C35.1806 25.6152 35.1791 25.1841 34.9041 25.1641C32.3806 24.9736 29.8541 24.8318 27.3248 24.7889C25.0576 24.7487 22.7903 24.7889 20.5246 24.8605C19.015 24.9077 17.5054 24.9664 15.9958 25.0252C15.7209 25.0352 15.7194 25.4649 15.9958 25.4548L15.9944 25.4534Z" fill="#2F2E43"/>
<path d="M15.9958 30.3132C18.296 30.2244 20.5933 30.084 22.892 29.9766C24.7912 29.8878 26.6903 29.8577 28.5909 29.9207C30.0145 29.968 31.4367 30.0568 32.8561 30.1642C33.1325 30.1857 33.131 29.7546 32.8561 29.7345C30.5645 29.5612 28.2701 29.4395 25.9713 29.4567C24.0679 29.471 22.1688 29.5813 20.2696 29.683C18.846 29.7589 17.4209 29.8276 15.9958 29.8835C15.7209 29.8935 15.7194 30.3246 15.9958 30.3132Z" fill="#2F2E43"/>
<path d="M15.9934 35.1742C18.9366 35.061 21.8827 35.0123 24.8288 35.0295C27.7749 35.0467 30.6723 35.1284 33.5898 35.2759C35.2511 35.3589 36.9097 35.4635 38.5682 35.5895C38.8446 35.611 38.8432 35.1799 38.5682 35.1599C35.6307 34.9379 32.6889 34.7818 29.7442 34.6901C26.7995 34.5984 23.9007 34.5755 20.979 34.6142C19.3161 34.6371 17.6533 34.6801 15.9919 34.7445C15.7169 34.7545 15.7155 35.1842 15.9919 35.1742H15.9934Z" fill="#2F2E43"/>
</g>
<defs>
<clipPath id="clip0_1211_35576">
<rect width="95.7589" height="85" fill="white" transform="translate(0.121094)"/>
</clipPath>
</defs>
</svg>
