<svg width="165" height="38" viewBox="0 0 165 38" fill="none" xmlns="http://www.w3.org/2000/svg">
<path d="M9.41149 30.5516C4.58509 30.5516 1.2066 27.1042 1.2066 22.2433V20.6919H5.27457V22.2433C5.27457 25.1391 6.96381 27.1042 9.41149 27.1042C11.8592 27.1042 13.5139 25.1391 13.5139 22.2433V5.86797H17.5819V22.2433C17.5819 27.1386 14.2034 30.5516 9.41149 30.5516ZM27.583 30.5516C23.9976 30.5516 21.8947 27.8971 21.8947 23.4154V12.7628H25.8592V23.2775C25.8592 25.7252 26.9969 27.1042 28.9275 27.1042C31.513 27.1042 33.2023 24.7254 33.2023 21.1401V12.7628H37.1668V30H33.2023V27.0697C32.1336 29.2071 30.0996 30.5516 27.583 30.5516ZM48.7699 30.5516C43.8745 30.5516 40.5305 28.0694 40.4615 24.2428L44.3571 23.898C44.4261 25.8976 46.1843 27.1042 48.7699 27.1042C50.8383 27.1042 52.3207 26.3457 52.3207 25.0012C52.3207 21.4159 41.3234 24.2083 41.3234 17.5203C41.3234 13.9694 44.3916 12.2112 48.4251 12.2112C52.6999 12.2112 55.5613 14.2108 55.6647 17.5203L51.7346 17.865C51.6657 16.3826 50.3557 15.6587 48.3906 15.6587C46.6324 15.6587 45.3914 16.2447 45.3914 17.3479C45.3914 20.5885 56.3887 18.1064 56.3887 24.8633C56.3887 28.3452 53.4239 30.5516 48.7699 30.5516ZM66.9201 30C63.2313 30 61.4042 28.2418 61.4042 24.7254V16.2103H57.6809V12.7628H61.4042V7.21247H65.3687V12.7628H70.5399V16.2103H65.3687V24.4841C65.3687 25.8631 66.0582 26.5526 67.4372 26.5526H70.5399V30H66.9201ZM73.9261 30V12.7628H77.8907V30H73.9261ZM73.5469 10.2462V6.17824H78.3044V10.2462H73.5469ZM82.9126 30V5.86797H91.1865C96.3576 5.86797 99.8395 8.69487 99.8395 12.9697C99.8395 17.21 96.3576 20.0714 91.1865 20.0714H86.9806V30H82.9126ZM86.9806 16.624H91.1865C93.9444 16.624 95.7716 15.176 95.7716 12.9697C95.7716 10.7633 93.9444 9.31541 91.1865 9.31541H86.9806V16.624ZM98.8244 30L106.995 5.86797H112.89L121.06 30H116.923L114.545 22.8983H105.375L102.961 30H98.8244ZM106.547 19.4509H113.373L109.96 9.31541L106.547 19.4509ZM123.266 30L131.437 5.86797H137.332L145.502 30H141.365L138.986 22.8983H129.816L127.403 30H123.266ZM130.988 19.4509H137.814L134.401 9.31541L130.988 19.4509ZM148.629 30V5.86797H152.697V30H148.629Z" fill="#E9ECEE"/>
<path d="M83 36H130.116" stroke="#1195D6" stroke-width="2.99583"/>
<path d="M133.384 36L145.367 36" stroke="#E86427" stroke-width="2.99583"/>
<path d="M148.636 36L152.721 36" stroke="#F5C518" stroke-width="2.99583"/>
</svg>
