<svg width="24" height="25" viewBox="0 0 24 25" fill="none" xmlns="http://www.w3.org/2000/svg">
<path d="M21 8V6.5C21 5.96957 20.7893 5.46086 20.4142 5.08579C20.0391 4.71071 19.5304 4.5 19 4.5H5C4.46957 4.5 3.96086 4.71071 3.58579 5.08579C3.21071 5.46086 3 5.96957 3 6.5V20.5C3 21.0304 3.21071 21.5391 3.58579 21.9142C3.96086 22.2893 4.46957 22.5 5 22.5H8.5" stroke="#08548A" stroke-width="1.75" stroke-linecap="round" stroke-linejoin="round"/>
<path d="M16 2.5V6.5" stroke="#08548A" stroke-width="1.75" stroke-linecap="round" stroke-linejoin="round"/>
<path d="M8 2.5V6.5" stroke="#08548A" stroke-width="1.75" stroke-linecap="round" stroke-linejoin="round"/>
<path d="M3 10.5H8" stroke="#08548A" stroke-width="1.75" stroke-linecap="round" stroke-linejoin="round"/>
<path d="M17.5 18L16 16.8V14.5" stroke="#08548A" stroke-width="1.75" stroke-linecap="round" stroke-linejoin="round"/>
<path d="M16 22.5C19.3137 22.5 22 19.8137 22 16.5C22 13.1863 19.3137 10.5 16 10.5C12.6863 10.5 10 13.1863 10 16.5C10 19.8137 12.6863 22.5 16 22.5Z" stroke="#08548A" stroke-width="1.75" stroke-linecap="round" stroke-linejoin="round"/>
</svg>
