<svg width="24" height="24" viewBox="0 0 24 24" fill="none" xmlns="http://www.w3.org/2000/svg">
<path d="M1.99976 10.9998L4.80638 7.84231C5.56546 6.98835 6.65348 6.49976 7.79603 6.49976H7.99976" stroke="#08548A" stroke-width="1.5" stroke-linecap="round" stroke-linejoin="round"/>
<path d="M1.99976 19.5005L7.49976 19.5002L11.4998 16.5005C11.4998 16.5005 12.3089 15.953 13.4998 15.0003C15.9998 13.0004 13.4998 9.83371 10.9998 11.4999C8.96385 12.8567 6.99976 14.0005 6.99976 14.0005" stroke="#08548A" stroke-width="1.5" stroke-linecap="round" stroke-linejoin="round"/>
<path d="M7.99976 13.4998V6.99976C7.99976 5.89519 8.89519 4.99976 9.99976 4.99976H19.9998C21.1044 4.99976 21.9998 5.89519 21.9998 6.99976V12.9998C21.9998 14.1044 21.1044 14.9998 19.9998 14.9998H13.4998" stroke="#08548A" stroke-width="1.5"/>
<path d="M15 11.9998C13.8954 11.9998 13 11.1044 13 9.99976C13 8.89519 13.8954 7.99976 15 7.99976C16.1046 7.99976 17 8.89519 17 9.99976C17 11.1044 16.1046 11.9998 15 11.9998Z" stroke="#08548A" stroke-width="1.5" stroke-linecap="round" stroke-linejoin="round"/>
<path d="M19.5 10.008L19.5083 9.99878" stroke="#08548A" stroke-width="1.5" stroke-linecap="round" stroke-linejoin="round"/>
<path d="M10.5 10.008L10.5083 9.99878" stroke="#08548A" stroke-width="1.5" stroke-linecap="round" stroke-linejoin="round"/>
</svg>
