<svg width="20" height="20" viewBox="0 0 20 20" fill="none" xmlns="http://www.w3.org/2000/svg">
<path d="M6.66602 17.5H16.666C17.108 17.5 17.532 17.3244 17.8445 17.0118C18.1571 16.6993 18.3327 16.2754 18.3327 15.8333V14.1667H8.33268V15.8333C8.33268 16.2754 8.15709 16.6993 7.84453 17.0118C7.53197 17.3244 7.10804 17.5 6.66602 17.5ZM6.66602 17.5C6.22399 17.5 5.80006 17.3244 5.4875 17.0118C5.17494 16.6993 4.99935 16.2754 4.99935 15.8333V4.16667C4.99935 3.72464 4.82375 3.30072 4.51119 2.98816C4.19863 2.67559 3.77471 2.5 3.33268 2.5C2.89065 2.5 2.46673 2.67559 2.15417 2.98816C1.84161 3.30072 1.66602 3.72464 1.66602 4.16667V6.66667H4.99935" stroke="#1E1E1E" stroke-width="1.5" stroke-linecap="round" stroke-linejoin="round"/>
<path d="M15.832 14.1667V4.16667C15.832 3.72464 15.6564 3.30072 15.3439 2.98816C15.0313 2.67559 14.6074 2.5 14.1654 2.5H3.33203" stroke="#1E1E1E" stroke-width="1.5" stroke-linecap="round" stroke-linejoin="round"/>
<path d="M12.4987 6.66699H8.33203" stroke="#1E1E1E" stroke-width="1.5" stroke-linecap="round" stroke-linejoin="round"/>
<path d="M12.4987 10H8.33203" stroke="#1E1E1E" stroke-width="1.5" stroke-linecap="round" stroke-linejoin="round"/>
</svg>
