<svg width="140" height="85" viewBox="0 0 140 85" fill="none" xmlns="http://www.w3.org/2000/svg">
<g clip-path="url(#clip0_1441_5515)">
<path opacity="0.1" d="M139.029 54.5414C139.032 56.8422 138.753 59.1347 138.201 61.3681C138.015 62.1198 137.799 62.8567 137.552 63.5788C137.251 64.4689 136.902 65.3422 136.507 66.195C136.308 66.6256 136.097 67.0483 135.875 67.4633C135.879 69.8226 135.393 72.1571 134.449 74.3192C132.741 78.198 129.697 81.3344 125.871 83.1573C123.475 84.2998 120.858 84.9002 118.204 84.9155H27.1788C23.1286 84.9245 19.1483 83.8609 15.6425 81.8327C15.1244 81.5327 14.6196 81.2131 14.128 80.8739C13.0608 80.1366 12.0581 79.31 11.1308 78.403C9.87546 77.175 8.76949 75.8031 7.83592 74.3157C5.64257 70.833 4.48065 66.8002 4.48473 62.6844C2.26349 58.787 0.968262 54.1183 0.968262 49.1015C0.968262 42.7718 3.02657 36.9978 6.40823 32.6268C7.11325 31.7136 7.8855 30.8544 8.71855 30.0563C9.54051 29.2665 10.424 28.5434 11.3606 27.8937C12.1097 27.3729 12.8929 26.903 13.7049 26.4871C14.0437 26.3136 14.3836 26.1519 14.7294 26.0006C15.033 25.8658 15.3401 25.7404 15.6507 25.622C16.0234 25.4798 16.4009 25.3497 16.783 25.2317C17.1651 25.1137 17.5421 25.0098 17.9141 24.9199C18.4611 24.7863 19.0175 24.6777 19.5833 24.5941C20.0521 24.5249 20.521 24.4768 20.9898 24.4393C21.3626 24.4128 21.7385 24.3971 22.1175 24.3924H22.3226C22.7399 24.3924 23.1548 24.4089 23.5662 24.437C23.6096 24.3503 23.6565 24.2623 23.6999 24.1756C23.864 23.8638 24.0339 23.552 24.2051 23.2461V23.2379C24.2344 23.1851 24.2637 23.1324 24.2941 23.0808C24.4325 22.8311 24.5766 22.5838 24.7243 22.3388C24.7923 22.2216 24.8591 22.1114 24.9283 22.0001C24.9435 21.9731 24.9588 21.9473 24.9763 21.9204C25.0467 21.8032 25.1182 21.6859 25.1908 21.5687C25.5527 20.9912 25.9289 20.4228 26.3196 19.8632C26.3536 19.8152 26.3853 19.7683 26.4193 19.7214C26.4802 19.6347 26.5365 19.5491 26.6045 19.4635C26.7662 19.2373 26.9327 19.0099 27.1003 18.786C27.2175 18.6278 27.3347 18.4695 27.4613 18.3172C27.7661 17.9233 28.079 17.5318 28.399 17.145C28.719 16.7582 29.0566 16.369 29.3977 15.9881C29.4446 15.9354 29.4915 15.8838 29.5407 15.831L30.0412 15.286C30.0658 15.2602 30.0869 15.2367 30.1104 15.2133C30.1702 15.1488 30.2276 15.0844 30.2921 15.0211C30.5605 14.7374 30.8359 14.4573 31.1126 14.1806C32.5256 12.7767 34.0308 11.4687 35.6183 10.2656C35.6805 10.2164 35.7438 10.1695 35.8059 10.1226C36.1036 9.89758 36.406 9.67604 36.7084 9.45802C38.3721 8.26512 40.1109 7.18059 41.914 6.21115C42.0382 6.14082 42.1648 6.07401 42.2926 6.0072C43.9095 5.15237 45.5722 4.38697 47.2731 3.71446C48.1999 3.34797 49.1431 3.0057 50.1027 2.68765C50.738 2.48018 51.3756 2.28209 52.0215 2.10157C53.0202 1.81479 54.0313 1.55613 55.055 1.32561C58.0709 0.648906 61.139 0.230882 64.226 0.0760905C65.1637 0.02686 66.112 0.00224503 67.0708 0.00224503C71.6973 -0.00387994 76.3057 0.57907 80.785 1.73703C80.8313 1.80702 80.8947 1.86408 80.9691 1.90283C81.0435 1.94159 81.1266 1.96077 81.2105 1.95857H81.6043C81.7755 2.00429 81.9454 2.05234 82.1166 2.10157C83.0723 2.37742 84.0143 2.67788 84.9426 3.00296L85.1771 3.08736C87.4684 3.9021 89.6978 4.88145 91.8478 6.01774C93.7857 7.04001 95.6518 8.19294 97.4331 9.46857C97.7074 9.66549 97.9778 9.86437 98.2442 10.0652C98.5678 9.85655 98.8967 9.65768 99.2312 9.46857C100.523 8.73335 101.895 8.14891 103.32 7.72675C106.299 6.84507 109.451 6.72178 112.491 7.36807C116.388 8.19444 119.916 10.2457 122.766 13.1632C123.927 14.3531 124.96 15.6604 125.851 17.0641C125.915 17.1649 125.98 17.2669 126.042 17.3701C126.806 18.6167 127.462 19.926 128.004 21.2839C128.024 21.3331 128.044 21.3812 128.062 21.4304C128.562 22.7012 128.966 24.0079 129.269 25.3396C129.283 25.4064 129.299 25.4743 129.313 25.5423C129.597 26.831 129.79 28.1381 129.89 29.4538C129.89 29.5007 129.89 29.5488 129.899 29.5968C129.949 30.2775 129.974 30.9655 129.974 31.661C129.974 32.2822 129.953 32.8988 129.915 33.5095C129.915 33.5763 129.905 33.6466 129.899 33.7146C129.889 33.8928 129.874 34.0662 129.858 34.2456C130.754 34.9673 131.592 35.7573 132.365 36.6086C132.706 36.9814 133.037 37.3686 133.356 37.7703C134.33 38.9902 135.186 40.2999 135.911 41.6817C137.89 45.4303 139.029 49.8306 139.029 54.5414Z" fill="#0073BA"/>
<path opacity="0.1" d="M125.784 77.613C125.784 80.2773 123.022 82.7705 118.204 84.9179H27.1788C22.9672 84.9179 19.0229 83.3941 15.6424 80.7368C14.7926 79.7287 14.3448 78.6843 14.3448 77.6118C14.3448 74.7799 17.4675 72.1367 22.8664 69.9026L23.0188 69.8416C24.5426 69.2168 26.2457 68.6272 28.1071 68.0728C28.154 68.0587 28.2021 68.0459 28.249 68.0294C29.7259 67.5957 31.2969 67.1847 32.9622 66.7963C33.0149 66.7846 33.0665 66.7717 33.1193 66.7623C33.7616 66.61 34.4168 66.4681 35.0861 66.3263L35.344 66.2724C40.2143 65.262 45.7504 64.4602 51.7542 63.9164H51.7612C52.602 63.8382 53.4519 63.7683 54.3106 63.7065C55.266 63.6303 56.233 63.5659 57.2106 63.5061C57.9572 63.458 58.7133 63.417 59.4716 63.3795C59.4744 63.3783 59.4774 63.3777 59.4804 63.3777C59.4835 63.3777 59.4865 63.3783 59.4892 63.3795C62.9108 63.2072 66.446 63.1169 70.0609 63.1169C78.9998 63.1169 87.4486 63.6655 94.9352 64.6407C94.9422 64.6395 94.9493 64.6395 94.9563 64.6407C96.1074 64.7908 97.2373 64.949 98.3391 65.1178C98.6545 65.167 98.9686 65.2163 99.2769 65.2667C100.52 65.4675 101.731 65.6797 102.911 65.9032C116.777 68.5393 125.784 72.8048 125.784 77.613Z" fill="#0073BA"/>
<path d="M103.124 28.5162C103.124 28.5162 101.884 28.0133 97.9383 29.822C93.9928 31.6306 93.5005 31.402 92.4796 31.1301C91.4586 30.8581 90.889 30.7878 89.7942 29.2769C89.7942 29.2769 89.0217 25.0911 88.2704 24.4418C87.519 23.7924 84.3472 24.8122 84.3472 24.8122C84.3472 24.8122 80.5388 25.6854 79.8133 20.5924C79.8133 20.5924 80.3278 16.7571 79.6269 15.5803C79.6269 15.5803 81.0429 16.1898 83.3778 15.2052C85.7127 14.2206 87.5823 16.266 87.5823 16.266C87.5823 16.266 88.1684 17.7898 88.1098 18.6994C88.0512 19.609 88.4216 19.9501 89.5351 19.5105C89.5351 19.5105 90.0825 18.7322 89.3077 17.4452C88.5329 16.1581 87.9797 15.2005 88.1953 14.2018C88.411 13.2031 89.0334 11.8165 91.032 11.1237C93.0305 10.431 95.744 10.3032 97.0463 9.75583C98.3486 9.20843 98.6697 8.85913 98.6697 8.85913C98.6697 8.85913 97.868 9.66206 99.7563 13.0672C101.645 16.4723 100.441 17.9492 100.441 17.9492C100.441 17.9492 99.4363 20.3439 95.0009 20.1493C95.0009 20.1493 90.7272 20.3052 93.0574 22.1174C93.0574 22.1174 94.5496 21.8138 96.7802 21.1046C99.0108 20.3955 100.621 23.3224 101.021 25.3584C101.421 27.3944 103.124 28.5162 103.124 28.5162Z" fill="#0073BA"/>
<path d="M97.3792 11.4379L97.4026 11.4309C97.5738 12.0803 95.6643 14.6918 94.0315 16.7677L94.0128 16.7525C96.3149 13.8291 97.5116 11.9408 97.3792 11.4379Z" fill="#444053"/>
<path d="M94.0455 16.7126L94.0561 16.7384C92.7515 18.3959 91.1116 20.3721 89.7988 21.8408C89.6734 21.9803 89.5492 22.1268 89.4296 22.2769L89.3921 22.2464C89.5093 22.0964 89.6371 21.9487 89.7625 21.8092C91.0741 20.3463 92.7398 18.3712 94.0455 16.7126Z" fill="#444053"/>
<path d="M89.4238 22.2087L89.4496 22.2533C87.0607 25.2364 86.9025 29.8723 86.8966 29.9086L86.3926 29.3225C86.3984 29.285 87.0185 25.213 89.4238 22.2087Z" fill="#444053"/>
<path d="M100.359 26.8986C100.359 26.8986 97.5457 25.4334 95.3467 25.9609C93.1477 26.4884 88.2024 24.0972 88.2024 24.0972C88.2024 24.0972 86.1043 23.245 85.6823 22.2733C85.6823 22.2733 84.2417 20.7495 84.1585 19.963C84.0753 19.1765 82.6745 17.1944 81.7603 17.1182" stroke="#444053" stroke-width="0.117216" stroke-miterlimit="10"/>
<path d="M99.945 28.3088C99.945 28.3088 98.5267 27.3523 98.692 26.2388" stroke="#444053" stroke-width="0.117216" stroke-miterlimit="10"/>
<path d="M97.7695 29.543C97.7695 29.543 95.7405 28.8069 95.5424 25.9187" stroke="#444053" stroke-width="0.117216" stroke-miterlimit="10"/>
<path d="M94.498 30.2908C94.498 30.2908 92.5593 28.6827 93.2028 25.8718" stroke="#444053" stroke-width="0.117216" stroke-miterlimit="10"/>
<path d="M90.5607 29.5056C90.5607 29.5056 89.2714 26.7979 90.4189 25.0361" stroke="#444053" stroke-width="0.117216" stroke-miterlimit="10"/>
<path d="M100.386 25.1135C100.386 25.1135 98.9194 25.5824 99.2335 26.3513" stroke="#444053" stroke-width="0.117216" stroke-miterlimit="10"/>
<path d="M98.6158 22.4561C98.6158 22.4561 96.6524 23.0785 96.6067 25.8553" stroke="#444053" stroke-width="0.117216" stroke-miterlimit="10"/>
<path d="M95.8776 21.8091C95.8776 21.8091 94.0901 24.0151 94.2214 26.0195" stroke="#444053" stroke-width="0.117216" stroke-miterlimit="10"/>
<path d="M92.748 22.6741C92.748 22.6741 90.9733 24.3714 91.1996 25.3149" stroke="#444053" stroke-width="0.117216" stroke-miterlimit="10"/>
<path d="M91.6778 22.0752C91.6778 22.0752 90.0133 22.3729 89.7801 21.8267" stroke="#444053" stroke-width="0.117216" stroke-miterlimit="10"/>
<path d="M89.5152 20.0662C89.5152 20.0662 90.3556 21.1797 90.5701 20.93" stroke="#444053" stroke-width="0.117216" stroke-miterlimit="10"/>
<path d="M97.8516 19.3616C97.8516 19.3616 93.6553 19.6663 92.7058 18.4004" stroke="#444053" stroke-width="0.117216" stroke-miterlimit="10"/>
<path d="M88.6372 14.4539C88.6372 14.4539 90.6053 18.6795 92.0365 19.2175" stroke="#444053" stroke-width="0.117216" stroke-miterlimit="10"/>
<path d="M90.6979 12.4412C90.6979 12.4412 91.9064 16.328 93.4044 17.5412" stroke="#444053" stroke-width="0.117216" stroke-miterlimit="10"/>
<path d="M99.6168 16.1534C99.6168 16.1534 96.4262 17.5225 94.5109 16.137" stroke="#444053" stroke-width="0.0879116" stroke-miterlimit="10"/>
<path d="M93.5392 11.6125C93.5392 11.6125 94.2683 14.4691 95.2505 15.1595" stroke="#444053" stroke-width="0.0879116" stroke-miterlimit="10"/>
<path d="M99.135 12.9524C99.135 12.9524 97.3417 13.6322 96.6735 13.1118" stroke="#444053" stroke-width="0.0879116" stroke-miterlimit="10"/>
<path d="M87.9785 20.9993C87.9785 20.9993 87.9785 23.4901 87.301 23.6671" stroke="#444053" stroke-width="0.117216" stroke-miterlimit="10"/>
<path d="M82.4354 24.2262C82.4354 24.2262 85.1313 24.4606 86.3703 23.0669" stroke="#444053" stroke-width="0.117216" stroke-miterlimit="10"/>
<path d="M87.2845 18.0571C87.2845 18.0571 86.6328 20.5831 84.8347 21.2641" stroke="#444053" stroke-width="0.117216" stroke-miterlimit="10"/>
<path d="M80.8201 21.5652C80.8201 21.5652 82.7261 22.2275 84.3659 20.5408" stroke="#444053" stroke-width="0.117216" stroke-miterlimit="10"/>
<path d="M85.1641 15.885C85.1641 15.885 84.9848 18.0301 83.8185 19.0346" stroke="#444053" stroke-width="0.117216" stroke-miterlimit="10"/>
<path d="M80.8928 18.2962C80.8928 18.2962 82.4741 18.3068 82.8445 17.791" stroke="#444053" stroke-width="0.117216" stroke-miterlimit="10"/>
<path d="M92.3295 26.4414H47.2953V49.1742H92.3295V26.4414Z" fill="#33323D"/>
<path d="M106.501 56.0806H33.267V71.0443H106.501V56.0806Z" fill="#33323D"/>
<path d="M50.7485 59.821H88.3008L95.7827 85.0001H42.8353L50.7485 59.821Z" fill="white"/>
<path d="M31.1805 47.1594V54.9296V56.566V71.0433H45.2089V57.2318H94.559V71.0433H108.587V56.566V54.9296V47.1594H31.1805Z" fill="#504F60"/>
<path opacity="0.1" d="M108.587 47.1594H31.1805V54.9285H108.587V47.1594Z" fill="#33323D"/>
<path opacity="0.8" d="M104.416 52.1962C105.051 52.1962 105.567 51.6808 105.567 51.0451C105.567 50.4094 105.051 49.894 104.416 49.894C103.78 49.894 103.265 50.4094 103.265 51.0451C103.265 51.6808 103.78 52.1962 104.416 52.1962Z" fill="#8CCF4D"/>
<path opacity="0.8" d="M99.2358 52.1962C99.8715 52.1962 100.387 51.6808 100.387 51.0451C100.387 50.4094 99.8715 49.894 99.2358 49.894C98.6001 49.894 98.0848 50.4094 98.0848 51.0451C98.0848 51.6808 98.6001 52.1962 99.2358 52.1962Z" fill="#FA5959"/>
<path d="M90.6756 20.9734H48.9504V45.7199H90.6756V20.9734Z" fill="white"/>
<path d="M97.0228 57.0921C97.1107 58.0498 96.3875 58.9793 96.5985 59.917C96.643 60.1175 96.7298 60.3074 96.7614 60.5031C96.8482 61.0599 96.5164 61.5873 96.1988 62.0539L93.4759 66.0603C93.3666 66.2361 93.2359 66.3975 93.0867 66.5409C92.5651 67.0097 91.7844 66.9558 91.1011 67.0941C90.6206 67.1916 90.1668 67.3915 89.7707 67.6802C89.7534 67.6939 89.742 67.7136 89.7388 67.7354C89.7355 67.7571 89.7406 67.7793 89.7531 67.7974C89.8657 67.952 90.0153 68.0758 90.1881 68.1577C90.3609 68.2396 90.5515 68.277 90.7424 68.2663C90.8139 68.3601 90.7424 68.5007 90.6439 68.5664C90.4974 68.6672 90.2923 68.6941 90.2677 68.9426C90.2574 69.029 90.2746 69.1163 90.3169 69.1923C90.4271 69.3601 90.5981 69.4786 90.794 69.5228C91.7317 69.8112 92.755 69.3048 93.4606 68.6156C94.1663 67.9264 94.6726 67.0566 95.3654 66.3545C95.7487 65.9665 96.1859 65.6336 96.5797 65.2574C97.3674 64.5072 97.9863 63.5941 98.5724 62.6786C98.7659 62.4132 98.9119 62.1161 99.0038 61.8007C99.0764 61.4889 99.0436 61.1595 99.128 60.8501C99.2382 60.4457 99.5347 60.1233 99.7809 59.7834C100.265 59.1176 100.587 58.3041 100.523 57.4836C100.458 56.6631 99.952 55.8555 99.1784 55.5765C98.9385 55.481 98.6744 55.465 98.4247 55.5308C98.1071 55.6281 97.8738 55.8907 97.6569 56.1415L97.14 56.7381C97.0112 56.8702 96.9089 57.0258 96.8388 57.1965C96.8055 57.2825 96.7978 57.3763 96.8167 57.4666C96.8357 57.5569 96.8804 57.6398 96.9454 57.7052" fill="#FBBEBE"/>
<path opacity="0.05" d="M97.0228 57.0921C97.1107 58.0498 96.3875 58.9793 96.5985 59.917C96.643 60.1175 96.7298 60.3074 96.7614 60.5031C96.8482 61.0599 96.5164 61.5873 96.1988 62.0539L93.4759 66.0603C93.3666 66.2361 93.2359 66.3975 93.0867 66.5409C92.5651 67.0097 91.7844 66.9558 91.1011 67.0941C90.6206 67.1916 90.1668 67.3915 89.7707 67.6802C89.7534 67.6939 89.742 67.7136 89.7388 67.7354C89.7355 67.7571 89.7406 67.7793 89.7531 67.7974C89.8657 67.952 90.0153 68.0758 90.1881 68.1577C90.3609 68.2396 90.5515 68.277 90.7424 68.2663C90.8139 68.3601 90.7424 68.5007 90.6439 68.5664C90.4974 68.6672 90.2923 68.6941 90.2677 68.9426C90.2574 69.029 90.2746 69.1163 90.3169 69.1923C90.4271 69.3601 90.5981 69.4786 90.794 69.5228C91.7317 69.8112 92.755 69.3048 93.4606 68.6156C94.1663 67.9264 94.6726 67.0566 95.3654 66.3545C95.7487 65.9665 96.1859 65.6336 96.5797 65.2574C97.3674 64.5072 97.9863 63.5941 98.5724 62.6786C98.7659 62.4132 98.9119 62.1161 99.0038 61.8007C99.0764 61.4889 99.0436 61.1595 99.128 60.8501C99.2382 60.4457 99.5347 60.1233 99.7809 59.7834C100.265 59.1176 100.587 58.3041 100.523 57.4836C100.458 56.6631 99.952 55.8555 99.1784 55.5765C98.9385 55.481 98.6744 55.465 98.4247 55.5308C98.1071 55.6281 97.8738 55.8907 97.6569 56.1415L97.14 56.7381C97.0112 56.8702 96.9089 57.0258 96.8388 57.1965C96.8055 57.2825 96.7978 57.3763 96.8167 57.4666C96.8357 57.5569 96.8804 57.6398 96.9454 57.7052" fill="black"/>
<path d="M99.0847 81.7415C98.4892 82.1037 97.7484 82.1271 97.0568 82.0416C96.9396 82.0287 96.8142 82.0205 96.7427 82.106C96.6395 82.2314 96.7614 82.4143 96.8869 82.5151C97.2955 82.821 97.775 83.0182 98.2806 83.0883C98.7318 83.1512 99.187 83.1814 99.6426 83.1785C100.885 83.1996 102.135 83.2207 103.365 83.0414C103.436 83.0361 103.506 83.0157 103.568 82.9816C103.648 82.9262 103.703 82.8422 103.722 82.7472C103.807 82.4284 103.644 82.0838 103.399 81.8622C103.154 81.6407 102.839 81.5164 102.531 81.3934L101.45 80.9725C101.196 80.8729 100.789 80.6115 100.512 80.6315C100.007 80.6725 99.5137 81.4906 99.0847 81.7415Z" fill="#3F3D56"/>
<path opacity="0.05" d="M99.0847 81.7415C98.4892 82.1037 97.7484 82.1271 97.0568 82.0416C96.9396 82.0287 96.8142 82.0205 96.7427 82.106C96.6395 82.2314 96.7614 82.4143 96.8869 82.5151C97.2955 82.821 97.775 83.0182 98.2806 83.0883C98.7318 83.1512 99.187 83.1814 99.6426 83.1785C100.885 83.1996 102.135 83.2207 103.365 83.0414C103.436 83.0361 103.506 83.0157 103.568 82.9816C103.648 82.9262 103.703 82.8422 103.722 82.7472C103.807 82.4284 103.644 82.0838 103.399 81.8622C103.154 81.6407 102.839 81.5164 102.531 81.3934L101.45 80.9725C101.196 80.8729 100.789 80.6115 100.512 80.6315C100.007 80.6725 99.5137 81.4906 99.0847 81.7415Z" fill="black"/>
<path d="M99.8383 67.3883C99.3894 67.9873 98.9229 68.6777 99.0342 69.4197C99.094 69.8194 99.3179 70.1722 99.482 70.5414C99.6874 71.0494 99.8395 71.5774 99.9356 72.1168C100.104 72.901 100.273 73.6875 100.376 74.4834C100.494 75.3824 99.9427 77.9834 99.8911 78.8895C99.8782 79.1075 99.8536 79.3443 99.7012 79.5014C99.6414 79.5635 99.5617 79.6186 99.5359 79.6948C99.5195 79.7723 99.532 79.8532 99.5711 79.9222C99.8255 80.4954 100.345 80.9208 100.921 81.1646C101.498 81.4085 102.901 81.8269 103.527 81.8492C103.61 81.8592 103.695 81.8479 103.772 81.8164C103.857 81.7658 103.923 81.69 103.962 81.5995C104.414 80.7356 103.98 77.6599 103.987 76.6835C103.987 75.863 104.185 75.0612 104.15 74.2478C104.12 73.5949 103.946 72.9584 103.882 72.3067C103.778 71.2388 103.974 70.1675 104.171 69.1126C104.321 68.3049 104.471 67.4962 104.663 66.6967C104.78 66.2103 104.916 65.718 105.185 65.2902C105.397 64.9537 105.685 64.6736 105.928 64.3524C106.6 63.4709 106.899 62.3602 106.759 61.2603C106.745 61.1524 105.197 61.653 105.063 61.7116C104.507 61.9477 103.996 62.2767 103.552 62.6845C103.2 63.0244 102.913 63.4803 102.599 63.8625C102.156 64.4017 101.718 64.9451 101.287 65.4929C100.797 66.122 100.314 66.7538 99.8383 67.3883Z" fill="#464353"/>
<path opacity="0.05" d="M99.8383 67.3496C99.3894 67.9486 98.9229 68.639 99.0342 69.3821C99.094 69.7807 99.3179 70.1335 99.482 70.5027C99.6873 71.0107 99.8393 71.5387 99.9356 72.0781C100.104 72.8623 100.273 73.6488 100.376 74.4447C100.494 75.3437 99.9427 77.9459 99.8911 78.852C99.8782 79.0688 99.8536 79.3068 99.7012 79.4627C99.6414 79.5248 99.5617 79.5799 99.5359 79.6561C99.5181 79.7359 99.5307 79.8194 99.5711 79.8905C99.8255 80.4625 100.345 80.8892 100.921 81.1318C101.498 81.3744 102.901 81.6007 103.527 81.6206C103.61 81.6306 103.695 81.6193 103.772 81.5878C103.857 81.5372 103.923 81.4613 103.962 81.3709C104.414 80.507 103.98 77.6271 103.987 76.6518C103.987 75.8313 104.185 75.0284 104.15 74.2149C104.12 73.562 103.946 72.9255 103.882 72.2738C103.778 71.206 103.974 70.1346 104.171 69.0809C104.321 68.2721 104.471 67.4633 104.663 66.6639C104.78 66.1774 104.916 65.6851 105.185 65.2573C105.397 64.9221 105.685 64.6408 105.928 64.3266C106.599 63.4447 106.898 62.3343 106.759 61.2345C106.745 61.1255 105.197 61.626 105.063 61.6857C104.507 61.9221 103.996 62.2519 103.552 62.661C103.2 63.0021 102.913 63.4569 102.599 63.8331C102.156 64.3723 101.718 64.9162 101.287 65.4648C100.797 66.0899 100.314 66.7182 99.8383 67.3496Z" fill="black"/>
<path d="M94.8344 54.2004C96.2282 54.2004 97.3581 53.0705 97.3581 51.6767C97.3581 50.283 96.2282 49.1531 94.8344 49.1531C93.4407 49.1531 92.3108 50.283 92.3108 51.6767C92.3108 53.0705 93.4407 54.2004 94.8344 54.2004Z" fill="#FBBEBE"/>
<path d="M97.1061 51.5713C97.3391 51.9435 97.6447 52.265 98.0045 52.5167C98.3644 52.7684 98.7712 52.9452 99.2007 53.0365L99.0108 53.7245C98.6826 54.9119 98.3075 56.1673 97.3968 56.9902C97.4964 56.5881 97.3675 56.1556 97.1401 55.8098C96.8969 55.4734 96.6085 55.1721 96.2832 54.9143L94.8309 53.6507C94.7876 53.6187 94.7507 53.579 94.7219 53.5335C94.6868 53.4446 94.6868 53.3457 94.7219 53.2569C94.9071 52.6813 95.4357 52.3191 95.8636 51.9323C96.0788 51.7307 96.2714 51.5063 96.4379 51.263C96.7357 50.8492 96.915 51.263 97.1061 51.5713Z" fill="#FBBEBE"/>
<path d="M91.509 49.1402L91.4528 48.6714C91.8513 48.7745 92.2287 48.4369 92.4831 48.0853C92.7375 47.7336 92.9742 47.3211 93.3622 47.1757C93.8311 46.9975 94.3328 47.2824 94.7829 47.5168C95.2875 47.7976 95.8414 47.9787 96.4145 48.0501C96.5059 48.0532 96.5966 48.0682 96.6841 48.0947C96.9771 48.199 97.1166 48.5635 97.1588 48.8999C97.201 49.2364 97.1893 49.588 97.3347 49.8857C97.4437 50.1108 97.6324 50.2784 97.7472 50.4999C98.0555 51.0977 97.7578 51.9136 98.0837 52.4996L97.2749 51.7577C97.1999 51.6897 97.0955 51.6193 97.0146 51.6768C96.9338 51.7342 96.9455 51.821 96.9185 51.8995C96.84 52.1339 96.5528 52.1996 96.343 52.1093C96.1332 52.019 95.982 51.8198 95.8284 51.6404C95.4709 51.2185 95.0454 50.8481 94.5391 50.6676C94.3199 50.5835 94.0853 50.5473 93.8511 50.5612C93.6168 50.5752 93.3882 50.639 93.1805 50.7484C92.8031 50.9618 92.5265 51.4588 92.0646 51.4763C91.4305 51.4998 91.1668 50.3194 90.8726 49.8529C90.9797 49.7718 91.055 49.6558 91.0854 49.5249C91.1158 49.3941 91.0994 49.2567 91.039 49.1367C91.0906 49.1168 91.5008 49.064 91.509 49.1402Z" fill="#464353"/>
<path d="M102.028 81.7215C101.529 82.1662 100.882 82.4076 100.214 82.3978C100.044 82.3978 99.8079 82.4307 99.8068 82.6006C99.8098 82.6512 99.8268 82.6999 99.856 82.7413C100.068 83.0929 100.402 83.3542 100.794 83.475C101.157 83.5852 101.546 83.5665 101.926 83.5477L103.034 83.4903C103.242 83.4786 103.452 83.468 103.661 83.4422C103.869 83.4164 104.095 83.3731 104.313 83.3414C104.847 83.2651 105.387 83.2396 105.925 83.2652C106.068 83.2711 106.234 83.2652 106.323 83.1574C106.412 83.0496 106.364 82.855 106.331 82.6991C106.265 82.3779 106.331 82.0415 106.27 81.7192C106.163 81.153 105.677 80.7205 105.14 80.5154C104.642 80.3255 103.758 80.1086 103.286 80.4239C102.779 80.7639 102.475 81.3171 102.028 81.7215Z" fill="#3F3D56"/>
<path d="M103.125 62.7784C103.224 63.2472 103.672 63.5989 103.687 64.0677C103.697 64.4475 103.425 64.771 103.231 65.0934C103.045 65.4311 102.888 65.784 102.762 66.1483C102.392 67.0939 101.933 68.0025 101.393 68.8619C101.132 69.2733 100.842 69.721 100.902 70.2051C100.942 70.4311 101.022 70.6483 101.136 70.8475L101.915 72.3959C102.087 72.7052 102.22 73.0337 102.314 73.3747C102.381 73.6689 102.388 73.9736 102.431 74.2737C102.554 75.2231 103 76.1796 102.737 77.0998C102.714 77.1795 102.632 77.2756 102.569 77.217C102.826 77.6976 103.038 78.1828 103.014 78.7279C103.003 79.0139 102.915 79.314 103.022 79.5789C103.082 79.682 103.122 79.7958 103.139 79.9141C103.139 79.9915 103.103 80.0653 103.095 80.1485C103.074 80.3677 103.274 80.5506 103.484 80.6174C103.694 80.6842 103.92 80.6819 104.131 80.7452C104.538 80.8624 104.826 81.214 105.174 81.4578C105.527 81.7023 105.943 81.838 106.372 81.8482C106.433 81.8546 106.494 81.8424 106.548 81.813C106.579 81.7863 106.603 81.7534 106.62 81.7164C106.637 81.6794 106.646 81.6392 106.646 81.5985C106.665 81.4044 106.636 81.2086 106.561 81.0286C106.486 80.8485 106.368 80.6895 106.217 80.5658C106.152 80.5241 106.097 80.4669 106.059 80.3994C106.039 80.3393 106.034 80.2755 106.044 80.213C106.107 79.3609 106.092 78.5047 105.998 77.6554C105.956 77.3864 105.942 77.1137 105.957 76.8419C105.98 76.6157 106.048 76.3906 106.023 76.1644C105.997 75.9382 105.883 75.7342 105.815 75.5162C105.698 75.1294 105.728 74.7144 105.716 74.3089C105.694 73.6056 105.534 72.9163 105.373 72.2318C105.311 71.9634 105.241 71.6809 105.05 71.4816C104.888 71.3128 104.627 71.1499 104.688 70.9248C104.721 70.8415 104.771 70.7661 104.835 70.7033C104.911 70.6088 104.966 70.4999 104.998 70.3832C105.03 70.2665 105.038 70.1445 105.022 70.0246C105.09 70.0429 105.163 70.0364 105.227 70.0064C105.292 69.9764 105.343 69.9248 105.373 69.8605C106.64 69.2639 107.665 68.0683 108.116 66.7414C108.141 66.6436 108.181 66.55 108.233 66.4636C108.351 66.2995 108.555 66.2292 108.735 66.1378C109.302 65.8529 109.695 65.3173 110.055 64.7933C110.265 64.4885 110.473 64.1744 110.564 63.8169C110.613 63.5858 110.636 63.3499 110.634 63.1136L110.666 61.8922C110.672 61.8133 110.664 61.7339 110.642 61.6578C110.612 61.5849 110.568 61.519 110.511 61.4644C110.167 61.0984 109.715 60.8519 109.221 60.7611C108.889 60.7013 108.549 60.713 108.212 60.6849C107.559 60.631 106.915 60.4294 106.262 60.4763C105.235 60.5513 104.322 61.2628 103.838 62.1712C103.668 62.4959 103.49 62.7784 103.125 62.7784Z" fill="#464353"/>
<path d="M97.4284 54.8358C97.4432 55.0242 97.418 55.2135 97.3545 55.3914C97.2748 55.5626 97.0732 55.695 96.8986 55.6259C96.9513 55.5087 96.8107 55.3692 96.6805 55.3844C96.6162 55.3987 96.5563 55.4285 96.506 55.4712C96.4558 55.5139 96.4167 55.5682 96.3922 55.6294C96.3048 55.8036 96.2756 56.0012 96.309 56.1932C96.35 56.4276 96.4883 56.6621 96.452 56.8965C96.4227 57.0958 96.2762 57.295 96.3547 57.4826C96.4052 57.5668 96.4684 57.6428 96.5422 57.7076C96.6453 57.834 96.6958 57.9951 96.6833 58.1576C96.6709 58.3201 96.5965 58.4717 96.4754 58.5809L98.4423 58.6196C98.3708 58.9489 98.5173 59.2853 98.6861 59.5772C99.1584 60.3794 99.81 61.0614 100.59 61.5698C101.37 62.0782 102.257 62.3992 103.181 62.5076C103.131 62.5371 103.089 62.5772 103.056 62.6252C103.024 62.6731 103.002 62.7277 102.993 62.785C102.984 62.8422 102.988 62.9007 103.004 62.9563C103.021 63.012 103.049 63.0633 103.088 63.1066C103.247 63.2648 103.518 63.2449 103.718 63.1417C103.919 63.0386 104.077 62.8686 104.26 62.7373C104.582 62.5075 104.977 62.401 105.371 62.4373C105.617 62.4607 105.856 62.5404 106.103 62.5545C106.833 62.5932 107.459 62.0692 108.156 61.8512C108.667 61.6941 109.245 61.6941 109.68 61.3753C109.865 61.2382 110.016 61.0131 109.962 60.7892C109.916 60.6607 109.844 60.5433 109.75 60.4446C109.503 60.1258 109.357 59.7413 109.182 59.3791C108.831 58.6612 108.349 58.0155 107.76 57.4755C107.316 57.0867 106.846 56.7292 106.353 56.4054C106.233 56.3158 106.105 56.2374 105.971 56.1709C105.792 56.1126 105.617 56.0417 105.448 55.9588C105.214 55.8134 105.084 55.5567 104.907 55.3492C104.516 54.8944 103.917 54.6846 103.437 54.3271C103.115 54.0927 102.831 53.7715 102.445 53.6555C102.259 53.5992 102.06 53.5945 101.872 53.5383C101.448 53.4093 101.138 53.0319 100.721 52.8795C100.39 52.7623 100.027 52.7904 99.6777 52.7471C99.2935 52.6994 98.9264 52.5599 98.6076 52.3403C98.5017 52.255 98.383 52.187 98.2559 52.1387C97.7296 51.9781 97.6863 52.9592 97.637 53.3003C97.5585 53.8219 97.4284 54.3236 97.4284 54.8358Z" fill="#0073BA"/>
<path d="M97.9418 58.1295C98.0297 59.0872 97.3065 60.0155 97.5175 60.9544C97.562 61.1549 97.6488 61.3447 97.6804 61.5405C97.7683 62.0973 97.4354 62.6247 97.1178 63.0901L94.3949 67.0871C94.2857 67.2629 94.1549 67.4243 94.0057 67.5677C93.4841 68.0366 92.7035 67.9827 92.0201 68.121C91.5397 68.2186 91.086 68.4185 90.6897 68.707C90.6724 68.7207 90.661 68.7404 90.6578 68.7622C90.6545 68.7839 90.6596 68.8061 90.6721 68.8243C90.7845 68.979 90.934 69.1031 91.1069 69.185C91.2798 69.2669 91.4704 69.3041 91.6614 69.2931C91.7329 69.3881 91.6614 69.5276 91.563 69.5932C91.4164 69.6952 91.2113 69.7221 91.1867 69.9706C91.1764 70.057 91.1936 70.1443 91.2359 70.2203C91.3465 70.3878 91.5173 70.5062 91.713 70.5508C92.6507 70.8392 93.674 70.3328 94.3796 69.6436C95.0853 68.9544 95.5916 68.0846 96.2856 67.3825C96.6689 66.9945 97.1061 66.6616 97.4987 66.2854C98.2876 65.5352 98.8995 64.6221 99.4914 63.7066C99.6847 63.441 99.8307 63.144 99.9228 62.8287C99.9954 62.5169 99.9626 62.1875 100.047 61.8781C100.157 61.4737 100.454 61.1502 100.7 60.8114C101.184 60.1456 101.506 59.3321 101.442 58.5116C101.377 57.6911 100.871 56.8835 100.097 56.6045C99.8577 56.5085 99.5933 56.4924 99.3437 56.5588C99.0272 56.6561 98.7928 56.9187 98.576 57.1695L98.059 57.7661C97.9302 57.8979 97.8282 58.0536 97.759 58.2245C97.7255 58.3102 97.7176 58.4038 97.7363 58.4939C97.755 58.584 97.7996 58.6667 97.8645 58.732" fill="#FBBEBE"/>
<path d="M99.3203 54.1947C98.9616 54.2158 98.5677 54.2509 98.3146 54.5065C98.2091 54.6238 98.1236 54.7576 98.0614 54.9026C97.8164 55.4032 97.5773 55.9259 97.5597 56.4827C97.5444 56.9281 97.6769 57.363 97.7414 57.8037C97.7976 58.1694 97.6546 58.5422 97.6241 58.9126C98.0684 58.7766 98.6545 58.5914 99.0577 58.3617C99.3219 58.1888 99.6026 58.0427 99.8958 57.9256C100.324 57.7838 101.042 58.0276 101.445 58.228C101.468 57.942 101.254 57.4462 101.277 57.1602C101.28 57.0405 101.301 56.922 101.34 56.8086C101.401 56.6884 101.472 56.5742 101.554 56.4675C101.71 56.2159 101.781 55.9214 101.759 55.6265C101.736 55.3316 101.621 55.0515 101.429 54.8264C101.069 54.4209 100.504 54.2685 99.9661 54.2064C99.6269 54.1668 99.2851 54.1546 98.944 54.17" fill="#0073BA"/>
<path d="M46.2158 45.9942L43.9043 42.6418C43.9043 42.6418 43.8609 41.8119 43.7097 41.6185C43.5585 41.4251 43.6769 40.9938 43.6769 40.9938C43.6769 40.9938 43.8398 40.7593 43.6991 40.7347C43.5585 40.7101 43.6769 40.185 43.6769 40.185L43.6663 39.3445C43.6663 39.3445 43.7964 38.5358 43.6886 38.3424C43.6567 38.2899 43.6408 38.2293 43.6427 38.1679C43.6445 38.1065 43.6642 38.047 43.6991 37.9966C43.6991 37.9966 43.8281 37.5336 43.6991 37.4105C43.5702 37.2874 43.6019 36.5701 43.6335 35.998C43.6652 35.426 43.4073 35.1037 43.4073 35.0181C43.4073 34.9326 42.554 34.0909 42.554 34.0148C42.554 33.9386 42.0136 33.6268 41.6889 33.5459C41.3642 33.465 41.2036 33.3947 41.2142 33.3513C41.2247 33.3079 40.7066 33.1368 40.7066 33.1368C40.7066 33.1368 40.253 33.104 40.0795 32.8778C39.906 32.6515 39.3762 32.5859 39.3633 32.5836L39.3528 32.539C39.3528 32.5226 39.3469 32.5062 39.3434 32.4898C39.3862 32.4216 39.4253 32.3512 39.4606 32.2788L39.4911 32.2132C39.6809 32.2144 39.8665 32.1566 40.0221 32.0479C40.0987 31.9844 40.1613 31.9056 40.2059 31.8166C40.2505 31.7276 40.2761 31.6304 40.2811 31.531C40.2904 31.3317 40.2467 31.1335 40.1545 30.9566C40.0596 30.7632 39.9201 30.5616 39.9693 30.3506C39.9904 30.2603 40.0444 30.1806 40.0725 30.0916C40.1145 29.9176 40.0867 29.7342 39.9951 29.5805C39.9131 29.4246 39.7994 29.2863 39.708 29.1351C39.592 28.9415 39.5144 28.7274 39.4794 28.5045C39.4729 28.3858 39.4447 28.2694 39.3962 28.161C39.3471 28.0846 39.2824 28.0195 39.2063 27.97C38.868 27.7287 38.4599 27.6051 38.0447 27.6183C37.7505 27.6277 37.4586 27.7074 37.1656 27.671C36.991 27.641 36.8192 27.5963 36.6521 27.5374C36.29 27.4296 35.8715 27.3862 35.5562 27.5937C35.2409 27.8012 35.1155 28.2091 34.9009 28.5314C34.7122 28.8127 34.4321 29.0495 34.2914 29.3519C34.2914 29.3519 34.2914 29.3402 34.2914 29.3355C34.256 29.4044 34.2289 29.4771 34.2105 29.5524C34.1703 29.7912 34.1868 30.0361 34.2586 30.2674C34.2745 30.3919 34.3369 30.5058 34.4333 30.5862C34.5399 30.6554 34.6864 30.6389 34.8107 30.6612L34.7966 30.7222C34.6701 31.3281 34.776 31.9594 35.0932 32.4909C35.4104 33.0224 35.9158 33.4153 36.5091 33.5916C36.5091 33.6139 36.5091 33.635 36.5091 33.6572C36.5089 33.7192 36.505 33.781 36.4974 33.8424C36.4974 33.8424 35.4108 33.6186 35.119 33.7698C34.8271 33.921 34.2551 34.0394 34.1684 34.1214C34.0816 34.2035 33.8659 34.1437 33.6714 34.6501C33.4768 35.1564 33.4557 35.6734 33.2025 35.9113C32.9493 36.1493 32.8251 36.3098 32.8133 36.4821C32.8016 36.6544 32.8462 36.6978 32.7489 36.7517C32.6516 36.8057 32.5144 37.0319 32.5543 37.1186C32.5692 37.1779 32.566 37.2403 32.5451 37.2978C32.5242 37.3552 32.4866 37.4051 32.4371 37.441C32.3858 37.477 32.3449 37.5258 32.3183 37.5826C32.2918 37.6393 32.2806 37.702 32.2859 37.7645C32.2859 37.7645 32.2202 37.9989 32.069 38.0563C31.9178 38.1138 31.8205 38.4654 31.8205 38.4654L31.3306 39.0281L30.36 37.9544C30.2871 37.8741 30.1854 37.826 30.0771 37.8205C29.9688 37.815 29.8628 37.8526 29.7821 37.9251L29.3051 38.3541C29.1212 38.3987 28.955 38.4975 28.828 38.6377C28.7246 38.745 28.6409 38.8696 28.5807 39.0058L28.3205 39.2402C28.2383 39.3421 28.1879 39.4659 28.1759 39.5963C28.1638 39.7266 28.1904 39.8576 28.2525 39.9728L28.8749 40.6609V40.6667C28.6544 40.6861 28.4449 40.7715 28.2736 40.9117C27.3452 41.7322 27.3359 42.4859 27.4742 42.8305C27.6125 43.1751 28.7917 44.5009 28.7917 44.5009C28.7917 44.5009 29.4762 45.3905 30.4643 45.8629L30.4573 45.8711C30.437 45.8923 30.4178 45.9146 30.3999 45.9379L30.3835 45.959L30.3682 45.9801L30.3506 46.0059C30.3459 46.0127 30.3416 46.0197 30.3377 46.027L30.319 46.0575C30.3146 46.0643 30.3107 46.0713 30.3073 46.0786C30.2991 46.0926 30.292 46.1067 30.285 46.1208C30.2824 46.1253 30.2801 46.13 30.278 46.1348C30.2686 46.1536 30.2592 46.1723 30.251 46.1934L30.2416 46.2145C30.2358 46.2286 30.2311 46.2427 30.2252 46.2579C30.2216 46.2671 30.2184 46.2765 30.2158 46.286L30.2018 46.3282C30.198 46.3382 30.1948 46.3484 30.1924 46.3587C30.1924 46.374 30.183 46.3892 30.1795 46.4056C30.176 46.422 30.1736 46.4244 30.1713 46.4349C30.169 46.4455 30.1596 46.4853 30.1549 46.5123C30.1549 46.5217 30.1549 46.5322 30.149 46.5427C30.1432 46.5533 30.1432 46.5791 30.1397 46.5978C30.1361 46.6166 30.1397 46.6236 30.1397 46.6377L30.1326 46.6904V46.7326C30.1326 46.7526 30.1326 46.7725 30.1268 46.7936C30.1209 46.8147 30.1268 46.8182 30.1268 46.8311C30.1268 46.8651 30.1268 46.8991 30.1268 46.9354C30.1057 48.1967 30.1795 48.3795 30.1795 48.3795C30.2277 48.496 30.3064 48.5974 30.4072 48.6731C30.508 48.7488 30.6274 48.796 30.7527 48.8097C30.8142 48.8145 30.876 48.8114 30.9367 48.8003C31.4994 48.703 32.8122 48.4768 33.281 48.5659C33.5612 48.6175 34.0781 48.5401 34.4462 48.4709L34.5434 48.4522L34.6103 48.6667L34.8236 48.6081L35.0053 48.7124L35.1225 48.7792C35.3358 49.5013 36.2009 49.2551 36.2009 49.2551L36.406 49.3723L38.4913 49.4262C38.7253 49.5673 38.9727 49.6851 39.2297 49.7779C39.2637 49.789 39.2986 49.7968 39.334 49.8013C39.529 49.8172 39.7247 49.8207 39.9201 49.8119C40.0795 49.8119 40.2026 49.8013 40.2026 49.8013C40.2026 49.8013 40.1815 49.2352 40.151 48.6011C40.7974 48.5851 41.4424 48.5322 42.0827 48.4428C43.1963 48.2482 43.6605 47.2355 43.8316 46.694C43.8828 46.9152 43.9192 47.1395 43.9406 47.3656C43.9861 47.5644 44.0441 47.7601 44.1141 47.9517C44.1738 48.1047 44.2526 48.2497 44.3485 48.383C45.169 48.1029 44.672 47.6797 44.4997 47.4992C44.3274 47.3187 44.6169 47.1652 44.6169 47.1652C44.6169 47.1652 44.8443 47.014 44.8221 46.8745C44.7998 46.735 44.7893 46.5838 45.5254 46.5943C46.2615 46.6049 46.2158 45.9942 46.2158 45.9942ZM34.8083 39.1125C34.8177 39.1734 34.9256 39.838 35.0123 40.0127C35.0382 40.128 35.0465 40.2465 35.0369 40.3643C34.602 40.3292 34.1484 40.3104 34.1484 40.3104C34.1612 40.3262 34.1693 40.3453 34.1719 40.3655L34.1027 40.3503L34.0042 40.3268L34.806 39.1066L34.8083 39.1125ZM33.2189 41.6396L33.9726 41.7568L34.0359 41.7662C34.0146 41.8824 34.0017 41.9999 33.9972 42.1179C33.9972 42.1296 34.0136 42.1425 34.0382 42.1577C34.0278 42.2169 34.023 42.277 34.0242 42.3371C34.0359 42.3957 34.3875 42.5246 34.7919 42.6313C34.7861 42.6535 34.7814 42.6746 34.7755 42.6934C34.418 42.5058 33.8566 42.4179 33.7921 42.2784C33.7276 42.139 31.8147 41.4708 31.8147 41.4708L31.6248 41.3759L32.1276 41.4708L32.2659 41.4568C32.5793 41.5383 32.8976 41.5994 33.2189 41.6396Z" fill="url(#paint0_linear_1441_5515)"/>
<path d="M43.7566 46.463C43.7566 46.463 43.4577 48.2728 41.9374 48.5401C40.4171 48.8073 35.3417 48.7546 35.3417 48.7546C35.3417 48.7546 32.4394 48.3361 31.3904 45.8852C30.3413 43.4342 29.6661 42.4578 30.5698 42.4156C31.4736 42.3734 36.3204 44.0566 36.5982 44.0753C36.876 44.0941 44.025 40.3491 43.7566 46.463Z" fill="#65617D"/>
<path opacity="0.05" d="M43.7566 46.463C43.7566 46.463 43.4577 48.2728 41.9374 48.5401C40.4171 48.8073 35.3417 48.7546 35.3417 48.7546C35.3417 48.7546 32.4394 48.3361 31.3904 45.8852C30.3413 43.4342 29.6661 42.4578 30.5698 42.4156C31.4736 42.3734 36.3204 44.0566 36.5982 44.0753C36.876 44.0941 44.025 40.3491 43.7566 46.463Z" fill="black"/>
<path d="M30.1467 48.4781C30.1938 48.594 30.2715 48.695 30.3714 48.7703C30.4712 48.8456 30.5897 48.8925 30.714 48.9059C30.7756 48.9097 30.8374 48.9062 30.8981 48.8954C31.4548 48.7993 32.7606 48.5742 33.2213 48.661C33.4979 48.7114 34.0101 48.6352 34.3747 48.5672C34.6173 48.5215 34.7955 48.4781 34.7955 48.4781C34.7955 48.4781 34.3665 47.0539 34.3137 47.0117C34.261 46.9695 32.3855 45.8396 32.3855 45.8396L30.9016 45.7329C30.7018 45.7628 30.5213 45.8686 30.3976 46.0283C30.2417 46.2182 30.1069 46.5288 30.0975 47.0387C30.0729 48.2941 30.1467 48.4781 30.1467 48.4781Z" fill="#3F3D56"/>
<path opacity="0.05" d="M30.1467 48.4779C30.1938 48.5938 30.2714 48.6948 30.3713 48.7701C30.4712 48.8454 30.5896 48.8923 30.714 48.9057C30.5687 48.7181 30.4341 48.5225 30.3108 48.3197L30.319 47.2811C30.2895 46.9963 30.3272 46.7085 30.4289 46.4408C30.5307 46.1731 30.6938 45.933 30.9051 45.7397C30.9051 45.7397 30.1232 45.7925 30.101 47.0455C30.0787 48.2986 30.1467 48.4779 30.1467 48.4779Z" fill="black"/>
<path opacity="0.1" d="M36.583 46.2064L37.965 45.1245L40.1382 42.983L39.5521 42.9561C39.4642 43.0123 39.218 43.1905 39.2086 43.4038C39.1981 43.6652 38.6226 43.4226 38.3213 43.5714C38.0201 43.7203 36.5549 45.5993 36.2982 45.5864C36.0415 45.5735 35.8375 45.4563 35.7297 45.6391L35.7227 45.6508L36.583 46.2064Z" fill="black"/>
<path opacity="0.1" d="M30.394 46.0305C30.4433 46.054 30.4937 46.0774 30.5441 46.0985C31.5932 46.5486 32.8884 47.491 32.9857 47.6622C33.0443 47.7665 33.7956 48.2225 34.3747 48.5647C34.6173 48.519 34.7955 48.4757 34.7955 48.4757C34.7955 48.4757 34.3665 47.0515 34.3137 47.0093C34.261 46.9671 32.3855 45.8371 32.3855 45.8371L30.9016 45.7305C30.6998 45.7607 30.5177 45.8683 30.394 46.0305Z" fill="black"/>
<path d="M27.4824 42.9619C27.6207 43.3042 28.7881 44.6217 28.7881 44.6217C28.7881 44.6217 29.5266 45.5852 30.5769 46.0283C31.6271 46.4713 32.9212 47.4208 33.0173 47.5919C33.0794 47.7021 33.9163 48.2061 34.5047 48.5519L34.6372 48.6293L34.9291 48.7992L35.0838 48.8872C35.0838 48.8872 35.4425 48.6 35.8 48.3105C36.1575 48.0209 36.5033 47.7373 36.5033 47.7244C36.5033 47.7115 36.6533 47.3282 36.6205 47.3071C36.5877 47.286 36.5302 47.1477 36.3943 46.9754C36.2508 46.7843 36.064 46.6301 35.8492 46.5253C35.5385 46.3656 35.2908 46.1058 35.1459 45.788C35.1459 45.788 35.099 45.754 35.0287 45.7083C34.8829 45.6081 34.72 45.5354 34.5481 45.4938C34.3137 45.4645 33.873 44.9827 33.873 44.9827C33.7016 44.8711 33.5587 44.721 33.4557 44.5443C33.3385 44.3099 31.6822 43.1682 31.5286 43.0627L35.5538 45.6485L36.5173 46.2674L37.8993 45.1867L40.0725 43.0451L39.3551 43.0123C38.3002 42.9666 36.4247 42.8951 36.1903 42.949C35.9983 42.9932 35.8004 43.0063 35.6042 42.9877C35.6042 42.9877 35.0697 43.0111 34.7157 42.8248C34.3617 42.6384 33.805 42.5505 33.7405 42.4122C33.676 42.2739 31.7818 41.6104 31.7818 41.6104C31.7818 41.6104 29.2031 40.2402 28.2806 41.0536C27.3581 41.8671 27.3429 42.6173 27.4824 42.9619Z" fill="#65617D"/>
<path d="M35.8011 35.1026L36.1329 36.2056L36.5619 38.6894L38.1361 38.7961L38.5862 38.0459L39.041 37.291C39.041 37.291 39.3246 36.2876 39.5286 35.3171C39.7079 34.4579 39.8263 33.6233 39.6306 33.5331C39.4559 33.4534 39.3422 33.1639 39.2672 32.8521C39.2578 32.8146 39.2496 32.7747 39.2426 32.7348C39.1901 32.4713 39.1549 32.2047 39.1371 31.9366C39.1371 31.9366 35.8398 31.7655 36.3005 33.1252C36.3827 33.3574 36.4247 33.602 36.4247 33.8484C36.4247 33.9117 36.4247 33.9738 36.413 34.0324C36.3901 34.2433 36.324 34.4472 36.2187 34.6313C36.1134 34.8155 35.9713 34.9759 35.8011 35.1026Z" fill="#EE8E9E"/>
<path d="M35.1166 34.9209L35.2339 36.7964L35.5011 38.3917L35.8012 39.1313L36.0696 43.1729C36.0696 43.1729 38.6483 43.4718 39.279 43.167C39.3255 43.1492 39.3661 43.1188 39.3962 43.0791C40.1546 41.9339 39.9061 38.6167 39.9061 38.6167L40.1944 36.4752L40.0022 35.364L39.5333 35.3148L39.1746 35.2761C39.1746 35.2761 39.0938 35.3757 38.9765 35.5304C38.6589 35.9489 38.0752 36.7741 38.115 37.1175C38.1678 37.5864 38.0505 38.0705 37.8677 38.1455C37.6848 38.2205 37.536 38.3495 37.5043 38.2205C37.4588 38.1125 37.4473 37.993 37.4715 37.8783C37.5043 37.6954 37.332 37.1386 37.332 37.1386C37.332 37.1386 37.0437 36.4857 37.0648 36.2079C37.0859 35.9301 37.0331 35.6078 36.9475 35.5328C36.862 35.4578 36.7436 35.3827 36.8397 35.0405C36.9358 34.6982 36.4177 34.0312 36.4177 34.0312L35.1166 34.9209Z" fill="#E3E8F4"/>
<path opacity="0.1" d="M38.5264 39.6001L38.6343 42.8013L39.252 43.1447C39.2984 43.1261 39.3389 43.0953 39.3692 43.0556C40.1276 41.9104 39.8791 38.5932 39.8791 38.5932L40.1686 36.4517L39.9752 35.3405L39.5064 35.2913C39.6869 34.4321 39.8041 33.5987 39.6083 33.5072C39.4337 33.4275 39.32 33.138 39.2461 32.8274L38.9121 35.092C38.9121 35.092 38.9402 35.2959 38.9496 35.5069C38.9635 35.6403 38.9544 35.7751 38.9226 35.9055C38.8793 36.0807 38.8721 36.263 38.9015 36.4411C38.7081 36.7811 38.612 37.4117 38.5651 38.02C38.5018 38.8288 38.5264 39.6001 38.5264 39.6001Z" fill="black"/>
<path d="M39.2555 32.771C39.2555 32.771 39.7959 32.8378 39.967 33.0629C40.1382 33.2879 40.5883 33.3207 40.5883 33.3207C40.5883 33.3207 41.1017 33.4919 41.0911 33.5341C41.0806 33.5763 41.2412 33.6419 41.56 33.7275C41.8788 33.813 42.4168 34.1237 42.4168 34.1963C42.4168 34.269 43.262 35.1059 43.262 35.1915C43.262 35.2771 43.5187 35.5982 43.487 36.1656C43.4554 36.7329 43.4225 37.4549 43.5515 37.5721C43.6804 37.6894 43.5515 38.15 43.5515 38.15C43.5168 38.2002 43.4974 38.2593 43.4955 38.3202C43.4937 38.3811 43.5094 38.4413 43.5409 38.4935C43.6476 38.6857 43.5187 39.4886 43.5187 39.4886L43.5304 40.3244C43.5304 40.3244 43.4132 40.8483 43.5515 40.8706C43.6898 40.8929 43.5304 41.1273 43.5304 41.1273C43.5304 41.1273 43.4132 41.5551 43.562 41.7485C43.7109 41.9419 43.7543 42.7648 43.7543 42.7648L46.0458 46.0949C46.0458 46.0949 46.0786 46.7056 45.3507 46.695C44.6228 46.6845 44.6322 46.8345 44.6545 46.9728C44.6767 47.1111 44.4505 47.2624 44.4505 47.2624C44.4505 47.2624 44.1622 47.4124 44.3333 47.5941C44.5044 47.7758 44.9967 48.1942 44.1833 48.472C44.0874 48.3398 44.0087 48.1961 43.9488 48.0442C43.8799 47.8553 43.8227 47.6623 43.7777 47.4663C43.7777 47.4663 43.7027 46.6517 43.5527 46.545C43.4026 46.4383 43.4237 45.9237 43.4237 45.9237C43.4237 45.9237 43.6382 45.5065 43.3381 45.3377C43.0381 45.1689 38.6917 42.7589 38.6917 42.7589L38.5862 39.5566C38.5862 39.5566 38.5112 37.19 38.9613 36.3976C38.9319 36.2195 38.9391 36.0372 38.9824 35.862C39.0574 35.6697 38.9719 35.0485 38.9719 35.0485L39.2555 32.771Z" fill="#3F3D56"/>
<path opacity="0.1" d="M36.4494 34.0604C36.4494 34.0604 35.3734 33.8389 35.0838 33.9889C34.7943 34.1389 34.2282 34.2561 34.1461 34.3405C34.0641 34.4249 33.8472 34.3628 33.6538 34.8657C33.4604 35.3685 33.4405 35.8831 33.1931 36.1187C32.9458 36.3543 32.8192 36.5149 32.8087 36.686C32.7981 36.8572 32.8403 36.9005 32.7442 36.9533C32.6481 37.006 32.5098 37.2323 32.5508 37.3178C32.5918 37.4034 34.7779 39.2882 34.7779 39.2882C34.7779 39.2882 34.8857 40.0056 34.9819 40.1873C35.078 40.3689 34.8752 42.875 34.6607 43.0461C34.4462 43.2173 36.1013 43.2032 36.1013 43.2032C36.1013 43.2032 36.1763 41.5622 36.2407 41.4731C36.3052 41.384 36.1974 39.6317 36.1974 39.6317C36.1974 39.6317 36.1868 38.1325 36.3263 37.7363C36.4658 37.3401 36.4435 36.0226 36.4435 36.0226C36.4435 36.0226 36.5666 35.2326 36.7166 35.0485C36.8667 34.8645 36.4494 34.0604 36.4494 34.0604Z" fill="black"/>
<path d="M36.4177 34.0289C36.4177 34.0289 35.3417 33.8074 35.0522 33.9562C34.7626 34.1051 34.1953 34.2247 34.1144 34.3079C34.0336 34.3911 33.8144 34.329 33.6221 34.833C33.4299 35.337 33.4076 35.8493 33.1615 36.0849C32.9153 36.3205 32.7864 36.4811 32.7758 36.6522C32.7653 36.8233 32.8087 36.8667 32.7114 36.9206C32.6141 36.9745 32.4769 37.1984 32.5191 37.284C32.5613 37.3696 34.7462 39.2544 34.7462 39.2544C34.7462 39.2544 34.8529 39.9717 34.9502 40.1534C35.0475 40.3351 34.8424 42.8412 34.6278 43.0123C34.4133 43.1834 36.0743 43.1682 36.0743 43.1682C36.0743 43.1682 36.1493 41.5272 36.2126 41.4393C36.2759 41.3514 36.1704 39.5966 36.1704 39.5966C36.1704 39.5966 36.1599 38.0986 36.2993 37.7024C36.4388 37.3063 36.4224 35.9888 36.4224 35.9888C36.4224 35.9888 36.5455 35.1987 36.6955 35.0147C36.8456 34.8307 36.4177 34.0289 36.4177 34.0289Z" fill="#3F3D56"/>
<path opacity="0.1" d="M36.3052 33.1228C36.3874 33.3551 36.4294 33.5997 36.4295 33.8461C36.9554 34.0001 37.5178 33.9742 38.0274 33.7725C38.5369 33.5708 38.9646 33.2048 39.2427 32.7325C39.1902 32.469 39.1549 32.2024 39.1372 31.9343C39.1372 31.9343 35.8446 31.762 36.3052 33.1228Z" fill="black"/>
<path d="M34.6771 31.4302C34.6766 32.0586 34.9174 32.6633 35.3497 33.1194C35.782 33.5756 36.3728 33.8484 37.0004 33.8817C37.6279 33.915 38.2444 33.7062 38.7225 33.2984C39.2006 32.8906 39.504 32.3148 39.5701 31.6898C39.6362 31.0649 39.4599 30.4384 39.0777 29.9396C38.6954 29.4408 38.1363 29.1077 37.5157 29.009C36.895 28.9103 36.2602 29.0535 35.742 29.4091C35.2239 29.7648 34.862 30.3057 34.731 30.9203C34.6951 31.0879 34.677 31.2588 34.6771 31.4302Z" fill="#EE8E9E"/>
<path d="M33.1029 37.1082L32.5168 37.2898C32.5318 37.349 32.5286 37.4112 32.5077 37.4685C32.4868 37.5258 32.4491 37.5754 32.3996 37.611C32.3486 37.6466 32.308 37.6951 32.2818 37.7515C32.2557 37.8079 32.2449 37.8703 32.2507 37.9322C32.2507 37.9322 32.1863 38.1666 32.0362 38.2217C31.8862 38.2768 31.7901 38.6284 31.7901 38.6284L31.2978 39.1958C31.2978 39.1958 31.1149 39.3458 31.1478 39.4208C31.1806 39.4958 30.9543 39.5169 30.9543 39.5169L31.0716 41.4229L32.089 41.6163L32.7208 41.5518L33.2342 41.3596L33.6843 41.0911L33.8871 40.5672L34.7873 39.1958L33.1029 37.1082Z" fill="#3F3D56"/>
<path d="M31.1008 39.6634C31.1008 39.6634 29.7951 37.7798 28.8198 38.796C27.8446 39.8123 29.216 41.4627 29.5372 41.4088C29.8584 41.3549 31.3904 41.2693 31.3904 41.2693L31.1008 39.6634Z" fill="#EE8E9E"/>
<path d="M34.1771 38.849L28.4088 35.9048C28.32 35.8595 28.2113 35.8947 28.166 35.9835L25.9167 40.3904C25.8714 40.4792 25.9066 40.5879 25.9954 40.6332L31.7637 43.5774C31.8525 43.6227 31.9612 43.5874 32.0065 43.4986L34.2558 39.0918C34.3011 39.003 34.2659 38.8943 34.1771 38.849Z" fill="#3F3D56"/>
<path d="M33.6405 39.1107L28.5217 36.498L26.5527 40.3557L31.6716 42.9684L33.6405 39.1107Z" fill="#0073BA"/>
<path d="M27.3405 38.4185C27.3923 38.4185 27.4343 38.3765 27.4343 38.3247C27.4343 38.2729 27.3923 38.231 27.3405 38.231C27.2887 38.231 27.2468 38.2729 27.2468 38.3247C27.2468 38.3765 27.2887 38.4185 27.3405 38.4185Z" fill="#E6E8EC"/>
<path d="M32.8814 41.3196C32.9675 41.3196 33.0373 41.2498 33.0373 41.1637C33.0373 41.0776 32.9675 41.0078 32.8814 41.0078C32.7953 41.0078 32.7255 41.0776 32.7255 41.1637C32.7255 41.2498 32.7953 41.3196 32.8814 41.3196Z" fill="#E6E8EC"/>
<path d="M30.2557 40.0597C30.244 41.4733 33.1673 41.7734 33.1673 41.7734L33.914 41.8906L34.2492 41.9433L34.3887 40.5625C34.3887 40.5625 34.2352 40.5391 34.0441 40.4946C33.7605 40.4289 33.3936 40.3152 33.3174 40.1546C33.1943 39.8885 30.2639 38.6461 30.2557 40.0597Z" fill="#EE8E9E"/>
<path opacity="0.1" d="M34.731 30.9203C34.7982 30.9252 34.8616 30.9534 34.9104 31C34.9924 31.0879 34.9971 31.2438 35.1049 31.2977C35.1453 31.3147 35.1897 31.3196 35.2327 31.3118C35.5175 31.2719 35.6816 30.9507 35.9559 30.8617C36.1154 30.8207 36.284 30.8352 36.4342 30.9027C36.4952 30.9225 36.5501 30.9576 36.5936 31.0047C36.685 31.1219 36.6205 31.2977 36.6627 31.4407C36.7213 31.64 36.9593 31.7185 37.1644 31.7443C37.3695 31.7701 37.6016 31.7853 37.7388 31.94C37.7842 31.9981 37.8167 32.065 37.8343 32.1366C37.8519 32.2081 37.8541 32.2826 37.8407 32.355C37.8284 32.4054 37.8284 32.4581 37.8407 32.5085C37.897 32.6691 38.1748 32.6445 38.2475 32.5179C38.3014 32.4253 38.285 32.3491 38.4104 32.3233C38.5 32.3162 38.5899 32.3319 38.6718 32.3691C38.89 32.4439 39.1199 32.4793 39.3505 32.4734C39.4972 32.1605 39.5761 31.8201 39.5821 31.4746C39.588 31.1291 39.5209 30.7862 39.385 30.4685C39.2492 30.1507 39.0478 29.8653 38.7939 29.6309C38.54 29.3964 38.2394 29.2183 37.9119 29.1081C37.5844 28.998 37.2372 28.9583 36.8933 28.9917C36.5493 29.0251 36.2163 29.1308 35.9161 29.3019C35.6159 29.473 35.3552 29.7056 35.1512 29.9846C34.9471 30.2635 34.8044 30.5823 34.7322 30.9203H34.731Z" fill="black"/>
<path d="M37.8395 32.444C37.8272 32.3936 37.8272 32.3409 37.8395 32.2905C37.8529 32.2182 37.8507 32.144 37.8332 32.0726C37.8156 32.0013 37.783 31.9345 37.7375 31.8767C37.6004 31.7208 37.3695 31.7068 37.1632 31.6798C36.9569 31.6528 36.7201 31.5755 36.6615 31.3762C36.6193 31.2332 36.6838 31.0586 36.5923 30.9413C36.5495 30.8934 36.4944 30.8581 36.4329 30.8394C36.2829 30.7715 36.1143 30.7566 35.9547 30.7972C35.6804 30.8862 35.5163 31.2074 35.2315 31.2473C35.1885 31.2557 35.1439 31.2508 35.1037 31.2332C34.9959 31.1793 34.9865 31.0234 34.9091 30.9355C34.779 30.7983 34.5317 30.8874 34.3735 30.7854C34.2775 30.7053 34.2155 30.5918 34.2 30.4678C34.1291 30.2379 34.113 29.9946 34.1531 29.7575C34.2457 29.3601 34.602 29.087 34.8283 28.7459C35.0404 28.4294 35.16 28.0285 35.4776 27.8187C35.7953 27.6089 36.2044 27.6558 36.5642 27.7624C36.7297 27.8215 36.8998 27.8662 37.0729 27.8961C37.3625 27.9312 37.6531 27.8527 37.9438 27.8433C38.3559 27.83 38.7607 27.9537 39.0949 28.195C39.1703 28.2441 39.2342 28.3089 39.2824 28.3849C39.3308 28.4926 39.3594 28.6081 39.3668 28.726C39.4011 28.9473 39.4779 29.1598 39.5931 29.3519C39.6822 29.5031 39.7959 29.6391 39.8767 29.795C39.9672 29.9478 39.9949 30.1297 39.9541 30.3025C39.926 30.3904 39.872 30.4701 39.8509 30.5604C39.8041 30.769 39.9412 30.9695 40.035 31.1617C40.1262 31.3376 40.1695 31.5345 40.1604 31.7325C40.1554 31.8312 40.13 31.9278 40.0858 32.0161C40.0416 32.1045 39.9796 32.1827 39.9037 32.2459C39.7445 32.3564 39.5547 32.4142 39.361 32.4112C39.1261 32.4184 38.8918 32.383 38.6694 32.3069C38.5874 32.2704 38.4976 32.2547 38.408 32.2612C38.2826 32.287 38.299 32.3632 38.2451 32.4558C38.1736 32.58 37.897 32.6046 37.8395 32.444Z" fill="#3F3D56"/>
<path opacity="0.1" d="M36.5186 46.2697L37.9005 45.189L40.0737 43.0475L39.3564 43.0146C39.2721 43.0908 39.2184 43.1949 39.2051 43.3077C39.1946 43.5691 38.6191 43.3253 38.3178 43.4753C38.0166 43.6253 36.5514 45.5031 36.2947 45.4902C36.038 45.4773 35.834 45.3601 35.7262 45.5418L35.7192 45.5535C35.6764 45.6028 35.6188 45.6369 35.5551 45.6508L36.5186 46.2697Z" fill="black"/>
<path d="M33.7347 46.1947L34.4286 48.4113L34.5376 48.7629L34.8682 48.6726L35.5972 48.4722L38.8418 47.5814C39.2505 47.5636 39.6504 47.4573 40.0139 47.2696C40.6273 46.9259 41.3292 46.7729 42.03 46.83C42.459 46.8699 42.9361 46.6847 43.3323 45.9532C43.3323 45.9532 44.2313 43.2983 41.962 42.5376C39.6927 41.7769 39.5837 42.942 39.5837 42.942L39.5521 42.9607C39.4642 43.017 39.218 43.1952 39.2086 43.4085C39.1981 43.6699 38.6226 43.4272 38.3213 43.5761C38.0201 43.725 36.5549 45.6039 36.2982 45.591C36.0415 45.5782 35.8375 45.4609 35.7297 45.6438L35.7227 45.6555C35.643 45.7645 35.405 45.7903 35.2468 45.7938C35.1976 45.7964 35.1483 45.7964 35.0991 45.7938L35.078 45.7997L34.9139 45.8489L33.7347 46.1947Z" fill="#65617D"/>
<path opacity="0.1" d="M33.914 41.8916L34.2492 41.9444L34.3887 40.5636C34.3887 40.5636 34.2352 40.5401 34.0441 40.4956C34.0945 40.689 33.9796 41.4333 33.914 41.8916Z" fill="black"/>
<path opacity="0.1" d="M42.67 35.4378C42.67 35.4378 43.6651 35.1483 43.419 37.9756C43.2481 39.7012 42.5146 41.3227 41.3314 42.5903C41.3314 42.5903 39.2109 43.521 38.258 43.371C37.305 43.221 36.6099 43.1893 36.6099 43.1893C36.3097 43.0377 35.9811 42.9503 35.6452 42.9326C35.1107 42.9115 33.9866 42.581 33.9644 42.472C33.9421 42.3629 34.2434 40.7911 34.1144 40.6739C34.1144 40.6739 35.6136 40.7348 35.7636 40.8427C35.9137 40.9505 36.1282 40.8743 36.2888 40.8427C36.4493 40.811 36.9417 40.3843 37.9157 40.7594C37.9157 40.7594 38.2474 40.7911 38.3764 40.7055C38.4815 40.6565 38.6012 40.649 38.7116 40.6844C38.7949 40.6567 38.8739 40.6173 38.946 40.5672C38.9777 40.525 39.2356 40.5672 39.2356 40.5672C39.2509 40.5741 39.2676 40.5775 39.2844 40.5774C39.3012 40.5773 39.3178 40.5735 39.333 40.5664C39.3482 40.5593 39.3617 40.549 39.3726 40.5362C39.3835 40.5233 39.3916 40.5084 39.3961 40.4922C39.43 40.4048 39.4811 40.3251 39.5462 40.2577C39.5462 40.2577 39.8345 38.6308 40.3808 38.0201C40.4244 37.982 40.4579 37.9337 40.4783 37.8795C40.4988 37.8253 40.5055 37.7669 40.498 37.7095C40.4534 37.536 41.3853 35.0944 42.67 35.4378Z" fill="black"/>
<path d="M42.6431 35.2197C42.6431 35.2197 43.6394 34.9314 43.3932 37.7575C43.2228 39.4832 42.4892 41.1048 41.3056 42.3722C41.3056 42.3722 39.1852 43.3041 38.2322 43.1541C37.2793 43.004 36.583 42.9689 36.583 42.9689C36.2832 42.8172 35.955 42.7297 35.6195 42.7122C35.0838 42.6899 33.9597 42.3605 33.9386 42.2515C33.9175 42.1425 34.2164 40.5706 34.0887 40.4522C34.0887 40.4522 35.5879 40.5144 35.7379 40.6222C35.8879 40.73 36.1013 40.6527 36.2618 40.6222C36.4224 40.5917 36.9147 40.1639 37.89 40.5378C37.89 40.5378 38.2217 40.5706 38.3495 40.4851C38.4546 40.4365 38.574 40.4286 38.6847 40.4628C38.7678 40.4345 38.8466 40.395 38.9191 40.3456C38.9508 40.3022 39.2075 40.3456 39.2075 40.3456C39.2228 40.3524 39.2395 40.3559 39.2563 40.3558C39.2731 40.3556 39.2897 40.3519 39.3049 40.3448C39.3201 40.3376 39.3337 40.3273 39.3446 40.3145C39.3555 40.3017 39.3635 40.2867 39.3681 40.2706C39.402 40.1832 39.453 40.1035 39.5181 40.0361C39.5181 40.0361 39.8076 38.4092 40.3538 37.7985C40.3974 37.7604 40.431 37.7121 40.4514 37.6579C40.4719 37.6037 40.4786 37.5453 40.4711 37.4879C40.4277 37.3191 41.3584 34.881 42.6431 35.2197Z" fill="#3F3D56"/>
<path opacity="0.1" d="M34.9103 45.8429L36.324 47.5543L36.3333 47.5449C36.3439 47.5121 36.4834 47.1487 36.4505 47.1264C36.4177 47.1042 36.1727 46.5697 35.6804 46.3446C35.43 46.2225 35.2198 46.0314 35.0744 45.7937L34.9103 45.8429Z" fill="black"/>
<path opacity="0.1" d="M34.9291 48.805L35.0838 48.8929C35.0838 48.8929 35.4425 48.6057 35.8 48.3162C36.1575 48.0267 36.5033 47.743 36.5033 47.7301C36.5033 47.7172 36.6534 47.3339 36.6205 47.3128C36.5877 47.2917 36.5303 47.1534 36.3943 46.9811C35.4355 46.7127 36.0427 47.3785 36.1271 47.4089C36.1271 47.4089 34.9608 47.1405 34.8963 48.4123C34.8907 48.5441 34.9018 48.676 34.9291 48.805Z" fill="black"/>
<path d="M36.1118 49.3432L36.3157 49.4604L38.3823 49.5131C38.614 49.654 38.8589 49.7718 39.1137 49.8648C39.1474 49.8748 39.1819 49.8823 39.2168 49.887C39.4086 49.9027 39.6013 49.9062 39.7935 49.8976C39.9518 49.8976 40.0737 49.887 40.0737 49.887C40.0737 49.887 39.9764 47.2813 39.9025 47.0071C39.8674 46.8758 39.6939 46.9039 39.5228 46.9695C39.3945 47.022 39.2706 47.0848 39.1524 47.1571C39.1524 47.1571 38.2756 47.2427 38.1361 47.3177C37.9966 47.3927 37.6004 47.2743 37.3543 47.3177C37.1081 47.361 36.6686 47.0281 36.6686 47.0281C35.4694 46.632 36.1446 47.3704 36.2302 47.4032C36.2302 47.4032 35.058 47.1348 34.9982 48.4066C34.9385 49.6784 36.1118 49.3432 36.1118 49.3432Z" fill="#3F3D56"/>
<path d="M39.0996 48.3374C39.1219 48.8766 39.5427 49.5459 39.7935 49.8999C39.9518 49.8999 40.0737 49.8894 40.0737 49.8894C40.0737 49.8894 39.9764 47.2837 39.9026 47.0094C39.8674 46.8781 39.6939 46.9062 39.5228 46.9719C39.3153 47.361 39.0809 47.9014 39.0996 48.3374Z" fill="#565387"/>
<path opacity="0.1" d="M39.0996 48.3374C39.1219 48.8766 39.5427 49.5459 39.7935 49.8999C39.9518 49.8999 40.0737 49.8894 40.0737 49.8894C40.0737 49.8894 39.9764 47.2837 39.9026 47.0094C39.8674 46.8781 39.6939 46.9062 39.5228 46.9719C39.3153 47.361 39.0809 47.9014 39.0996 48.3374Z" fill="black"/>
<path opacity="0.05" d="M38.7456 48.4089C38.8886 48.9294 38.8862 49.5131 39.1136 49.8671C39.1474 49.8772 39.1819 49.8846 39.2168 49.8894C39.4086 49.905 39.6012 49.9086 39.7935 49.8999C39.9517 49.8999 40.0736 49.8894 40.0736 49.8894C40.0736 49.8894 39.9763 47.2837 39.9025 47.0094C39.8673 46.8781 39.6939 46.9062 39.5227 46.9719C39.3944 47.0244 39.2706 47.0871 39.1523 47.1594C39.1523 47.1594 38.5639 47.742 38.7456 48.4089Z" fill="black"/>
<path opacity="0.1" d="M31.6166 43.126C31.6166 43.126 32.6434 43.4589 33.5131 44.6427L31.6166 43.126Z" fill="black"/>
<g opacity="0.1">
<path d="M39.958 30.2766C39.958 30.2848 39.958 30.2919 39.9522 30.3001C39.9423 30.3306 39.9301 30.3604 39.9158 30.3891C39.9271 30.3506 39.9412 30.313 39.958 30.2766Z" fill="black"/>
<path d="M34.1512 29.7574C34.1686 29.6825 34.1954 29.61 34.2309 29.5417C34.2309 29.5593 34.2192 29.5781 34.2145 29.5968C34.1754 29.8341 34.1919 30.0773 34.2625 30.3072C34.2781 30.4309 34.3396 30.5443 34.4348 30.6248C34.5943 30.7268 34.8416 30.6377 34.9717 30.7749C35.0537 30.8628 35.0584 31.0187 35.1663 31.0726C35.2064 31.0901 35.251 31.0951 35.294 31.0866C35.5789 31.0468 35.743 30.7256 36.0173 30.6365C36.1768 30.5955 36.3456 30.6103 36.4955 30.6787C36.557 30.6975 36.6121 30.7328 36.6549 30.7807C36.7463 30.8979 36.6819 31.0726 36.7241 31.2156C36.7827 31.4149 37.0206 31.4934 37.2257 31.5192C37.4309 31.545 37.663 31.5602 37.8001 31.7161C37.8455 31.7739 37.8781 31.8406 37.8957 31.912C37.9133 31.9833 37.9155 32.0576 37.9021 32.1299C37.8898 32.1803 37.8898 32.233 37.9021 32.2834C37.9583 32.444 38.2361 32.4194 38.3088 32.2928C38.3627 32.2002 38.3463 32.124 38.4717 32.0982C38.5613 32.0917 38.6511 32.1074 38.7331 32.1439C38.9555 32.2201 39.1898 32.2554 39.4247 32.2483C39.6184 32.2512 39.8082 32.1934 39.9674 32.083C40.037 32.0283 40.0938 31.9591 40.1339 31.8802C40.0977 32.0237 40.0153 32.1514 39.8994 32.2436C39.7402 32.354 39.5505 32.4118 39.3567 32.4088C39.1218 32.416 38.8875 32.3806 38.6652 32.3045C38.5831 32.268 38.4933 32.2523 38.4038 32.2588C38.2783 32.2846 38.2948 32.3608 38.242 32.4534C38.1682 32.58 37.8904 32.6046 37.8341 32.444C37.8224 32.3935 37.8224 32.341 37.8341 32.2904C37.8475 32.2182 37.8453 32.1439 37.8277 32.0726C37.8101 32.0012 37.7775 31.9344 37.7321 31.8767C37.595 31.7208 37.3641 31.7067 37.1578 31.6798C36.9515 31.6528 36.7147 31.5754 36.6561 31.3762C36.6139 31.2332 36.6784 31.0585 36.5869 30.9413C36.5444 30.8936 36.4897 30.8583 36.4287 30.8393C36.2782 30.7715 36.1093 30.7566 35.9493 30.7971C35.6762 30.8862 35.5109 31.2074 35.226 31.2472C35.183 31.2556 35.1385 31.2507 35.0983 31.2332C34.9904 31.1792 34.9811 31.0234 34.9037 30.9354C34.7736 30.7983 34.5274 30.8874 34.368 30.7854C34.2721 30.7053 34.2101 30.5918 34.1946 30.4677C34.1248 30.2376 34.11 29.9943 34.1512 29.7574Z" fill="black"/>
</g>
<path opacity="0.1" d="M40.1241 38.3282C39.9272 38.5931 39.7033 38.8381 39.5298 39.1171C39.3414 39.3921 39.2498 39.722 39.2696 40.0548C39.449 39.8708 39.5322 39.6153 39.6447 39.3843C39.8369 38.9928 40.1229 38.6611 40.3656 38.3024C40.4113 38.2333 40.7067 37.8336 40.5578 37.8172C40.4336 37.7996 40.1909 38.238 40.1241 38.3282Z" fill="black"/>
<path d="M41.179 63.4088C41.3209 63.8636 41.4639 64.3196 41.6409 64.7615C41.9597 65.5297 42.361 66.2611 42.8376 66.9429C43.1449 67.3917 43.4751 67.8244 43.8269 68.2393C44.2677 68.7585 44.7646 69.2813 44.9147 69.9448C45.0049 70.328 44.9745 70.7278 45.012 71.1169C45.0495 71.5061 45.1772 71.9234 45.4949 72.1578C45.7211 72.3254 46.0106 72.3758 46.2884 72.4192C46.4877 72.4508 46.7362 72.4614 46.8394 72.2891C46.8754 72.2187 46.8943 72.1408 46.8945 72.0617L46.9425 71.4885C46.9519 71.3642 46.9964 71.206 47.1207 71.2001C47.2449 71.1943 47.3071 71.3595 47.4125 71.4346C47.5532 71.533 47.7642 71.4346 47.8416 71.2857C47.9058 71.1245 47.91 70.9457 47.8533 70.7817C47.7679 70.4554 47.6144 70.1509 47.4029 69.8883C47.1914 69.6256 46.9266 69.4108 46.626 69.2579C46.4173 69.1737 46.2171 69.0697 46.0282 68.9472C45.8364 68.7804 45.6774 68.5793 45.5594 68.3541C44.4716 66.5631 43.378 64.7627 42.6102 62.8134C42.459 62.465 42.3568 62.0974 42.3066 61.7209C42.2691 61.3376 42.3289 60.952 42.3535 60.5675C42.399 59.8769 42.3349 59.1834 42.1636 58.5127C42.1262 58.3367 42.0601 58.168 41.9679 58.0134C41.6514 57.534 40.9129 57.4625 40.4441 57.793C40.2714 57.9258 40.1283 58.0931 40.0238 58.2842C39.9193 58.4753 39.8556 58.686 39.8369 58.9031C39.8029 59.2922 40.0268 59.6954 40.1405 60.0576C40.4851 61.1759 40.8313 62.2929 41.179 63.4088Z" fill="#A1616A"/>
<path opacity="0.05" d="M41.179 63.4088C41.3209 63.8636 41.4639 64.3196 41.6409 64.7615C41.9597 65.5297 42.361 66.2611 42.8376 66.9429C43.1449 67.3917 43.4751 67.8244 43.8269 68.2393C44.2677 68.7585 44.7646 69.2813 44.9147 69.9448C45.0049 70.328 44.9745 70.7278 45.012 71.1169C45.0495 71.5061 45.1772 71.9234 45.4949 72.1578C45.7211 72.3254 46.0106 72.3758 46.2884 72.4192C46.4877 72.4508 46.7362 72.4614 46.8394 72.2891C46.8754 72.2187 46.8943 72.1408 46.8945 72.0617L46.9425 71.4885C46.9519 71.3642 46.9964 71.206 47.1207 71.2001C47.2449 71.1943 47.3071 71.3595 47.4125 71.4346C47.5532 71.533 47.7642 71.4346 47.8416 71.2857C47.9058 71.1245 47.91 70.9457 47.8533 70.7817C47.7679 70.4554 47.6144 70.1509 47.4029 69.8883C47.1914 69.6256 46.9266 69.4108 46.626 69.2579C46.4173 69.1737 46.2171 69.0697 46.0282 68.9472C45.8364 68.7804 45.6774 68.5793 45.5594 68.3541C44.4716 66.5631 43.378 64.7627 42.6102 62.8134C42.459 62.465 42.3568 62.0974 42.3066 61.7209C42.2691 61.3376 42.3289 60.952 42.3535 60.5675C42.399 59.8769 42.3349 59.1834 42.1636 58.5127C42.1262 58.3367 42.0601 58.168 41.9679 58.0134C41.6514 57.534 40.9129 57.4625 40.4441 57.793C40.2714 57.9258 40.1283 58.0931 40.0238 58.2842C39.9193 58.4753 39.8556 58.686 39.8369 58.9031C39.8029 59.2922 40.0268 59.6954 40.1405 60.0576C40.4851 61.1759 40.8313 62.2929 41.179 63.4088Z" fill="black"/>
<path d="M34.3454 82.5597C34.5575 82.6335 34.7829 82.6606 35.0065 82.6394C35.0229 82.4565 35.269 82.4155 35.4519 82.4249C35.5403 82.422 35.628 82.4422 35.7062 82.4835C35.752 82.5128 35.7871 82.555 35.8317 82.5855C35.9111 82.629 36.0001 82.652 36.0907 82.6523L37.0425 82.732C37.4668 82.7683 37.9087 82.8012 38.3061 82.65C38.3853 82.6249 38.4556 82.5777 38.5089 82.514C38.6167 82.3593 38.5089 82.1377 38.36 82.0252C38.2111 81.9127 38.0189 81.8623 37.8689 81.7474C37.5383 81.4954 37.4926 81.0242 37.318 80.6467C37.1938 80.4088 37.0407 80.1871 36.862 79.9868C36.7325 79.8148 36.5817 79.66 36.4131 79.5262C36.0309 79.2507 35.5926 79.2566 35.1436 79.2167C34.8271 79.1886 34.5294 79.1698 34.302 79.4511C34.0207 79.8028 34.1332 80.5061 34.1508 80.9163C34.1728 81.4683 34.2378 82.0178 34.3454 82.5597Z" fill="#514E7F"/>
<path opacity="0.05" d="M34.3454 82.5597C34.5575 82.6335 34.7829 82.6606 35.0065 82.6394C35.0229 82.4565 35.269 82.4155 35.4519 82.4249C35.5403 82.422 35.628 82.4422 35.7062 82.4835C35.752 82.5128 35.7871 82.555 35.8317 82.5855C35.9111 82.629 36.0001 82.652 36.0907 82.6523L37.0425 82.732C37.4668 82.7683 37.9087 82.8012 38.3061 82.65C38.3853 82.6249 38.4556 82.5777 38.5089 82.514C38.6167 82.3593 38.5089 82.1377 38.36 82.0252C38.2111 81.9127 38.0189 81.8623 37.8689 81.7474C37.5383 81.4954 37.4926 81.0242 37.318 80.6467C37.1938 80.4088 37.0407 80.1871 36.862 79.9868C36.7325 79.8148 36.5817 79.66 36.4131 79.5262C36.0309 79.2507 35.5926 79.2566 35.1436 79.2167C34.8271 79.1886 34.5294 79.1698 34.302 79.4511C34.0207 79.8028 34.1332 80.5061 34.1508 80.9163C34.1728 81.4683 34.2378 82.0178 34.3454 82.5597Z" fill="black"/>
<path d="M34.7298 64.0454C34.4391 64.1392 34.3125 64.5014 34.3665 64.8026C34.4204 65.1039 34.6009 65.3641 34.7498 65.6313C35.1741 66.3897 35.3569 67.2571 35.7133 68.0483C35.9793 68.6344 36.3392 69.1853 36.6018 69.7784C36.8643 70.3715 37.0273 71.0408 36.8678 71.6703C36.7905 71.9762 36.6404 72.2563 36.5408 72.5576C36.4422 72.8841 36.3778 73.22 36.3486 73.5598C36.2195 74.7141 36.1963 75.8778 36.2794 77.0364C36.2801 77.1776 36.3097 77.3172 36.3662 77.4467C36.4259 77.5639 36.5291 77.6811 36.4834 77.7983C36.4634 77.8464 36.4201 77.8815 36.399 77.9284C36.338 78.0597 36.4599 78.1992 36.5713 78.2929C36.5514 78.3282 36.5247 78.3591 36.4927 78.3839C36.4607 78.4086 36.424 78.4267 36.3849 78.4371C36.4648 78.488 36.5262 78.5632 36.5599 78.6517C36.5937 78.7401 36.5981 78.8371 36.5725 78.9283C36.474 78.9435 36.4681 79.0947 36.5303 79.1744C36.5924 79.2541 36.6908 79.3033 36.7354 79.3936C36.7616 79.4671 36.7587 79.5479 36.7274 79.6194C36.696 79.6908 36.6385 79.7476 36.5666 79.7781C36.4202 79.8344 36.2604 79.8467 36.1071 79.8132C35.8472 79.777 35.5905 79.7206 35.3393 79.6444C35.2081 79.6187 35.0905 79.5464 35.0082 79.4409C34.926 79.3353 34.8846 79.2037 34.8916 79.0701C34.8335 78.593 34.8159 78.1119 34.8388 77.6318C34.8799 75.3063 34.8388 72.9784 34.738 70.654C34.697 69.7163 34.4157 68.8079 34.0535 67.9452C33.8533 67.5043 33.6307 67.0739 33.3865 66.6558C32.8638 65.6993 32.4019 64.6397 32.5215 63.5554C32.5344 63.4382 32.5766 63.2987 32.6926 63.28C32.738 63.2751 32.7838 63.2828 32.8251 63.3023C33.0659 63.4147 33.2989 63.5432 33.5225 63.6867C33.89 63.9022 34.3043 64.0253 34.7298 64.0454Z" fill="#464353"/>
<path opacity="0.05" d="M34.7298 64.0454C34.4391 64.1392 34.3125 64.5014 34.3665 64.8026C34.4204 65.1039 34.6009 65.3641 34.7498 65.6313C35.1741 66.3897 35.3569 67.2571 35.7133 68.0483C35.9793 68.6344 36.3392 69.1853 36.6018 69.7784C36.8643 70.3715 37.0273 71.0408 36.8678 71.6703C36.7905 71.9762 36.6404 72.2563 36.5408 72.5576C36.4422 72.8841 36.3778 73.22 36.3486 73.5598C36.2195 74.7141 36.1963 75.8778 36.2794 77.0364C36.2801 77.1776 36.3097 77.3172 36.3662 77.4467C36.4259 77.5639 36.5291 77.6811 36.4834 77.7983C36.4634 77.8464 36.4201 77.8815 36.399 77.9284C36.338 78.0597 36.4599 78.1992 36.5713 78.2929C36.5514 78.3282 36.5247 78.3591 36.4927 78.3839C36.4607 78.4086 36.424 78.4267 36.3849 78.4371C36.4648 78.488 36.5262 78.5632 36.5599 78.6517C36.5937 78.7401 36.5981 78.8371 36.5725 78.9283C36.474 78.9435 36.4681 79.0947 36.5303 79.1744C36.5924 79.2541 36.6908 79.3033 36.7354 79.3936C36.7616 79.4671 36.7587 79.5479 36.7274 79.6194C36.696 79.6908 36.6385 79.7476 36.5666 79.7781C36.4202 79.8344 36.2604 79.8467 36.1071 79.8132C35.8472 79.777 35.5905 79.7206 35.3393 79.6444C35.2081 79.6187 35.0905 79.5464 35.0082 79.4409C34.926 79.3353 34.8846 79.2037 34.8916 79.0701C34.8335 78.593 34.8159 78.1119 34.8388 77.6318C34.8799 75.3063 34.8388 72.9784 34.738 70.654C34.697 69.7163 34.4157 68.8079 34.0535 67.9452C33.8533 67.5043 33.6307 67.0739 33.3865 66.6558C32.8638 65.6993 32.4019 64.6397 32.5215 63.5554C32.5344 63.4382 32.5766 63.2987 32.6926 63.28C32.738 63.2751 32.7838 63.2828 32.8251 63.3023C33.0659 63.4147 33.2989 63.5432 33.5225 63.6867C33.89 63.9022 34.3043 64.0253 34.7298 64.0454Z" fill="black"/>
<path d="M30.7996 61.2182C30.648 61.1209 30.4732 61.0659 30.2932 61.0588C30.0846 61.0694 29.9064 61.2065 29.7435 61.3378C29.5504 61.486 29.3672 61.6465 29.1949 61.8184C28.8382 62.1987 28.5896 62.6674 28.475 63.1761C28.3604 63.6847 28.384 64.2148 28.5432 64.7113C28.7155 65.2282 29.0308 65.6842 29.3426 66.1307L29.9756 67.0403C30.9414 68.427 31.9073 69.8137 32.9189 71.1675C32.9191 71.2008 32.9299 71.2331 32.9497 71.2599C32.9695 71.2867 32.9973 71.3064 33.029 71.3164C33.0654 71.3257 33.1111 71.3246 33.1334 71.355C33.1437 71.374 33.1481 71.3956 33.1463 71.4172C33.144 71.5173 33.125 71.6164 33.09 71.7102C33.0736 71.7411 33.0694 71.7771 33.0783 71.811C33.1111 71.8872 33.2494 71.8438 33.294 71.9153C33.3233 71.9622 33.2869 72.0232 33.2482 72.063C33.2096 72.1029 33.1615 72.1474 33.1685 72.2025C33.1756 72.2576 33.2717 72.3197 33.2682 72.3877C33.2682 72.4276 33.233 72.458 33.2084 72.4897C33.1739 72.5401 33.1582 72.6011 33.164 72.6619C33.1698 72.7227 33.1967 72.7795 33.24 72.8226C33.3068 73.4837 32.947 74.112 32.8755 74.7707C32.7583 75.8116 33.233 76.8278 33.2904 77.8722C33.287 77.9898 33.3094 78.1066 33.3561 78.2145C33.4534 78.395 33.7077 78.504 33.6948 78.7091C33.6764 78.7934 33.6526 78.8765 33.6233 78.9576C33.6034 79.0749 33.6597 79.1921 33.662 79.3093C33.6644 79.4265 33.56 79.5707 33.4498 79.5238C33.5327 79.8004 33.6065 80.0794 33.6714 80.3607L35.8868 80.5436C35.9107 80.3445 35.9039 80.1429 35.8668 79.9458C35.8211 79.7313 35.725 79.532 35.6746 79.3198C35.6418 79.2154 35.6326 79.105 35.6476 78.9966C35.6626 78.8881 35.7014 78.7844 35.7613 78.6927C35.7036 78.6934 35.6475 78.6737 35.6029 78.637C35.5582 78.6003 35.528 78.5491 35.5175 78.4923C35.499 78.378 35.501 78.2613 35.5234 78.1477C35.582 77.5698 35.3394 77.0001 35.3464 76.4199C35.3534 75.9628 35.514 75.5232 35.5949 75.0743C35.7684 74.1131 35.5879 73.0711 36.0157 72.1931C36.2747 71.6645 36.6334 71.0784 36.3427 70.5662C36.1997 70.313 35.9465 70.1395 35.7813 69.9004C35.6465 69.6744 35.5455 69.43 35.4812 69.1748C35.1401 68.1199 34.588 67.14 34.1039 66.1366C33.9696 65.8851 33.8698 65.6166 33.8074 65.3384C33.7732 65.0942 33.7606 64.8475 33.7698 64.6011C33.7698 64.1587 33.7428 63.7168 33.689 63.2777C33.678 63.0854 33.6231 62.8981 33.5284 62.7303C33.4327 62.6034 33.3133 62.4963 33.1767 62.415C32.45 61.9169 31.585 61.632 30.7996 61.2182Z" fill="#464353"/>
<path d="M33.4545 83.3719C33.6672 83.4447 33.8929 83.4715 34.1168 83.4505C34.1332 83.2676 34.3782 83.2266 34.561 83.236C34.6494 83.2331 34.7371 83.2533 34.8154 83.2946C34.8611 83.3239 34.8962 83.3673 34.942 83.3966C35.0212 83.4406 35.1104 83.4636 35.201 83.4634L36.1516 83.5431C36.5771 83.5794 37.0178 83.6134 37.4164 83.461C37.4954 83.4363 37.5655 83.3891 37.618 83.3251C37.7258 83.1703 37.618 82.95 37.4691 82.8374C37.3203 82.7249 37.128 82.6733 36.9792 82.5585C36.6474 82.3065 36.6029 81.8364 36.4271 81.459C36.3041 81.2203 36.1512 80.9981 35.9723 80.7979C35.8424 80.6262 35.6911 80.4718 35.5222 80.3384C35.1412 80.0618 34.7017 80.0676 34.2539 80.0278C33.9363 79.9997 33.6385 79.9821 33.4123 80.2622C33.131 80.6139 33.2435 81.3172 33.2599 81.7286C33.2819 82.2806 33.347 82.8301 33.4545 83.3719Z" fill="#514E7F"/>
<path d="M43.2737 57.3817C44.4855 57.3817 45.468 56.3993 45.468 55.1874C45.468 53.9756 44.4855 52.9932 43.2737 52.9932C42.0618 52.9932 41.0794 53.9756 41.0794 55.1874C41.0794 56.3993 42.0618 57.3817 43.2737 57.3817Z" fill="#A1616A"/>
<path d="M41.2036 55.8391C40.8895 56.1099 40.4382 56.1298 40.0256 56.172C39.1433 56.2627 38.2845 56.5112 37.4902 56.9058C37.3803 56.9532 37.2807 57.0217 37.1972 57.1074C37.1259 57.2004 37.0751 57.3075 37.0483 57.4215C36.9728 57.6684 36.9446 57.9273 36.9651 58.1846C36.9938 58.4342 37.0656 58.6769 37.1773 58.902C37.4818 59.5324 37.9517 60.0684 38.537 60.4527C38.6401 60.5295 38.7571 60.5857 38.8816 60.618C39.1699 60.6778 39.4489 60.5113 39.7337 60.4363C39.9928 60.3687 40.2659 60.3773 40.5202 60.4609C40.7547 60.5406 41.0114 60.686 41.2435 60.5887C41.392 60.5056 41.5075 60.374 41.5705 60.216C41.7947 59.7924 41.9946 59.3564 42.1695 58.9102C42.2323 58.736 42.3047 58.5653 42.3863 58.3991C42.6407 57.915 43.0802 57.5411 43.2994 57.0383C43.3217 56.9999 43.3351 56.9571 43.3388 56.9129C43.3424 56.8687 43.3362 56.8242 43.3205 56.7827C43.2799 56.7267 43.2236 56.6838 43.1588 56.6596C42.8346 56.4741 42.5393 56.2423 42.282 55.9716C42.1378 55.8333 41.8729 55.4594 41.6654 55.4265C41.4322 55.3867 41.3618 55.7032 41.2036 55.8391Z" fill="#A1616A"/>
<path d="M41.2552 60.2981C41.0009 60.4153 40.7008 60.3649 40.4254 60.3074C39.715 60.1586 38.9965 60.0085 38.3389 59.7014C38.1335 59.6228 37.9555 59.4859 37.8267 59.3076C37.7467 59.1551 37.6981 58.9881 37.6837 58.8164L37.5665 57.9959C37.5243 57.7111 37.5969 57.4474 37.604 57.159C37.6084 57.1271 37.6065 57.0945 37.5982 57.0633C37.59 57.0321 37.5756 57.0029 37.5559 56.9773C37.5158 56.9436 37.464 56.9272 37.4117 56.9316C37.0824 56.9375 36.8831 57.2833 36.6522 57.5177C36.5187 57.653 36.3592 57.7599 36.1833 57.8318C35.9723 57.9186 35.7145 57.9795 35.6265 58.1905C35.5914 58.2784 35.5961 58.3781 35.5586 58.466C35.4109 58.8176 34.7814 58.7004 34.6208 59.052C34.5751 59.1505 34.5786 59.2736 34.5036 59.3509C34.4286 59.4283 34.2879 59.4271 34.1719 59.4459C33.7136 59.5209 33.4921 60.0495 33.1006 60.2992C32.7712 60.5102 32.3469 60.5055 31.9917 60.6696C31.7948 60.7611 31.6201 60.9041 31.4115 60.9638C31.2028 61.0236 30.9672 60.992 30.7433 60.9978C30.7195 60.9956 30.6954 60.9983 30.6726 61.0057C30.6498 61.0132 30.6288 61.0253 30.6109 61.0412C30.597 61.0624 30.5878 61.0864 30.584 61.1114C30.5801 61.1365 30.5817 61.1621 30.5886 61.1865C30.6972 61.8796 30.9844 62.5325 31.422 63.0809C31.8596 63.6292 32.4324 64.0542 33.0841 64.3138C33.1598 64.3379 33.2316 64.3726 33.2975 64.417C33.4967 64.5659 33.5319 64.8859 33.7581 64.9914C33.8398 65.0201 33.9278 65.0257 34.0124 65.0075C34.097 64.9892 34.1749 64.948 34.2375 64.8882C34.3624 64.768 34.4798 64.6404 34.5892 64.5061C34.7958 64.2903 35.0669 64.1476 35.3616 64.0993C35.6336 64.056 35.9372 64.0876 36.1575 63.92C36.2477 63.8373 36.3315 63.7479 36.4084 63.6528C36.5716 63.5004 36.7654 63.3846 36.9769 63.3128C37.5546 63.0846 38.1653 62.9504 38.7855 62.9155C39.3634 62.8838 39.9577 62.9366 40.5039 62.749C40.6457 62.705 40.7764 62.6311 40.8872 62.5322C41.0046 62.4052 41.092 62.2533 41.1427 62.0879C41.3398 61.5121 41.3786 60.894 41.2552 60.2981Z" fill="#0073BA"/>
<path d="M38.4268 57.0639C38.5885 57.0487 38.7515 57.0639 38.9144 57.0639C39.1055 57.0639 39.2942 57.017 39.4852 57.0159C39.7878 57.0208 40.0809 57.1223 40.3217 57.3055C40.5625 57.4888 40.7384 57.7442 40.8238 58.0345C40.8399 58.0808 40.8428 58.1308 40.832 58.1786C40.8257 58.2023 40.8111 58.2229 40.7909 58.2366C40.7707 58.2504 40.7462 58.2565 40.7219 58.2537C40.6584 58.0803 40.5755 57.9147 40.4745 57.7602C40.2929 57.5122 40.0339 57.3316 39.7384 57.2468C39.4438 57.1633 39.1334 57.1521 38.8335 57.214C38.7081 57.2374 38.5862 57.2702 38.4643 57.3042L37.8782 57.466C37.7704 57.4953 37.6614 57.5246 37.557 57.5633C37.4762 57.5937 37.3379 57.7051 37.2581 57.7098C37.1503 57.7098 37.237 57.616 37.2851 57.5527C37.3808 57.4222 37.5148 57.3247 37.6684 57.2737C37.912 57.174 38.1666 57.1035 38.4268 57.0639Z" fill="#0073BA"/>
<path d="M39.906 63.655C40.0479 64.1098 40.1897 64.5657 40.3679 65.0076C40.6863 65.7761 41.0876 66.5076 41.5646 67.189C41.8719 67.6379 42.2021 68.0706 42.5539 68.4854C42.9935 69.0047 43.4846 69.5275 43.6417 70.1897C43.732 70.5742 43.7015 70.9739 43.739 71.3619C43.7765 71.7499 43.9043 72.1683 44.2207 72.4028C44.4481 72.5692 44.7377 72.6196 45.0155 72.6641C45.2136 72.6958 45.4621 72.7063 45.5664 72.534C45.6018 72.4634 45.6206 72.3856 45.6215 72.3066L45.6684 71.7335C45.6789 71.6092 45.7234 71.451 45.8465 71.4451C45.9696 71.4392 46.0341 71.6045 46.1396 71.6795C46.2802 71.778 46.4912 71.6795 46.5686 71.5307C46.6323 71.3694 46.6364 71.1907 46.5803 71.0266C46.4945 70.7006 46.3409 70.3963 46.1294 70.1337C45.9179 69.8711 45.6534 69.6561 45.353 69.5028C45.144 69.4184 44.9435 69.3144 44.7541 69.1922C44.5619 69.0253 44.4028 68.8237 44.2852 68.5979C43.1963 66.8081 42.1027 65.0076 41.3361 63.0572C41.1849 62.7091 41.0823 62.3419 41.0313 61.9659C40.995 61.5826 41.0536 61.1969 41.0794 60.8125C41.1248 60.1218 41.0607 59.4283 40.8895 58.7577C40.8521 58.5814 40.7856 58.4127 40.6926 58.2584C40.3772 57.7778 39.6376 57.7074 39.1688 58.038C38.9959 58.1707 38.8526 58.338 38.7479 58.5291C38.6432 58.7202 38.5793 58.9309 38.5604 59.148C38.5264 59.5372 38.7515 59.9404 38.864 60.3026C39.2102 61.4216 39.5575 62.5391 39.906 63.655Z" fill="#A1616A"/>
<path d="M46.4654 53.6355C46.483 53.4526 46.3189 53.2838 46.1325 53.1666C45.9362 53.066 45.7478 52.9508 45.5687 52.822C45.4023 52.6778 45.3109 52.4903 45.1444 52.3461C44.9552 52.202 44.7404 52.095 44.5114 52.0308C44.0244 51.86 43.5131 51.7686 42.997 51.76C42.4754 51.76 41.9421 51.8772 41.5494 52.1433C41.4525 52.2042 41.3688 52.2839 41.3032 52.3777C41.2413 52.4903 41.2015 52.6136 41.186 52.7411C41.0925 53.1344 40.9658 53.519 40.8074 53.891C40.6445 54.3048 40.471 54.7338 40.0877 55.0538C39.6775 55.3949 39.0504 55.5918 38.7796 56.0044C38.7497 56.041 38.7287 56.0842 38.7183 56.1304C38.7079 56.1766 38.7084 56.2245 38.7198 56.2705C38.7585 56.3748 38.8828 56.4463 38.9976 56.5119C39.6634 56.894 40.2378 57.3899 40.5331 57.9818C40.8285 58.5737 40.8203 59.2712 40.3995 59.8162C40.2448 60.0178 40.0315 60.257 40.1827 60.4597C40.4171 60.768 41.2013 60.591 41.3841 60.9169C41.4416 61.0212 41.4076 61.1396 41.4076 61.2533C41.4076 61.5956 41.7369 61.8991 42.1367 62.0574C42.5364 62.2156 42.9994 62.2531 43.4495 62.2731C43.569 62.0045 43.5807 61.7003 43.4823 61.4233C43.4523 61.3635 43.4405 61.2963 43.4483 61.2298C43.4818 61.1561 43.5339 61.0923 43.5995 61.0447C44.0801 60.5899 43.9781 59.9217 43.6898 59.3814C43.4014 58.841 42.9513 58.3475 42.7837 57.779C42.7005 57.4965 42.7005 57.1789 42.9243 56.9444C43.0528 56.8317 43.1913 56.7309 43.3381 56.6432C43.6003 56.4652 43.8022 56.2118 43.9172 55.9165C44.052 55.5426 44.0344 55.096 44.4259 54.8439C44.8021 54.6095 45.3308 54.6775 45.7469 54.5169C46.0669 54.3903 46.4396 53.9039 46.4654 53.6355Z" fill="#464353"/>
<path d="M69.1936 72.0019C67.406 71.2623 66.8809 70.7278 66.8809 69.6576C66.8809 68.8371 67.2419 67.89 68.8243 67.89C69.6991 67.8771 70.5583 68.1217 71.2952 68.5933L71.8098 67.2324C71.2132 66.8807 70.3716 66.5537 69.1385 66.5127V64.52H68.0988V66.5947C66.2081 66.903 65.1133 68.1971 65.1133 69.9026C65.1133 71.6901 66.1682 72.636 68.2687 73.4577C69.7902 74.0778 70.5861 74.7764 70.5861 75.9063C70.5861 77.0785 69.6003 77.9201 68.141 77.9201C66.9911 77.9201 65.6876 77.5298 64.948 77.0363L64.4545 78.4124C65.1742 78.927 66.4073 79.2962 67.5982 79.3173V81.392H69.367V79.2552C71.4769 78.9035 72.6127 77.3797 72.6127 75.7622C72.6127 73.9336 71.3105 72.8646 69.1936 72.0019Z" fill="url(#paint1_linear_1441_5515)"/>
<path d="M67.6029 80.9232V78.8485C66.412 78.8274 65.1789 78.4581 64.4592 77.9436L64.9526 76.5674C65.6923 77.0609 66.9957 77.4512 68.1456 77.4512C69.6049 77.4512 70.586 76.6096 70.586 75.4375C70.586 74.3075 69.7854 73.6089 68.264 72.9924C66.1682 72.1719 65.1085 71.2248 65.1085 69.4372C65.1085 67.7317 66.2033 66.4377 68.094 66.1294V64.0547H69.1337V66.0474C70.3668 66.0884 71.2084 66.4166 71.8051 66.7671L71.2905 68.1221C70.5536 67.6505 69.6944 67.4059 68.8196 67.4188C67.2372 67.4188 66.8762 68.3647 66.8762 69.1864C66.8762 70.2542 67.4013 70.7887 69.1888 71.5307C71.3057 72.3934 72.608 73.4624 72.608 75.291C72.608 76.9144 71.478 78.4347 69.3623 78.784V80.9232H67.6029Z" fill="#0073BA"/>
</g>
<defs>
<linearGradient id="paint0_linear_1441_5515" x1="36.8162" y1="49.8236" x2="36.8162" y2="27.4472" gradientUnits="userSpaceOnUse">
<stop stop-color="#808080" stop-opacity="0.25"/>
<stop offset="0.54" stop-color="#808080" stop-opacity="0.12"/>
<stop offset="1" stop-color="#808080" stop-opacity="0.1"/>
</linearGradient>
<linearGradient id="paint1_linear_1441_5515" x1="64.4592" y1="72.9572" x2="72.6127" y2="72.9572" gradientUnits="userSpaceOnUse">
<stop stop-color="#808080" stop-opacity="0.25"/>
<stop offset="0.54" stop-color="#808080" stop-opacity="0.12"/>
<stop offset="1" stop-color="#808080" stop-opacity="0.1"/>
</linearGradient>
<clipPath id="clip0_1441_5515">
<rect width="138.059" height="85" fill="white" transform="translate(0.970581)"/>
</clipPath>
</defs>
</svg>
