<svg width="74" height="85" viewBox="0 0 74 85" fill="none" xmlns="http://www.w3.org/2000/svg">
<g clip-path="url(#clip0_1441_5457)">
<path d="M73.5945 75.4523H53.9502V75.1979C59.0927 75.1979 64.0247 73.1551 67.661 69.5188C71.2973 65.8824 73.3402 60.9505 73.3402 55.808V42.0984H73.5945V75.4523Z" fill="#F2F2F2"/>
<path d="M19.994 25.901C19.4718 26.1 18.9385 26.2686 18.3969 26.4061C17.6814 26.5805 17.2774 26.6613 16.5869 26.3933C16.5626 26.3839 16.5395 26.3746 16.5176 26.3654C15.2087 25.8089 14.0898 24.8838 13.2971 23.7029C12.5044 22.5219 12.0721 21.136 12.0528 19.7138C12.0494 19.665 12.0494 19.6137 12.0494 19.5637C12.0487 19.3226 12.0602 19.0817 12.0839 18.8418C12.1142 18.5151 12.1664 18.1908 12.2404 17.871L12.2334 17.8698C11.6743 17.2981 11.4592 16.5149 11.5305 15.7281C11.5794 15.1946 11.7487 14.6792 12.0257 14.2206C12.3027 13.7621 12.6802 13.3724 13.1296 13.0809C13.834 12.638 14.6283 12.3577 15.4546 12.2603C15.6765 12.2347 15.8997 12.2217 16.123 12.2215H18.2214C18.6548 12.12 19.0951 12.0506 19.5386 12.0138H19.5421C23.7653 11.6635 27.0958 14.4633 26.7851 17.8698C26.7828 17.8735 26.7794 17.8773 26.7771 17.8811C26.6874 18.0274 26.608 18.1663 26.5378 18.2989C26.4699 18.4227 26.4124 18.5416 26.3629 18.6542C25.9776 19.5249 27.809 33.0339 27.1521 33.239C26.7782 33.3554 25.2712 23.303 25.5415 25.2145C25.8821 27.6127 21.9396 25.1818 19.994 25.901Z" fill="#2F2E41"/>
<path d="M26.3561 50.321L32.2103 62.7928L9.69055 60.512L14.3914 48.5393L26.3561 50.321Z" fill="#FFB6B6"/>
<path d="M38.1079 75.3262C34.1918 76.6297 30.065 77.1824 25.9439 76.9554L24.1519 74.0492C24.1519 74.0492 24.0769 75.1316 23.9649 76.7862C22.0032 76.5589 20.0671 76.1484 18.1818 75.5602C14.6067 74.4422 11.2554 72.71 7.85824 71.1125C7.17017 67.0108 6.91198 60.6859 10.7161 57.0039L31.1916 60.7559C31.1916 60.7559 34.4768 63.2131 33.5979 64.0932C32.7191 64.972 32.583 64.8359 33.1604 65.4134C33.7378 65.9908 34.9855 66.7628 34.9982 67.2677C35.0033 67.4649 36.4036 71.04 38.1079 75.3262Z" fill="#2F2E41"/>
<path d="M22.7806 26.2214L17.8338 26.5666L14.6365 29.6562L13.5167 29.856C12.5102 30.0355 11.6045 30.5781 10.9714 31.3809C10.3383 32.1837 10.0218 33.1909 10.0819 34.2115C10.3123 38.1139 10.828 43.9447 11.9059 45.8364C13.5772 48.7697 14.9577 47.8494 13.5772 48.7697C12.1967 49.6901 11.2699 48.9669 11.9059 50.4214C12.5418 51.8759 11.0463 53.7415 11.0463 53.7415L10.4509 54.3368L11.0824 54.5956L31.2026 57.2137C31.2026 57.2137 29.4628 49.3916 30.5509 47.4701C31.6389 45.5485 34.2769 39.7402 31.9225 37.4675L29.6205 29.3665L25.6607 28.1987L22.7806 26.2214Z" fill="#0073BA"/>
<path d="M52.726 58.3256C52.395 58.3151 52.0701 58.2329 51.774 58.0845C51.4779 57.9361 51.2175 57.7252 51.0109 57.4663C50.8043 57.2074 50.6565 56.9067 50.5775 56.585C50.4986 56.2633 50.4904 55.9283 50.5537 55.6032L41.1157 49.2115L42.2418 46.1663L53.3959 53.8398C53.9353 53.987 54.4019 54.3269 54.7074 54.7951C55.0129 55.2633 55.136 55.8273 55.0534 56.3803C54.9709 56.9332 54.6883 57.4367 54.2594 57.7952C53.8304 58.1537 53.2848 58.3425 52.726 58.3256Z" fill="#FFB6B6"/>
<path d="M26.0685 28.9835L24.697 29.5265L32.0129 43.8149L47.158 54.1383L49.3411 50.4485L37.8125 40.4906L33.197 31.6388C32.5474 30.393 31.4593 29.4322 30.1428 28.9418C28.8262 28.4514 27.3747 28.4662 26.0685 28.9835Z" fill="#0073BA"/>
<path d="M20.0497 24.9651C22.7931 24.9651 25.017 22.7412 25.017 19.9978C25.017 17.2545 22.7931 15.0305 20.0497 15.0305C17.3063 15.0305 15.0824 17.2545 15.0824 19.9978C15.0824 22.7412 17.3063 24.9651 20.0497 24.9651Z" fill="#FFB6B6"/>
<path d="M24.3693 17.8969C24.2865 17.9406 24.2048 17.9809 24.122 18.0211C24.0357 18.0625 23.9494 18.104 23.862 18.1431C22.1996 18.8966 20.8456 18.9806 20.0242 17.8969C20.0017 17.3267 19.8733 16.7658 19.6457 16.2426C19.6859 16.8273 19.5318 17.4088 19.2074 17.8969H17.553C15.8493 19.0277 14.975 20.0666 16.1576 23.779C16.2347 24.0229 16.7627 32.6879 16.9134 33.354C14.3342 32.3646 12.1092 21.8601 12.0529 19.0922C12.0494 19.0473 12.0494 19.0001 12.0494 18.9541C12.0488 18.7324 12.0603 18.5108 12.0839 18.2903C12.1143 17.9893 12.1666 17.691 12.2404 17.3976L12.2335 17.3964C11.9711 17.1456 11.7709 16.8368 11.6488 16.4949C11.5268 16.153 11.4863 15.7873 11.5306 15.4269C11.9633 14.8604 12.4987 14.3804 13.109 14.0119C13.6639 13.7432 14.2423 13.526 14.8369 13.3631C14.8519 13.3596 14.8645 13.3562 14.8795 13.3527C15.0612 13.3032 15.2476 13.2584 15.434 13.2193C15.818 13.1387 16.2063 13.08 16.597 13.0433C16.6258 13.0421 16.6534 13.0398 16.6787 13.0398C16.835 13.0399 16.9884 13.082 17.1228 13.1617C17.1239 13.1617 17.1239 13.1629 17.1262 13.1629C17.2554 13.2401 17.3625 13.3492 17.4372 13.4797C17.512 13.6103 17.5519 13.7579 17.553 13.9084H19.396C19.4639 13.9084 19.5318 13.9107 19.5996 13.9141C22.1662 14.0165 24.229 15.114 24.3613 17.6369C24.367 17.7243 24.3693 17.8095 24.3693 17.8969Z" fill="#2F2E41"/>
<path d="M13.4733 18.097C15.2806 18.097 16.7458 16.6318 16.7458 14.8245C16.7458 13.0171 15.2806 11.552 13.4733 11.552C11.6659 11.552 10.2008 13.0171 10.2008 14.8245C10.2008 16.6318 11.6659 18.097 13.4733 18.097Z" fill="#2F2E41"/>
<path d="M17.966 13.3103C17.5943 15.079 15.76 16.1369 14.0052 15.7041C13.1626 15.4963 12.4369 14.9623 11.988 14.2195C11.5391 13.4767 11.4036 12.586 11.6114 11.7433C12.0441 9.98854 14.1738 10.4944 15.5722 9.34952C17.5505 7.72987 18.4674 10.9251 17.966 13.3103Z" fill="#2F2E41"/>
<path d="M10.6951 62.5437C13.4842 51.1699 19.0105 41.3939 28.1628 33.7345C28.517 33.1518 29.0878 32.7334 29.7501 32.5711C30.4125 32.4088 31.1121 32.5158 31.6956 32.8687L53.4529 46.0606C54.0356 46.4148 54.454 46.9857 54.6163 47.648C54.7786 48.3103 54.6716 49.01 54.3187 49.5935C50.8254 61.2642 45.5933 71.3914 36.8511 78.4026C36.4969 78.9853 35.926 79.4037 35.2637 79.5661C34.6014 79.7284 33.9017 79.6214 33.3183 79.2685L11.5609 66.0765C10.9782 65.7223 10.5598 65.1514 10.3975 64.4891C10.2352 63.8268 10.3422 63.1272 10.6951 62.5437Z" fill="#F2F2F2"/>
<path opacity="0.2" d="M14.5622 66.3768C13.9795 66.0226 13.5611 65.4517 13.3988 64.7894C13.2365 64.1271 13.3435 63.4275 13.6964 62.844C16.4855 51.4701 22.0118 41.6942 31.164 34.0348C31.3985 33.6534 31.7296 33.3407 32.1237 33.1283L31.6956 32.8687C31.1121 32.5158 30.4124 32.4088 29.7501 32.5711C29.0878 32.7334 28.517 33.1518 28.1627 33.7345C19.0105 41.3938 13.4842 51.1698 10.6951 62.5437C10.3422 63.1272 10.2352 63.8268 10.3975 64.4891C10.5598 65.1514 10.9782 65.7223 11.5609 66.0765L33.3182 79.2685C33.7054 79.5015 34.1474 79.628 34.5993 79.6351C35.0512 79.6423 35.4969 79.5298 35.8914 79.3092L14.5622 66.3768Z" fill="black"/>
<path d="M40.0779 60.0224L25.4734 51.2226C25.2414 51.0824 25.0745 50.8558 25.0094 50.5927C24.9443 50.3295 24.9864 50.0513 25.1263 49.819C25.2662 49.5868 25.4925 49.4197 25.7556 49.3542C26.0187 49.2888 26.297 49.3305 26.5294 49.4701L41.1339 58.2698C41.3654 58.4103 41.5317 58.6368 41.5965 58.8997C41.6612 59.1626 41.6191 59.4405 41.4794 59.6724C41.3396 59.9043 41.1137 60.0714 40.851 60.137C40.5883 60.2026 40.3103 60.1614 40.0779 60.0224Z" fill="white"/>
<path d="M31.582 48.3533L28.369 46.4174C28.1362 46.2781 27.9682 46.052 27.9021 45.7888C27.8359 45.5257 27.877 45.247 28.0163 45.0142C28.1556 44.7813 28.3817 44.6134 28.6449 44.5472C28.908 44.4811 29.1866 44.5222 29.4195 44.6615L29.425 44.6648L32.638 46.6008C32.8695 46.7412 33.0359 46.9677 33.1007 47.2307C33.1655 47.4936 33.1234 47.7715 32.9837 48.0034C32.8439 48.2354 32.6179 48.4025 32.3551 48.468C32.0924 48.5336 31.8144 48.4924 31.582 48.3533Z" fill="white"/>
<path d="M37.7568 63.8752L23.1522 55.0755C22.92 54.9356 22.7527 54.7092 22.6872 54.4461C22.6218 54.1829 22.6635 53.9046 22.8031 53.6721C22.9428 53.4397 23.169 53.2722 23.4321 53.2065C23.6952 53.1408 23.9736 53.1822 24.2061 53.3217L24.2082 53.3229L38.8127 62.1227C39.0442 62.2632 39.2105 62.4897 39.2753 62.7526C39.34 63.0155 39.2979 63.2933 39.1582 63.5252C39.0184 63.7572 38.7925 63.9242 38.5298 63.9898C38.2671 64.0554 37.9891 64.0142 37.7568 63.8752Z" fill="white"/>
<path d="M41.9327 43.43C44.2885 43.43 46.1984 41.5202 46.1984 39.1644C46.1984 36.8085 44.2885 34.8987 41.9327 34.8987C39.5768 34.8987 37.667 36.8085 37.667 39.1644C37.667 41.5202 39.5768 43.43 41.9327 43.43Z" fill="#3F3D56"/>
<path d="M34.5798 84.8727C39.6151 84.8727 43.697 80.7908 43.697 75.7554C43.697 70.7201 39.6151 66.6382 34.5798 66.6382C29.5445 66.6382 25.4625 70.7201 25.4625 75.7554C25.4625 80.7908 29.5445 84.8727 34.5798 84.8727Z" fill="white"/>
<path d="M34.5798 85.0003C32.7514 85.0003 30.9641 84.4582 29.4438 83.4424C27.9236 82.4266 26.7387 80.9828 26.039 79.2936C25.3393 77.6044 25.1563 75.7457 25.513 73.9524C25.8697 72.1592 26.7501 70.512 28.0429 69.2191C29.3358 67.9263 30.983 67.0458 32.7762 66.6891C34.5695 66.3324 36.4282 66.5155 38.1174 67.2152C39.8066 67.9148 41.2504 69.0997 42.2662 70.6199C43.282 72.1402 43.8242 73.9275 43.8242 75.7558C43.8214 78.2068 42.8466 80.5566 41.1135 82.2896C39.3805 84.0227 37.0307 84.9976 34.5798 85.0003ZM34.5798 66.7658C32.8017 66.7658 31.0636 67.2931 29.5852 68.281C28.1067 69.2688 26.9545 70.6729 26.274 72.3156C25.5936 73.9583 25.4156 75.7659 25.7624 77.5098C26.1093 79.2537 26.9656 80.8556 28.2229 82.1129C29.4801 83.3702 31.082 84.2264 32.8259 84.5733C34.5698 84.9201 36.3774 84.7421 38.0202 84.0616C39.6629 83.3812 41.0669 82.2289 42.0548 80.7505C43.0426 79.2721 43.5699 77.5339 43.5698 75.7558C43.5671 73.3724 42.6191 71.0873 40.9337 69.4019C39.2483 67.7165 36.9633 66.7685 34.5798 66.7658Z" fill="#3F3D56"/>
<path d="M33.3359 80.5009C33.1785 80.5009 33.0232 80.4642 32.8824 80.3938C32.7416 80.3234 32.6191 80.2211 32.5246 80.0951L30.0373 76.7786C29.9573 76.6721 29.899 76.5508 29.8659 76.4218C29.8327 76.2927 29.8253 76.1584 29.8441 76.0265C29.8629 75.8945 29.9075 75.7676 29.9754 75.6529C30.0433 75.5383 30.1331 75.4381 30.2397 75.3581C30.3463 75.2782 30.4676 75.22 30.5967 75.187C30.7258 75.1539 30.8601 75.1467 30.992 75.1656C31.1239 75.1845 31.2508 75.2292 31.3654 75.2972C31.48 75.3651 31.5801 75.455 31.66 75.5617L33.2873 77.7313L37.4668 71.4621C37.5407 71.3513 37.6356 71.2561 37.7463 71.182C37.857 71.1079 37.9811 71.0563 38.1117 71.0302C38.2423 71.0041 38.3768 71.0039 38.5074 71.0298C38.6381 71.0556 38.7624 71.107 38.8732 71.1808C38.984 71.2547 39.0792 71.3497 39.1533 71.4604C39.2274 71.571 39.279 71.6952 39.3051 71.8258C39.3312 71.9564 39.3314 72.0908 39.3055 72.2215C39.2797 72.3522 39.2284 72.4764 39.1545 72.5873L34.1798 80.0492C34.0898 80.1842 33.9688 80.2956 33.8269 80.3741C33.685 80.4526 33.5263 80.496 33.3641 80.5005C33.3547 80.5007 33.3453 80.5009 33.3359 80.5009Z" fill="#0073BA"/>
<path d="M64.0241 29.5536C64.3864 29.5226 64.6626 29.2932 64.641 29.0412C64.6195 28.7892 64.3083 28.61 63.946 28.6409C63.5837 28.6719 63.3075 28.9013 63.3291 29.1534C63.3506 29.4054 63.6618 29.5846 64.0241 29.5536Z" fill="white"/>
<path d="M68.1004 28.1708C68.4627 28.1398 68.7389 27.9104 68.7173 27.6584C68.6958 27.4063 68.3846 27.2271 68.0223 27.2581C67.66 27.2891 67.3838 27.5185 67.4054 27.7706C67.4269 28.0226 67.7381 28.2018 68.1004 28.1708Z" fill="#3F3D56"/>
<path d="M62.0918 26.4438C62.4541 26.4128 62.7303 26.1834 62.7088 25.9313C62.6872 25.6793 62.3761 25.5001 62.0138 25.5311C61.6515 25.562 61.3753 25.7915 61.3968 26.0435C61.4184 26.2955 61.7295 26.4747 62.0918 26.4438Z" fill="#FF6584"/>
<path d="M60.3819 25.4415C60.5378 25.4063 60.6232 25.196 60.5725 24.9719C60.5219 24.7477 60.3544 24.5946 60.1985 24.6298C60.0426 24.665 59.9572 24.8753 60.0078 25.0995C60.0585 25.3236 60.226 25.4768 60.3819 25.4415Z" fill="#E6E6E6"/>
<path d="M59.1645 23.0089C59.3204 22.9737 59.4058 22.7634 59.3551 22.5393C59.3045 22.3151 59.137 22.162 58.9811 22.1972C58.8251 22.2324 58.7398 22.4427 58.7904 22.6669C58.8411 22.891 59.0085 23.0442 59.1645 23.0089Z" fill="#3F3D56"/>
<path d="M65.0053 26.4254C65.1612 26.3902 65.2466 26.1799 65.1959 25.9558C65.1453 25.7316 64.9778 25.5785 64.8219 25.6137C64.666 25.6489 64.5806 25.8592 64.6313 26.0834C64.6819 26.3075 64.8494 26.4607 65.0053 26.4254Z" fill="#E6E6E6"/>
<path d="M63.2249 27.903C63.3808 27.8677 63.4662 27.6575 63.4155 27.4333C63.3649 27.2092 63.1974 27.056 63.0415 27.0912C62.8856 27.1265 62.8002 27.3367 62.8509 27.5609C62.9015 27.7851 63.069 27.9382 63.2249 27.903Z" fill="#FF6584"/>
<path d="M66.4662 29.1071C66.6222 29.0718 66.7075 28.8616 66.6569 28.6374C66.6062 28.4133 66.4388 28.2601 66.2828 28.2953C66.1269 28.3306 66.0415 28.5408 66.0922 28.765C66.1428 28.9892 66.3103 29.1423 66.4662 29.1071Z" fill="#3F3D56"/>
<path d="M47.1942 10.7084C47.2564 10.4632 47.021 10.192 46.6685 10.1026C46.3161 10.0133 45.98 10.1397 45.9178 10.3849C45.8557 10.6301 46.091 10.9013 46.4435 10.9906C46.796 11.0799 47.1321 10.9536 47.1942 10.7084Z" fill="white"/>
<path d="M42.8898 10.6805C42.9519 10.4353 42.7166 10.1641 42.3641 10.0748C42.0116 9.98548 41.6755 10.1118 41.6134 10.357C41.5512 10.6022 41.7866 10.8734 42.1391 10.9628C42.4915 11.0521 42.8277 10.9257 42.8898 10.6805Z" fill="#3F3D56"/>
<path d="M48.002 14.2792C48.0641 14.034 47.8288 13.7628 47.4763 13.6734C47.1238 13.5841 46.7877 13.7105 46.7256 13.9557C46.6634 14.2009 46.8988 14.4721 47.2512 14.5614C47.6037 14.6507 47.9398 14.5244 48.002 14.2792Z" fill="#FF6584"/>
<path d="M49.0053 15.6261C49.0309 15.3977 48.9227 15.1982 48.7639 15.1804C48.605 15.1627 48.4555 15.3334 48.43 15.5618C48.4045 15.7902 48.5126 15.9897 48.6715 16.0075C48.8303 16.0252 48.9798 15.8545 49.0053 15.6261Z" fill="#E6E6E6"/>
<path d="M49.3593 18.3234C49.3849 18.095 49.2768 17.8955 49.1179 17.8777C48.959 17.8599 48.8095 18.0307 48.784 18.2591C48.7585 18.4875 48.8666 18.687 49.0255 18.7048C49.1843 18.7225 49.3338 18.5518 49.3593 18.3234Z" fill="#3F3D56"/>
<path d="M44.9587 13.1832C44.9842 12.9548 44.8761 12.7553 44.7172 12.7376C44.5584 12.7198 44.4089 12.8906 44.3834 13.1189C44.3578 13.3473 44.466 13.5469 44.6248 13.5646C44.7837 13.5824 44.9332 13.4116 44.9587 13.1832Z" fill="#E6E6E6"/>
<path d="M47.1248 12.3693C47.1504 12.1409 47.0423 11.9414 46.8834 11.9236C46.7245 11.9058 46.575 12.0766 46.5495 12.305C46.524 12.5334 46.6321 12.7329 46.791 12.7506C46.9498 12.7684 47.0993 12.5977 47.1248 12.3693Z" fill="#FF6584"/>
<path d="M44.4563 10.1705C44.4818 9.94215 44.3737 9.74262 44.2148 9.72487C44.0559 9.70712 43.9064 9.87787 43.8809 10.1063C43.8554 10.3346 43.9635 10.5342 44.1224 10.5519C44.2813 10.5697 44.4307 10.3989 44.4563 10.1705Z" fill="#3F3D56"/>
<path d="M0.659765 33.3539H0.405396V0H20.0497V0.25437C14.9072 0.25437 9.97527 2.29723 6.33895 5.93356C2.70263 9.56988 0.659765 14.5018 0.659765 19.6443V33.3539Z" fill="#F2F2F2"/>
<path d="M12.0518 62.6643C11.7267 62.5311 11.4344 62.3289 11.1951 62.0716C10.9559 61.8143 10.7754 61.5081 10.6661 61.1742C10.5568 60.8403 10.5214 60.4867 10.5622 60.1378C10.603 59.7888 10.7192 59.4529 10.9026 59.1533L3.89404 49.3014L6.14244 46.6929L14.3811 58.4549C14.8625 58.8012 15.2001 59.312 15.3301 59.8906C15.46 60.4692 15.3732 61.0754 15.0861 61.5942C14.799 62.1131 14.3315 62.5086 13.7723 62.7058C13.213 62.903 12.6008 62.8883 12.0518 62.6643Z" fill="#FFB6B6"/>
<path d="M12.2128 31.4442C11.8582 31.2356 11.4409 31.1602 11.0357 31.2315C10.6306 31.3029 10.2641 31.5163 10.0021 31.8334L0.532593 45.077L9.30835 57.5412L12.7423 53.8528L7.40057 45.4586L14.4998 38.6993C15.0832 37.4213 15.1723 35.9724 14.7499 34.6324C14.3275 33.2925 13.4236 32.1567 12.2128 31.4442Z" fill="#0073BA"/>
</g>
<defs>
<clipPath id="clip0_1441_5457">
<rect width="73.1892" height="85" fill="white" transform="translate(0.405396)"/>
</clipPath>
</defs>
</svg>
