<svg width="96" height="85" viewBox="0 0 96 85" fill="none" xmlns="http://www.w3.org/2000/svg">
<g clip-path="url(#clip0_1441_5391)">
<path d="M85.4637 0H11.6823C9.96112 0 8.5658 1.39532 8.5658 3.11653V57.9638C8.5658 59.685 9.96112 61.0803 11.6823 61.0803H85.4637C87.1849 61.0803 88.5802 59.685 88.5802 57.9638V3.11653C88.5802 1.39532 87.1849 0 85.4637 0Z" fill="#D7D7D8"/>
<path d="M11.6823 0.716064C10.3589 0.716064 9.28186 1.7931 9.28186 3.11648V57.9623C9.28186 59.2857 10.3589 60.3627 11.6823 60.3627H85.4636C86.787 60.3627 87.864 59.2857 87.864 57.9623V3.11648C87.864 1.7931 86.787 0.716064 85.4636 0.716064H11.6823Z" fill="white"/>
<path d="M48.857 0.365234H48.2855V60.7824H48.857V0.365234Z" fill="#D7D7D8"/>
<path d="M45.1749 10.2019C45.6218 10.2019 45.9841 9.83962 45.9841 9.39271C45.9841 8.94579 45.6218 8.5835 45.1749 8.5835C44.728 8.5835 44.3657 8.94579 44.3657 9.39271C44.3657 9.83962 44.728 10.2019 45.1749 10.2019Z" fill="#D7D7D8"/>
<path d="M51.9692 10.2019C52.4162 10.2019 52.7785 9.83962 52.7785 9.39271C52.7785 8.94579 52.4162 8.5835 51.9692 8.5835C51.5223 8.5835 51.16 8.94579 51.16 9.39271C51.16 9.83962 51.5223 10.2019 51.9692 10.2019Z" fill="#D7D7D8"/>
<path d="M45.1749 20.7759C45.6218 20.7759 45.9841 20.4136 45.9841 19.9667C45.9841 19.5198 45.6218 19.1575 45.1749 19.1575C44.728 19.1575 44.3657 19.5198 44.3657 19.9667C44.3657 20.4136 44.728 20.7759 45.1749 20.7759Z" fill="#D7D7D8"/>
<path d="M51.9692 20.7759C52.4162 20.7759 52.7785 20.4136 52.7785 19.9667C52.7785 19.5198 52.4162 19.1575 51.9692 19.1575C51.5223 19.1575 51.16 19.5198 51.16 19.9667C51.16 20.4136 51.5223 20.7759 51.9692 20.7759Z" fill="#D7D7D8"/>
<path d="M45.1749 31.3486C45.6218 31.3486 45.9841 30.9863 45.9841 30.5394C45.9841 30.0925 45.6218 29.7302 45.1749 29.7302C44.728 29.7302 44.3657 30.0925 44.3657 30.5394C44.3657 30.9863 44.728 31.3486 45.1749 31.3486Z" fill="#D7D7D8"/>
<path d="M51.9692 31.3486C52.4162 31.3486 52.7785 30.9863 52.7785 30.5394C52.7785 30.0925 52.4162 29.7302 51.9692 29.7302C51.5223 29.7302 51.16 30.0925 51.16 30.5394C51.16 30.9863 51.5223 31.3486 51.9692 31.3486Z" fill="#D7D7D8"/>
<path d="M45.1749 41.9229C45.6218 41.9229 45.9841 41.5606 45.9841 41.1137C45.9841 40.6667 45.6218 40.3044 45.1749 40.3044C44.728 40.3044 44.3657 40.6667 44.3657 41.1137C44.3657 41.5606 44.728 41.9229 45.1749 41.9229Z" fill="#D7D7D8"/>
<path d="M51.9692 41.9229C52.4162 41.9229 52.7785 41.5606 52.7785 41.1137C52.7785 40.6667 52.4162 40.3044 51.9692 40.3044C51.5223 40.3044 51.16 40.6667 51.16 41.1137C51.16 41.5606 51.5223 41.9229 51.9692 41.9229Z" fill="#D7D7D8"/>
<path d="M45.1749 52.4956C45.6218 52.4956 45.9841 52.1333 45.9841 51.6864C45.9841 51.2395 45.6218 50.8772 45.1749 50.8772C44.728 50.8772 44.3657 51.2395 44.3657 51.6864C44.3657 52.1333 44.728 52.4956 45.1749 52.4956Z" fill="#D7D7D8"/>
<path d="M51.9692 52.4956C52.4162 52.4956 52.7785 52.1333 52.7785 51.6864C52.7785 51.2395 52.4162 50.8772 51.9692 50.8772C51.5223 50.8772 51.16 51.2395 51.16 51.6864C51.16 52.1333 51.5223 52.4956 51.9692 52.4956Z" fill="#D7D7D8"/>
<path d="M45.2493 9.01874L45.0989 8.77526C45.1361 8.75235 48.837 6.51663 52.0509 8.77956L51.8862 9.01444C48.827 6.86037 45.2836 8.99726 45.2493 9.01874Z" fill="#D7D7D8"/>
<path d="M45.2493 10.0112L45.0989 9.76769C45.1361 9.74478 48.837 7.50907 52.0509 9.77199L51.8862 10.0069C48.827 7.8528 45.2836 9.98969 45.2493 10.0112Z" fill="#D7D7D8"/>
<path d="M45.2493 19.6389L45.0989 19.3954C45.1361 19.3725 48.837 17.1368 52.0509 19.3997L51.8862 19.6346C48.827 17.4805 45.2836 19.6174 45.2493 19.6389Z" fill="#D7D7D8"/>
<path d="M45.2493 20.6328L45.0989 20.3893C45.1361 20.3664 48.837 18.1306 52.0509 20.3936L51.8862 20.6285C48.827 18.4744 45.2836 20.6113 45.2493 20.6328Z" fill="#D7D7D8"/>
<path d="M45.2493 30.2587L45.0989 30.0153C45.1361 29.9923 48.837 27.7566 52.0509 30.0195L51.8862 30.2544C48.827 28.1004 45.2836 30.2372 45.2493 30.2587Z" fill="#D7D7D8"/>
<path d="M45.2493 31.2526L45.0989 31.0091C45.1361 30.9862 48.8356 28.7505 52.0509 31.0134L51.8862 31.2483C48.827 29.0943 45.2836 31.2311 45.2493 31.2526Z" fill="#D7D7D8"/>
<path d="M45.2493 40.8786L45.0989 40.6351C45.1361 40.6122 48.837 38.3765 52.0509 40.6394L51.8862 40.8743C48.827 38.7217 45.2836 40.8571 45.2493 40.8786Z" fill="#D7D7D8"/>
<path d="M45.2493 41.8727L45.0989 41.6293C45.1361 41.6064 48.8356 39.3706 52.0509 41.6336L51.8862 41.8684C48.827 39.7144 45.2836 41.8513 45.2493 41.8727Z" fill="#D7D7D8"/>
<path d="M45.2493 51.4987L45.0989 51.2552C45.1361 51.2323 48.837 48.9966 52.0509 51.2595L51.8862 51.493C48.827 49.3389 45.2836 51.4758 45.2493 51.4973V51.4987Z" fill="#D7D7D8"/>
<path d="M45.2493 52.4926L45.0989 52.2491C45.1361 52.2262 48.837 49.9905 52.0509 52.2534L51.8862 52.4869C48.827 50.3328 45.2836 52.4697 45.2493 52.4912V52.4926Z" fill="#D7D7D8"/>
<path d="M66.6983 16.008C66.6983 16.008 63.7508 16.3403 63.5603 20.9048C63.4013 24.7088 63.0776 26.8285 64.6258 27.622C65.1787 27.9055 65.8289 27.9299 66.4204 27.7365L72.7366 25.6598C72.7366 25.6598 72.8311 18.8137 70.6441 17.1495C68.4571 15.4852 66.6983 16.008 66.6983 16.008Z" fill="#2F2E43"/>
<path d="M70.1801 26.5007L66.9834 27.5519V22.9502H69.8837L70.1801 26.5007Z" fill="#F3A3A6"/>
<path d="M60.408 52.6215C60.2347 53.6756 59.5315 54.4318 58.8383 54.3101C58.1437 54.1883 57.7226 53.2345 57.8959 52.1803C57.9589 51.7578 58.1265 51.3582 58.3828 51.0159L59.1749 46.5588L61.3304 47.01L60.3207 51.3554C60.4539 51.7664 60.4839 52.2004 60.408 52.6215Z" fill="#F3A3A6"/>
<path d="M67.7268 82.2573H64.7334L62.9976 66.2607H67.6251L67.7268 82.2573Z" fill="#F3A3A6"/>
<path d="M61.8175 84.8295C61.5025 84.8295 61.2217 84.8224 61.0112 84.8023C60.2163 84.7293 59.4572 84.1421 59.0763 83.7998C58.9058 83.6465 58.85 83.4002 58.9388 83.1882C59.0032 83.0364 59.1307 82.9232 59.2897 82.8774L61.3907 82.2773L64.7937 79.9814L64.8324 80.0502C64.8467 80.076 65.1804 80.6775 65.2921 81.0843C65.3351 81.2389 65.3236 81.3678 65.2592 81.4681C65.2148 81.5368 65.1518 81.5769 65.1017 81.5999C65.1632 81.6643 65.3566 81.7946 65.951 81.8892C66.8203 82.0267 67.0008 81.1272 67.0094 81.09L67.0151 81.0599L67.0409 81.0427C67.4534 80.7763 67.7083 80.656 67.7957 80.6818C67.8501 80.6976 67.9418 80.7262 68.1881 83.1753C68.2125 83.2527 68.3858 83.8155 68.2683 84.3555C68.1408 84.9427 65.5786 84.7408 65.0659 84.6935C65.0515 84.6949 63.1338 84.831 61.819 84.831L61.8175 84.8295Z" fill="#2F2E43"/>
<path d="M74.4913 82.2573H71.4965L69.7606 66.2607H74.3882L74.4913 82.2573Z" fill="#F3A3A6"/>
<path d="M68.5817 84.8295C68.2666 84.8295 67.9859 84.8224 67.7754 84.8023C66.9805 84.7293 66.2214 84.1421 65.8404 83.7998C65.67 83.6465 65.6141 83.4002 65.7029 83.1882C65.7674 83.0364 65.8949 82.9232 66.0538 82.8774L68.1549 82.2773L71.5579 79.9814L71.5966 80.0502C71.6109 80.076 71.9446 80.6775 72.0563 81.0843C72.0993 81.2389 72.0878 81.3678 72.0234 81.4681C71.979 81.5368 71.9159 81.5769 71.8658 81.5999C71.9274 81.6643 72.1208 81.7946 72.7151 81.8892C73.5845 82.0267 73.765 81.1272 73.7735 81.09L73.7793 81.0599L73.8051 81.0427C74.219 80.7763 74.4725 80.656 74.5598 80.6818C74.6143 80.6976 74.7059 80.7262 74.9523 83.1753C74.9766 83.2527 75.1499 83.8155 75.0325 84.3555C74.905 84.9427 72.3427 84.7408 71.83 84.6935C71.8157 84.6949 69.8979 84.831 68.5831 84.831L68.5817 84.8295Z" fill="#2F2E43"/>
<path d="M75.3519 42.9655H60.8047L66.0338 25.7544H71.8343L75.3519 42.9655Z" fill="#1195D6"/>
<path d="M66.949 25.7572C66.949 25.7572 63.3355 25.6627 62.956 26.6137C62.575 27.5647 58.1064 50.1954 58.1064 50.1954H61.054L66.949 25.7587V25.7572Z" fill="#1195D6"/>
<path d="M67.3786 24.2233C69.1378 24.2233 70.5639 22.7972 70.5639 21.0381C70.5639 19.2789 69.1378 17.8528 67.3786 17.8528C65.6195 17.8528 64.1934 19.2789 64.1934 21.0381C64.1934 22.7972 65.6195 24.2233 67.3786 24.2233Z" fill="#F3A3A6"/>
<path d="M66.5081 17.1968C66.5081 17.1968 64.755 24.315 66.7043 27.642L63.9587 27.0591C63.9587 27.0591 62.8946 19.2692 65.0343 17.8527L66.5081 17.1968Z" fill="#2F2E43"/>
<path d="M72.3285 42.9656H62.7813L57.5579 64.4046C57.462 65.3098 58.0363 66.1548 58.9157 66.3911C61.7816 67.1588 68.6591 68.2459 79.0672 65.2167C80.0683 64.926 80.6369 63.869 80.3232 62.8736L72.3285 42.9656Z" fill="#2F2E43"/>
<path d="M95.8801 84.8296C95.8801 84.9241 95.8042 85.0001 95.7097 85.0001H0.291651C0.197124 85.0001 0.121216 84.9241 0.121216 84.8296C0.121216 84.7351 0.197124 84.6592 0.291651 84.6592H95.7097C95.8042 84.6592 95.8801 84.7351 95.8801 84.8296Z" fill="#2F2E43"/>
<path d="M68.4688 25.7544L71.4378 25.624C72.7239 25.7214 73.8869 26.4203 74.5758 27.5103C76.674 30.8273 80.5997 37.818 77.0951 38.7762C72.4747 40.038 70.2361 33.0129 70.2361 33.0129L68.4688 25.7544Z" fill="#1195D6"/>
<path d="M65.7316 28.2808L73.0016 22.9873C73.0876 22.9243 73.2079 22.9443 73.2709 23.0303L73.4471 23.2723C73.5101 23.3582 73.49 23.4785 73.4041 23.5416L66.1355 28.8351H66.1341L65.1702 29.2504L65.0972 29.1502L65.7316 28.2808Z" fill="#2F2E43"/>
<path d="M67.4505 27.8384C66.8403 26.9619 66.8189 25.9292 67.4003 25.5325C67.9833 25.1358 68.95 25.5268 69.5601 26.4033C69.8094 26.7499 69.9669 27.1538 70.0213 27.5777L72.5578 31.3273L70.6973 32.506L68.3943 28.6848C68.0119 28.4829 67.6882 28.1922 67.4505 27.8384Z" fill="#F3A3A6"/>
<path d="M68.9513 30.8704L71.0466 28.9412L75.1901 32.7996L71.3374 35.4335L68.9513 30.8704Z" fill="#1195D6"/>
<path d="M15.9947 10.8707C18.9379 10.7576 21.884 10.7089 24.8301 10.7261C27.7762 10.7433 30.6736 10.8249 33.5911 10.9724C35.2525 11.0555 36.911 11.16 38.5695 11.2861C38.8459 11.3076 38.8445 10.8765 38.5695 10.8564C35.632 10.6344 32.6902 10.4783 29.7456 10.3866C26.8009 10.295 23.9021 10.272 20.9803 10.3107C19.3175 10.3336 17.6547 10.3766 15.9933 10.4411C15.7183 10.4511 15.7169 10.8807 15.9933 10.8707H15.9947Z" fill="#1195D6"/>
<path d="M15.9947 15.7316C18.9379 15.6184 21.884 15.5697 24.8301 15.5869C27.7762 15.6041 30.6736 15.6857 33.5911 15.8333C35.2525 15.9163 36.911 16.0209 38.5695 16.1469C38.8459 16.1684 38.8445 15.7373 38.5695 15.7172C35.632 15.4952 32.6902 15.3391 29.7456 15.2475C26.8009 15.1558 23.9021 15.1329 20.9803 15.1716C19.3175 15.1945 17.6547 15.2374 15.9933 15.3019C15.7183 15.3119 15.7169 15.7416 15.9933 15.7316H15.9947Z" fill="#2F2E43"/>
<path d="M15.9947 20.5926C18.3837 20.4995 20.7741 20.3935 23.1659 20.352C25.2111 20.3162 27.2564 20.3491 29.2987 20.4479C30.7553 20.5181 32.2105 20.6169 33.6656 20.7258C33.942 20.7473 33.9406 20.3162 33.6656 20.2961C31.2824 20.1157 28.8963 19.9681 26.5059 19.9223C24.4607 19.8836 22.414 19.928 20.3702 19.9968C18.9122 20.0469 17.4542 20.1056 15.9947 20.1629C15.7198 20.173 15.7183 20.6026 15.9947 20.5926Z" fill="#2F2E43"/>
<path d="M15.9947 25.4537C18.524 25.3563 21.0547 25.2531 23.5855 25.2159C25.8513 25.1815 28.1185 25.2116 30.3828 25.3147C31.891 25.3835 33.3977 25.4794 34.9044 25.594C35.1808 25.6155 35.1794 25.1844 34.9044 25.1643C32.3808 24.9739 29.8543 24.8321 27.325 24.7891C25.0578 24.749 22.7906 24.7891 20.5248 24.8607C19.0152 24.908 17.5057 24.9667 15.9961 25.0254C15.7211 25.0354 15.7197 25.4651 15.9961 25.4551L15.9947 25.4537Z" fill="#2F2E43"/>
<path d="M15.9947 30.3132C18.2949 30.2244 20.5922 30.084 22.8909 29.9766C24.7901 29.8878 26.6892 29.8577 28.5898 29.9207C30.0134 29.968 31.4356 30.0568 32.855 30.1642C33.1314 30.1857 33.1299 29.7546 32.855 29.7345C30.5634 29.5612 28.269 29.4395 25.9702 29.4567C24.0668 29.471 22.1677 29.5813 20.2685 29.683C18.8449 29.7589 17.4198 29.8276 15.9947 29.8835C15.7198 29.8935 15.7183 30.3246 15.9947 30.3132Z" fill="#2F2E43"/>
<path d="M15.9947 35.1742C18.9379 35.061 21.884 35.0123 24.8301 35.0295C27.7762 35.0467 30.6736 35.1284 33.5911 35.2759C35.2525 35.3589 36.911 35.4635 38.5695 35.5895C38.8459 35.611 38.8445 35.1799 38.5695 35.1599C35.632 34.9379 32.6902 34.7818 29.7456 34.6901C26.8009 34.5984 23.9021 34.5755 20.9803 34.6142C19.3175 34.6371 17.6547 34.6801 15.9933 34.7445C15.7183 34.7545 15.7169 35.1842 15.9933 35.1742H15.9947Z" fill="#2F2E43"/>
</g>
<defs>
<clipPath id="clip0_1441_5391">
<rect width="95.7589" height="85" fill="white" transform="translate(0.120605)"/>
</clipPath>
</defs>
</svg>
