<svg width="20" height="20" viewBox="0 0 20 20" fill="none" xmlns="http://www.w3.org/2000/svg">
<g clip-path="url(#clip0_1458_1340)">
<g clip-path="url(#clip1_1458_1340)">
<path d="M9.99984 18.3332C14.6022 18.3332 18.3332 14.6022 18.3332 9.99984C18.3332 5.39746 14.6022 1.6665 9.99984 1.6665C5.39746 1.6665 1.6665 5.39746 1.6665 9.99984C1.6665 14.6022 5.39746 18.3332 9.99984 18.3332Z" stroke="#1E1E1E" stroke-width="1.66667" stroke-linecap="round" stroke-linejoin="round"/>
<path d="M10 10.8335C11.3807 10.8335 12.5 9.71421 12.5 8.3335C12.5 6.95278 11.3807 5.8335 10 5.8335C8.61929 5.8335 7.5 6.95278 7.5 8.3335C7.5 9.71421 8.61929 10.8335 10 10.8335Z" stroke="#1E1E1E" stroke-width="1.66667" stroke-linecap="round" stroke-linejoin="round"/>
<path d="M5.8335 17.2182V15.8332C5.8335 15.3911 6.00909 14.9672 6.32165 14.6547C6.63421 14.3421 7.05814 14.1665 7.50016 14.1665H12.5002C12.9422 14.1665 13.3661 14.3421 13.6787 14.6547C13.9912 14.9672 14.1668 15.3911 14.1668 15.8332V17.2182" stroke="#1E1E1E" stroke-width="1.66667" stroke-linecap="round" stroke-linejoin="round"/>
</g>
</g>
<defs>
<clipPath id="clip0_1458_1340">
<rect width="20" height="20" fill="white"/>
</clipPath>
<clipPath id="clip1_1458_1340">
<rect width="20" height="20" fill="white"/>
</clipPath>
</defs>
</svg>
