<svg width="235" height="145" viewBox="0 0 235 145" fill="none" xmlns="http://www.w3.org/2000/svg">
<path d="M110.61 163.462C126.408 163.462 139.216 150.655 139.216 134.856C139.216 119.058 126.408 106.25 110.61 106.25C94.8112 106.25 82.0039 119.058 82.0039 134.856C82.0039 150.655 94.8112 163.462 110.61 163.462Z" fill="#F0F0F0"/>
<path d="M174.097 32.2118C189.895 32.2118 202.703 19.4045 202.703 3.60591C202.703 -12.1927 189.895 -25 174.097 -25C158.298 -25 145.491 -12.1927 145.491 3.60591C145.491 19.4045 158.298 32.2118 174.097 32.2118Z" fill="#F0F0F0"/>
<path d="M135.275 51.1364V116.002C135.275 117.35 134.744 118.643 133.796 119.6C132.848 120.558 131.561 121.103 130.214 121.117C130.195 121.119 130.177 121.12 130.158 121.12H122.608C116.568 121.12 110.774 118.72 106.503 114.449C102.232 110.177 99.832 104.384 99.832 98.3434V51.1364C99.832 49.7792 100.371 48.4776 101.331 47.5179C102.291 46.5582 103.592 46.019 104.949 46.019H108.008C106.591 50.1532 125.826 51.8938 126.882 46.019H130.158C131.515 46.019 132.817 46.5582 133.776 47.5179C134.736 48.4776 135.275 49.7792 135.275 51.1364Z" fill="#1195D6"/>
<path d="M131.725 129.347H102.886C100.648 129.345 98.5029 128.455 96.9208 126.873C95.3386 125.291 94.4486 123.146 94.446 120.908V75.5641C94.2877 75.4504 94.1587 75.3006 94.0698 75.1271C93.981 74.9535 93.9347 74.7613 93.935 74.5664V70.0061C93.9347 69.8111 93.981 69.619 94.0698 69.4455C94.1587 69.272 94.2877 69.1223 94.446 69.0086V67.7846C94.2877 67.671 94.1587 67.5212 94.0698 67.3477C93.981 67.1743 93.9347 66.9821 93.935 66.7872V62.2266C93.9347 62.0317 93.981 61.8395 94.0698 61.666C94.1587 61.4926 94.2877 61.3428 94.446 61.2291V59.017C94.2505 58.912 94.0872 58.7558 93.9735 58.5652C93.8599 58.3745 93.8002 58.1566 93.8008 57.9346V53.3743C93.8002 53.1523 93.8599 52.9344 93.9735 52.7437C94.0871 52.553 94.2505 52.3968 94.446 52.2917V46.2302C94.4486 43.9928 95.3386 41.8477 96.9208 40.2656C98.503 38.6835 100.648 37.7935 102.886 37.791H131.725C133.962 37.7935 136.107 38.6835 137.689 40.2656C139.272 41.8477 140.162 43.9928 140.164 46.2303V59.4429C140.316 59.538 140.441 59.6701 140.528 59.8269C140.615 59.9837 140.661 60.16 140.661 60.3393V69.0349C140.661 69.2142 140.615 69.3905 140.528 69.5474C140.441 69.7042 140.316 69.8364 140.164 69.9316V120.908C140.162 123.145 139.272 125.291 137.689 126.873C136.107 128.455 133.962 129.345 131.725 129.347ZM102.886 38.9128C100.945 38.915 99.0855 39.6866 97.7136 41.0584C96.3418 42.4302 95.57 44.2902 95.5678 46.2303V53.2459L95.0283 53.2667C95.0002 53.2677 94.9736 53.2794 94.954 53.2995C94.9343 53.3195 94.923 53.3463 94.9226 53.3743V57.9346C94.9231 57.9627 94.9344 57.9894 94.9541 58.0094C94.9737 58.0294 95.0002 58.0412 95.0283 58.0423L95.5678 58.0628V62.0168L95.1411 62.1219C95.1175 62.1276 95.0964 62.141 95.0812 62.1599C95.0659 62.1788 95.0573 62.2023 95.0568 62.2266V66.7872C95.0573 66.8115 95.0659 66.8349 95.0812 66.8538C95.0964 66.8727 95.1175 66.8861 95.1411 66.8918L95.5678 66.997V69.7962L95.1411 69.9014C95.1175 69.9071 95.0964 69.9205 95.0812 69.9394C95.0659 69.9583 95.0573 69.9817 95.0568 70.006V74.5664C95.0573 74.5907 95.0658 74.6142 95.0811 74.6332C95.0964 74.6521 95.1174 74.6655 95.1411 74.6713L95.5678 74.7764V120.908C95.57 122.848 96.3418 124.708 97.7136 126.08C99.0855 127.452 100.945 128.223 102.886 128.225H131.725C133.665 128.223 135.525 127.452 136.897 126.08C138.268 124.708 139.04 122.848 139.042 120.908V68.9711H139.539V60.4034H139.042V46.2302C139.04 44.2902 138.268 42.4303 136.897 41.0585C135.525 39.6867 133.665 38.915 131.725 38.9128L102.886 38.9128Z" fill="#3F3D56"/>
<path d="M117.742 113.645C120.383 113.645 122.523 111.504 122.523 108.864C122.523 106.223 120.383 104.083 117.742 104.083C115.102 104.083 112.961 106.223 112.961 108.864C112.961 111.504 115.102 113.645 117.742 113.645Z" fill="white"/>
<path d="M203.762 56.9227C202.361 55.5785 200.928 48.0821 199.139 47.3211C200.476 50.2762 199.506 51.0586 199.498 54.3018C199.515 56.1434 199.3 57.9798 198.858 59.7677H168.556V36.1191C168.556 33.9942 168.975 31.8901 169.788 29.927C170.601 27.9638 171.793 26.18 173.295 24.6775C174.798 23.175 176.581 21.9831 178.545 21.17C180.508 20.3569 182.612 19.9384 184.737 19.9385C185.548 19.9543 186.354 20.0723 187.135 20.2896C189.74 20.9928 192.114 22.3685 194.019 24.2788C195.924 26.1891 197.293 28.5667 197.989 31.1732C200.299 39.6168 203.973 53.6717 203.762 56.9227Z" fill="#2F2E41"/>
<path d="M170.334 86.0147L170.349 67.582L159.513 68.5503L163.337 80.1757L161.548 109.397C160.68 109.591 159.887 110.035 159.267 110.672C158.646 111.309 158.224 112.114 158.053 112.987C157.882 113.86 157.968 114.763 158.302 115.588C158.635 116.413 159.201 117.123 159.931 117.631C160.661 118.14 161.523 118.425 162.413 118.452C163.302 118.479 164.18 118.246 164.939 117.783C165.698 117.319 166.307 116.645 166.689 115.842C167.072 115.039 167.213 114.142 167.095 113.26L170.334 86.0147Z" fill="#FFB6B6"/>
<path d="M187.753 47.6763L178.685 47.8541L172.283 54.6108L167.152 55.3635C164.83 55.704 162.696 56.8309 161.106 58.556C159.515 60.2811 158.565 62.4997 158.414 64.8411L159.303 69.7246H164.638L167.723 87.8432C166.524 90.9008 166.442 93.3142 168.905 94.2622L176.551 108.665L199.133 98.5296C200.278 96.5608 200.645 94.5833 199.474 92.6602L201.088 64.9237H206.516C206.516 59.7361 204.762 55.3628 199.606 54.7855C197.559 54.564 195.502 54.4463 193.443 54.433L187.753 47.6763Z" fill="#E6E6E6"/>
<path d="M199.139 98.5296C199.139 98.5296 177.09 102.441 168.911 94.2622C168.911 94.2622 168.081 95.6719 166.83 98.0099C166.47 98.6822 165.775 99.1377 165.355 99.9521C164.974 100.692 163.993 101.602 163.577 102.442C163.243 103.117 163.779 104 163.431 104.729C159.242 113.515 154.349 125.908 155.398 134.091C156.074 139.369 157.472 151.649 158.944 164.838C159.059 165.868 158.127 167.192 158.243 168.231C158.352 169.21 159.508 169.904 159.617 170.886C159.689 171.538 158.882 172.203 158.954 172.854C159.033 173.568 159.992 174.268 160.071 174.98C162.087 193.191 163.933 210.194 163.933 210.194H174.246L176.191 171.362L174.601 157.207L178.335 128.579L183.492 155.784L184.155 171.095L189.604 210.905H199.139V172.367L199.85 170.364L199.139 167.797L199.85 165.03L199.139 162.017V98.5296Z" fill="#2F2E41"/>
<path d="M190.536 42.4178C189.131 44.2837 187.133 45.6157 184.87 46.1943C182.607 46.7728 180.215 46.5635 178.087 45.6008C175.959 44.6381 174.222 42.9793 173.163 40.8977C172.103 38.8161 171.785 36.4359 172.259 34.1489C172.733 31.8619 173.972 29.8045 175.771 28.3157C177.571 26.8268 179.824 25.9952 182.159 25.9579C184.495 25.9205 186.773 26.6795 188.619 28.1101C190.466 29.5406 191.77 31.5572 192.317 33.8279C192.346 33.9511 192.371 34.0736 192.396 34.2008C192.685 35.624 192.668 37.0924 192.348 38.5088C192.027 39.9253 191.41 41.2576 190.536 42.4178Z" fill="#FFB6B6"/>
<path d="M188.396 36.5531C188.178 35.4587 187.626 34.4587 186.817 33.6904C186.897 34.7392 186.751 35.7929 186.39 36.7808C183.686 37.0202 180.971 36.4822 178.563 35.2303C176.749 33.9998 174.441 34.1065 171.753 35.2303C171.753 33.9226 172.01 32.6277 172.51 31.4196C173.011 30.2114 173.744 29.1137 174.669 28.189C175.593 27.2644 176.691 26.5309 177.899 26.0306C179.107 25.5302 180.402 25.2728 181.71 25.2729H183.488C186.129 25.2734 188.661 26.3227 190.528 28.1899C192.396 30.0572 193.445 32.5896 193.445 35.2303C191.804 35.8189 190.114 36.2615 188.396 36.5531Z" fill="#2F2E41"/>
<path d="M183.991 126.669H108.95C107.884 126.666 106.863 126.241 106.109 125.488C105.355 124.735 104.931 123.713 104.928 122.648V86.0831C104.931 85.0175 105.355 83.9962 106.109 83.2427C106.862 82.4891 107.883 82.0644 108.949 82.0615H183.99C185.056 82.0643 186.077 82.4888 186.831 83.2423C187.584 83.9957 188.009 85.0169 188.012 86.0826V122.647C188.009 123.713 187.585 124.734 186.831 125.488C186.078 126.241 185.056 126.666 183.991 126.669Z" fill="white"/>
<path d="M183.991 126.669H108.95C107.884 126.666 106.863 126.241 106.109 125.488C105.355 124.735 104.931 123.713 104.928 122.648V86.0831C104.931 85.0175 105.355 83.9962 106.109 83.2427C106.862 82.4891 107.883 82.0644 108.949 82.0615H183.99C185.056 82.0643 186.077 82.4888 186.831 83.2423C187.584 83.9957 188.009 85.0169 188.012 86.0826V122.647C188.009 123.713 187.585 124.734 186.831 125.488C186.078 126.241 185.056 126.666 183.991 126.669ZM108.95 83.1833C108.181 83.1856 107.445 83.4919 106.901 84.0354C106.358 84.5788 106.052 85.3152 106.05 86.0837V122.647C106.052 123.416 106.358 124.152 106.902 124.695C107.445 125.239 108.182 125.545 108.95 125.547H183.99C184.758 125.545 185.495 125.239 186.038 124.695C186.582 124.152 186.888 123.415 186.89 122.647V86.0832C186.888 85.3147 186.582 84.5783 186.038 84.035C185.495 83.4917 184.758 83.1855 183.99 83.1834L108.95 83.1833Z" fill="#3F3D56"/>
<path d="M150.492 121.265C135.692 121.265 120.26 121.124 114.502 121.032C113.745 121.017 113.023 120.706 112.492 120.165C111.961 119.625 111.662 118.899 111.659 118.141V87.8737C111.659 87.6024 111.767 87.3422 111.958 87.1501C112.15 86.958 112.41 86.8496 112.681 86.8486H180.256C180.527 86.849 180.787 86.9567 180.98 87.1483C181.172 87.3399 181.28 87.5997 181.281 87.871V108.407C181.268 111.759 179.942 114.973 177.588 117.358C175.233 119.744 172.037 121.112 168.685 121.168C163.319 121.238 156.964 121.265 150.492 121.265Z" fill="#1195D6"/>
<path d="M176.244 106.52H115.185C114.674 106.518 114.175 106.359 113.757 106.065C113.339 105.77 113.022 105.354 112.849 104.873L105.938 85.4848C105.805 85.1108 105.764 84.7104 105.817 84.3171C105.871 83.9238 106.018 83.5491 106.247 83.2245C106.475 82.8999 106.778 82.6349 107.13 82.4517C107.482 82.2685 107.873 82.1725 108.27 82.1717L184.593 82.0654C184.956 82.0651 185.315 82.1442 185.643 82.2974C185.972 82.4506 186.264 82.6741 186.497 82.9521C186.73 83.2301 186.899 83.5558 186.993 83.9063C187.086 84.2569 187.102 84.6236 187.038 84.9808L187.097 85.0058L186.878 85.5171L186.876 85.5223L178.521 105.017C178.331 105.463 178.014 105.843 177.609 106.111C177.204 106.378 176.729 106.52 176.244 106.52ZM184.597 83.1872L108.272 83.2935C108.055 83.2939 107.841 83.3464 107.648 83.4468C107.455 83.5471 107.289 83.6923 107.164 83.8701C107.039 84.0479 106.958 84.2531 106.929 84.4685C106.899 84.684 106.922 84.9033 106.995 85.1082L113.906 104.496C114.001 104.759 114.174 104.987 114.403 105.149C114.632 105.31 114.906 105.397 115.186 105.398H176.244C176.51 105.398 176.769 105.32 176.991 105.174C177.212 105.028 177.386 104.819 177.49 104.575L185.845 85.0803C185.934 84.8737 185.97 84.6484 185.95 84.4245C185.93 84.2007 185.854 83.9853 185.731 83.7976C185.607 83.61 185.439 83.456 185.241 83.3495C185.043 83.243 184.822 83.1872 184.597 83.1872Z" fill="#3F3D56"/>
<path d="M146.355 110.74C148.995 110.74 151.136 108.599 151.136 105.959C151.136 103.318 148.995 101.178 146.355 101.178C143.714 101.178 141.573 103.318 141.573 105.959C141.573 108.599 143.714 110.74 146.355 110.74Z" fill="white"/>
<path d="M206.252 81.7472L206.267 63.3145L195.431 64.2827L199.255 75.9082L185.375 96.9499C184.507 97.1446 183.714 97.5878 183.093 98.2252C182.473 98.8626 182.051 99.6669 181.88 100.54C181.709 101.413 181.795 102.317 182.129 103.141C182.462 103.966 183.028 104.676 183.758 105.184C184.488 105.693 185.35 105.978 186.24 106.005C187.129 106.032 188.006 105.799 188.766 105.336C189.525 104.873 190.133 104.198 190.516 103.395C190.899 102.592 191.04 101.695 190.922 100.814L206.252 81.7472Z" fill="#FFB6B6"/>
</svg>
