<svg width="183" height="124" viewBox="0 0 183 124" fill="none" xmlns="http://www.w3.org/2000/svg">
<g clip-path="url(#clip0_1441_4830)">
<path d="M182.138 65.862C182.138 90.5553 166.487 111.595 144.565 119.601C141.23 120.821 137.787 121.725 134.283 122.299C124.643 123.88 114.758 122.983 105.56 119.691C83.4996 111.751 67.7342 90.6402 67.7446 65.8499C67.7446 34.274 93.353 8.66559 124.941 8.66559C136.879 8.64822 148.521 12.3831 158.221 19.3423C172.702 29.7173 182.138 46.6873 182.138 65.862Z" fill="#B5DCF0"/>
<path d="M144.565 119.601C141.23 120.821 137.788 121.725 134.283 122.299C124.643 123.88 114.758 122.983 105.56 119.691L108.202 109.092L108.361 108.456L113.751 108.477L140.831 108.574L141.178 109.598L144.565 119.601Z" fill="#2F2E41"/>
<path d="M49.6831 0.978516H0V57.1965H49.6831V0.978516Z" fill="#E6E6E6"/>
<path d="M48.7069 2.16748H0.882324V56.007H48.7069V2.16748Z" fill="white"/>
<path d="M24.84 54.093C26.3205 54.093 27.5207 52.8928 27.5207 51.4122C27.5207 49.9317 26.3205 48.7314 24.84 48.7314C23.3594 48.7314 22.1592 49.9317 22.1592 51.4122C22.1592 52.8928 23.3594 54.093 24.84 54.093Z" fill="#E6E6E6"/>
<path d="M24.384 21.2256H8.98657V22.8007H24.384V21.2256Z" fill="#E6E6E6"/>
<path d="M32.2255 25.9458H8.98657V27.521H32.2255V25.9458Z" fill="#0073BA"/>
<path d="M29.9444 30.6958H8.98657V32.271H29.9444V30.6958Z" fill="#E6E6E6"/>
<path d="M41.3499 35.3198H8.98657V36.895H41.3499V35.3198Z" fill="#0073BA"/>
<path d="M35.7008 39.7236H9.32544V41.2988H35.7008V39.7236Z" fill="#E6E6E6"/>
<path d="M70.6444 92.4556C70.8333 92.6496 71.0066 92.8583 71.1628 93.0795L95.4468 92.4854L98.2798 87.3086L106.651 90.5629L102.526 100.215C102.193 100.994 101.616 101.645 100.881 102.069C100.147 102.493 99.2949 102.667 98.4531 102.565L71.0162 99.2507C70.369 100.07 69.4877 100.673 68.4895 100.979C67.4913 101.285 66.4235 101.28 65.4282 100.965C64.4329 100.65 63.5572 100.039 62.9175 99.2134C62.2779 98.3881 61.9047 97.3877 61.8476 96.3451C61.7904 95.3026 62.052 94.2673 62.5975 93.3771C63.1431 92.4869 63.9467 91.7838 64.9016 91.3614C65.8565 90.9391 66.9173 90.8175 67.943 91.0127C68.9687 91.208 69.9106 91.7109 70.6435 92.4545L70.6444 92.4556Z" fill="#DEB2B8"/>
<path d="M103.331 62.8959L114.696 59.1714L118.034 54.5938L134.277 55.555L136.662 60.8968L145.323 64.9895L143.992 89.7094L141.715 112.844C130.005 106.781 108.153 111.403 107.961 111.479L103.331 62.8959Z" fill="#0073BA"/>
<path d="M105.758 96.356L94.1982 91.731L94.2475 91.5253C94.297 91.3173 99.217 70.7583 99.8702 67.4545C100.551 64.0124 103.037 63.0607 103.143 63.0221L103.22 62.9937L107.794 64.3861L109.804 80.1725L105.758 96.356Z" fill="#0073BA"/>
<path d="M130.718 111.827C130.989 111.82 131.26 111.835 131.529 111.872L147.604 93.6602L145.734 88.0643L153.812 84.1382L158.085 93.7252C158.431 94.4997 158.515 95.3652 158.327 96.192C158.138 97.0187 157.686 97.7619 157.04 98.3101L135.955 116.175C136.116 117.207 135.958 118.263 135.504 119.203C135.05 120.143 134.32 120.922 133.412 121.438C132.504 121.953 131.461 122.18 130.421 122.088C129.381 121.995 128.393 121.589 127.59 120.922C126.787 120.255 126.206 119.359 125.924 118.354C125.642 117.349 125.673 116.281 126.012 115.294C126.352 114.307 126.984 113.446 127.825 112.827C128.665 112.207 129.674 111.859 130.718 111.827Z" fill="#DEB2B8"/>
<path d="M146.322 95.4333L139.616 79.66L142.232 68.6729L145.05 65.1126C145.256 65.0244 145.479 64.9799 145.703 64.982C145.928 64.9841 146.149 65.0327 146.354 65.1248C147.394 65.543 148.278 66.8251 148.985 68.9351L155.269 86.8357L146.322 95.4333Z" fill="#0073BA"/>
<path d="M111.532 48.749V36.8574C111.525 34.7648 111.93 32.6913 112.725 30.7553C113.519 28.8194 114.687 27.0588 116.162 25.5743C117.636 24.0897 119.389 22.9101 121.32 22.1029C123.251 21.2957 125.321 20.8766 127.414 20.8697C129.506 20.8628 131.58 21.2681 133.516 22.0625C135.452 22.8569 137.212 24.0248 138.697 25.4996C140.182 26.9744 141.361 28.7271 142.168 30.6578C142.976 32.5884 143.395 34.6592 143.402 36.7518C143.402 36.787 143.402 36.8222 143.402 36.8574V48.749C143.401 49.3165 143.175 49.8606 142.774 50.2619C142.373 50.6632 141.828 50.8889 141.261 50.8895H113.672C113.105 50.8889 112.561 50.6632 112.159 50.2619C111.758 49.8606 111.532 49.3165 111.532 48.749Z" fill="#2F2E41"/>
<path d="M124.189 50.6122C130.641 50.6122 135.872 45.3816 135.872 38.9294C135.872 32.4772 130.641 27.2466 124.189 27.2466C117.737 27.2466 112.506 32.4772 112.506 38.9294C112.506 45.3816 117.737 50.6122 124.189 50.6122Z" fill="#DEB2B8"/>
<path d="M107.76 37.8088C107.764 34.4669 109.093 31.2629 111.456 28.8998C113.819 26.5366 117.023 25.2074 120.365 25.2036H122.743C126.085 25.2074 129.289 26.5366 131.653 28.8998C134.016 31.2629 135.345 34.4669 135.349 37.8088V38.0466H130.322L128.608 33.2456L128.265 38.0466H125.668L124.803 35.6246L124.629 38.0466H107.76V37.8088Z" fill="#2F2E41"/>
<path d="M123.043 52.227C122.807 51.9075 122.666 51.5278 122.636 51.1317C122.606 50.7356 122.689 50.3391 122.875 49.988C125.395 45.1943 128.924 36.3363 124.24 30.8735L123.904 30.4814H137.503V50.8971L125.15 53.0766C125.025 53.0988 124.898 53.11 124.771 53.1101C124.434 53.1101 124.101 53.0301 123.801 52.8767C123.501 52.7233 123.241 52.5008 123.043 52.2275L123.043 52.227Z" fill="#2F2E41"/>
<path d="M24.795 5.35693C23.6675 5.35688 22.5653 5.69116 21.6278 6.31752C20.6903 6.94388 19.9596 7.83417 19.5281 8.87582C19.0965 9.91747 18.9836 11.0637 19.2035 12.1695C19.4234 13.2754 19.9663 14.2912 20.7635 15.0885C21.5607 15.8858 22.5765 16.4288 23.6823 16.6488C24.7881 16.8688 25.9343 16.756 26.976 16.3246C28.0177 15.8932 28.9081 15.1625 29.5346 14.2251C30.161 13.2876 30.4954 12.1855 30.4955 11.058V11.0577C30.4955 10.309 30.348 9.56774 30.0615 8.87609C29.775 8.18445 29.3551 7.556 28.8258 7.02664C28.2964 6.49728 27.668 6.07736 26.9763 5.79087C26.2847 5.50439 25.5434 5.35693 24.7947 5.35693H24.795ZM24.795 7.067C25.1332 7.067 25.4639 7.16729 25.7451 7.3552C26.0263 7.5431 26.2455 7.81017 26.3749 8.12265C26.5044 8.43512 26.5382 8.77896 26.4722 9.11068C26.4063 9.4424 26.2434 9.74711 26.0042 9.98626C25.7651 10.2254 25.4604 10.3883 25.1287 10.4543C24.7969 10.5203 24.4531 10.4864 24.1406 10.357C23.8281 10.2275 23.5611 10.0084 23.3732 9.72714C23.1853 9.44592 23.085 9.1153 23.085 8.77708C23.085 8.32354 23.2651 7.88858 23.5858 7.56787C23.9065 7.24717 24.3415 7.067 24.795 7.067ZM24.795 15.3C24.1194 15.2969 23.4548 15.1291 22.8587 14.811C22.2627 14.4929 21.7532 14.0342 21.3746 13.4746C21.402 12.3345 23.6549 11.7069 24.795 11.7069C25.9352 11.7069 28.188 12.3345 28.2155 13.4746C27.8364 14.0338 27.3269 14.4922 26.7309 14.8102C26.135 15.1283 25.4705 15.2964 24.795 15.3Z" fill="#0073BA"/>
<path d="M24.8628 52.4396C27.2113 48.1358 32.8374 45.4103 37.4396 47.867C39.5111 48.9726 41.1579 50.9284 41.6806 53.24C42.2873 55.9253 41.009 58.4858 39.6895 60.7417C38.9733 61.9662 38.1885 63.1658 37.5958 64.4574C36.982 65.7949 36.5433 67.3408 37.0054 68.7958C37.4214 70.1067 38.4645 71.0601 39.6066 71.7609C40.8673 72.505 42.2082 73.1039 43.6036 73.5461C46.4762 74.5014 49.5061 74.8934 52.5271 74.7006C54.0286 74.5986 55.5175 74.3579 56.9746 73.9817C58.5246 73.5865 60.0457 73.0856 61.5983 72.6991C64.1905 72.0552 67.1462 71.735 69.6043 73.0284C71.9923 74.2853 73.061 76.9141 73.3915 79.4715C74.002 84.1938 72.1296 89.0943 68.7489 92.4013C67.127 93.9879 65.0859 95.2988 62.8629 95.835C60.9232 96.303 58.4326 96.273 56.889 94.823C55.1665 93.2047 55.5717 90.6097 56.9398 88.9023C58.686 86.7238 61.6443 86.2006 64.2841 86.1475C67.2871 86.0872 70.2873 86.5344 73.2886 86.2564C74.7535 86.1424 76.191 85.7956 77.5468 85.2293C78.7387 84.705 79.8259 83.9692 80.7558 83.0577C82.6087 81.2576 83.8583 78.8595 84.4797 76.3661C85.2279 73.3676 85.0648 70.2162 84.484 67.2044C84.1744 65.6514 83.7758 64.1174 83.2902 62.6101C83.0896 61.974 82.0852 62.2462 82.2873 62.8866C84.076 68.5584 85.0733 75.1167 81.6174 80.3828C80.1873 82.616 77.9593 84.2198 75.3877 84.8672C72.3967 85.6106 69.2582 85.2431 66.2174 85.1325C63.326 85.0273 60.1511 85.1409 57.6726 86.8249C55.6393 88.2061 54.2172 90.8333 54.8318 93.3135C55.4244 95.7054 57.723 96.9186 60.022 97.1055C62.4341 97.302 64.8077 96.4924 66.8335 95.2265C71.0475 92.5932 73.8495 87.962 74.4358 83.052C74.7414 80.4936 74.4304 77.7377 73.2702 75.4156C72.6589 74.1585 71.7073 73.098 70.5236 72.3545C69.3432 71.6309 67.9799 71.2747 66.6106 71.1487C63.4999 70.8622 60.5111 71.9302 57.5601 72.7473C56.0526 73.1846 54.5074 73.4796 52.9449 73.6283C51.4283 73.7539 49.903 73.7291 48.3913 73.5541C46.8913 73.3771 45.4131 73.049 43.9791 72.5748C42.5738 72.1404 41.2284 71.5321 39.9739 70.7641C38.8673 70.0564 37.9102 69.0428 37.8557 67.6616C37.7966 66.1639 38.5518 64.763 39.2701 63.5003C40.689 61.006 42.4419 58.5663 42.8119 55.6464C43.136 53.0921 42.1082 50.5746 40.3334 48.7528C39.4439 47.8281 38.3731 47.0971 37.1879 46.6054C36.0028 46.1138 34.7289 45.8721 33.4461 45.8956C30.8128 45.971 28.2915 47.1161 26.3546 48.8748C25.3939 49.7476 24.5856 50.7745 23.9627 51.9132C23.6419 52.5009 24.5395 53.0263 24.8607 52.438L24.8628 52.4396Z" fill="#3F3D56"/>
</g>
<defs>
<clipPath id="clip0_1441_4830">
<rect width="182.138" height="122.08" fill="white" transform="translate(0 0.978516)"/>
</clipPath>
</defs>
</svg>
