<svg width="252" height="64" viewBox="0 0 252 64" fill="none" xmlns="http://www.w3.org/2000/svg">
<path d="M25.4115 44.5516C20.5851 44.5516 17.2066 41.1042 17.2066 36.2433V34.6919H21.2746V36.2433C21.2746 39.1391 22.9638 41.1042 25.4115 41.1042C27.8592 41.1042 29.5139 39.1391 29.5139 36.2433V19.868H33.5819V36.2433C33.5819 41.1386 30.2034 44.5516 25.4115 44.5516ZM43.583 44.5516C39.9976 44.5516 37.8947 41.8971 37.8947 37.4154V26.7628H41.8592V37.2775C41.8592 39.7252 42.9969 41.1042 44.9275 41.1042C47.513 41.1042 49.2023 38.7254 49.2023 35.1401V26.7628H53.1668V44H49.2023V41.0697C48.1336 43.2071 46.0996 44.5516 43.583 44.5516ZM64.7699 44.5516C59.8745 44.5516 56.5305 42.0694 56.4615 38.2428L60.3571 37.898C60.4261 39.8976 62.1843 41.1042 64.7699 41.1042C66.8383 41.1042 68.3207 40.3457 68.3207 39.0012C68.3207 35.4159 57.3234 38.2083 57.3234 31.5203C57.3234 27.9694 60.3916 26.2112 64.4251 26.2112C68.6999 26.2112 71.5613 28.2108 71.6647 31.5203L67.7346 31.865C67.6657 30.3826 66.3557 29.6587 64.3906 29.6587C62.6324 29.6587 61.3914 30.2447 61.3914 31.3479C61.3914 34.5885 72.3887 32.1064 72.3887 38.8633C72.3887 42.3452 69.4239 44.5516 64.7699 44.5516ZM82.9201 44C79.2313 44 77.4042 42.2418 77.4042 38.7254V30.2103H73.6809V26.7628H77.4042V21.2125H81.3687V26.7628H86.5399V30.2103H81.3687V38.4841C81.3687 39.8631 82.0582 40.5526 83.4372 40.5526H86.5399V44H82.9201ZM89.9261 44V26.7628H93.8907V44H89.9261ZM89.5469 24.2462V20.1782H94.3044V24.2462H89.5469ZM98.9126 44V19.868H107.186C112.358 19.868 115.84 22.6949 115.84 26.9697C115.84 31.21 112.358 34.0714 107.186 34.0714H102.981V44H98.9126ZM102.981 30.624H107.186C109.944 30.624 111.772 29.176 111.772 26.9697C111.772 24.7633 109.944 23.3154 107.186 23.3154H102.981V30.624ZM114.824 44L122.995 19.868H128.89L137.06 44H132.923L130.545 36.8983H121.375L118.961 44H114.824ZM122.547 33.4509H129.373L125.96 23.3154L122.547 33.4509ZM139.266 44L147.437 19.868H153.332L161.502 44H157.365L154.986 36.8983H145.816L143.403 44H139.266ZM146.988 33.4509H153.814L150.401 23.3154L146.988 33.4509ZM164.629 44V19.868H168.697V44H164.629Z" fill="#0A0A0A"/>
<path d="M110.832 49.8809L157.948 49.8809" stroke="#1195D6" stroke-width="2.99583"/>
<path d="M161.217 49.8809L173.2 49.8809" stroke="#E86427" stroke-width="2.99583"/>
<path d="M176.467 49.8809H180.552" stroke="#F5C518" stroke-width="2.99583"/>
</svg>
