<svg width="600" height="745" viewBox="0 0 600 745" fill="none" xmlns="http://www.w3.org/2000/svg">
<g opacity="0.1" clip-path="url(#clip0_1131_23662)">
<path d="M603.438 405.508L664.274 127.902L800.974 377.059C775.414 402.584 742.504 419.085 706.948 424.206C671.391 429.327 635.163 422.783 603.438 405.508Z" stroke="#BEC7CC" stroke-width="66.5247" stroke-linecap="round" stroke-linejoin="round"/>
<path d="M142.52 471.89L203.356 194.284L340.056 443.441C314.495 468.966 281.586 485.467 246.03 490.588C210.473 495.709 174.245 489.165 142.52 471.89Z" stroke="#BEC7CC" stroke-width="66.5247" stroke-linecap="round" stroke-linejoin="round"/>
<path d="M330.843 612.795L660.07 565.38" stroke="#BEC7CC" stroke-width="66.5247" stroke-linecap="round" stroke-linejoin="round"/>
<path d="M410.111 -3.52051L495.459 589.087" stroke="#BEC7CC" stroke-width="66.5247" stroke-linecap="round" stroke-linejoin="round"/>
<path d="M132.772 170.844L198.618 161.361C264.463 151.878 358.489 104.731 419.593 62.3248C490.18 85.7643 593.69 104.462 659.535 94.9792L725.38 85.496" stroke="#BEC7CC" stroke-width="66.5247" stroke-linecap="round" stroke-linejoin="round"/>
</g>
<defs>
<clipPath id="clip0_1131_23662">
<rect width="798.296" height="798.296" fill="white" transform="translate(0.8125 -45.3894) rotate(-8.19545)"/>
</clipPath>
</defs>
</svg>
