<svg width="48" height="48" viewBox="0 0 48 48" fill="none" xmlns="http://www.w3.org/2000/svg">
<rect width="48" height="48" fill="#EFEFEF"/>
<path d="M32 6H10C8.93913 6 7.92172 6.42143 7.17157 7.17157C6.42143 7.92172 6 8.93913 6 10V38C6 39.0609 6.42143 40.0783 7.17157 40.8284C7.92172 41.5786 8.93913 42 10 42H38C39.0609 42 40.0783 41.5786 40.8284 40.8284C41.5786 40.0783 42 39.0609 42 38V16L32 6Z" stroke="#BCDAE8" stroke-width="3.6" stroke-linecap="round" stroke-linejoin="round"/>
<path d="M23.7486 23.2117C23.7488 23.2111 23.749 23.2106 23.7492 23.21L24.5015 20.9134L25.2611 23.2227C25.377 23.5796 25.5758 23.9039 25.8413 24.1692C26.1067 24.4344 26.4313 24.633 26.7883 24.7486C26.7888 24.7488 26.7894 24.749 26.79 24.7492L29.0866 25.5015L26.7791 26.2605C26.7785 26.2607 26.7779 26.2609 26.7773 26.2611C26.4204 26.377 26.0961 26.5758 25.8308 26.8413C25.5656 27.1067 25.367 27.4313 25.2514 27.7883C25.2512 27.7889 25.251 27.7894 25.2508 27.79L24.4985 30.0866L23.7395 27.7791C23.7393 27.7785 23.7391 27.7779 23.7389 27.7773C23.623 27.4204 23.4242 27.0961 23.1587 26.8308C22.8933 26.5656 22.5687 26.367 22.2117 26.2514C22.2111 26.2512 22.2106 26.251 22.21 26.2508L19.9134 25.4985L22.2227 24.7389C22.5796 24.623 22.9039 24.4242 23.1692 24.1587C23.4344 23.8933 23.633 23.5687 23.7486 23.2117Z" fill="#BCDAE8" stroke="#BCDAE8" stroke-width="1.58333" stroke-linecap="round" stroke-linejoin="round"/>
<path d="M30 6V14C30 15.0609 30.4214 16.0783 31.1716 16.8284C31.9217 17.5786 32.9391 18 34 18H42" stroke="#BCDAE8" stroke-width="3.6" stroke-linecap="round" stroke-linejoin="round"/>
</svg>
