<svg width="48" height="48" viewBox="0 0 48 48" fill="none" xmlns="http://www.w3.org/2000/svg">
<rect width="48" height="48" fill="#EFEFEF"/>
<path d="M16 4V12" stroke="#BCDAE8" stroke-width="4" stroke-linecap="round" stroke-linejoin="round"/>
<path d="M32 4V12" stroke="#BCDAE8" stroke-width="4" stroke-linecap="round" stroke-linejoin="round"/>
<path d="M38 8H10C7.79086 8 6 9.79086 6 12V40C6 42.2091 7.79086 44 10 44H38C40.2091 44 42 42.2091 42 40V12C42 9.79086 40.2091 8 38 8Z" stroke="#BCDAE8" stroke-width="4" stroke-linecap="round" stroke-linejoin="round"/>
<path d="M6 20H42" stroke="#BCDAE8" stroke-width="4" stroke-linecap="round" stroke-linejoin="round"/>
<path d="M16 28H16.02" stroke="#BCDAE8" stroke-width="4" stroke-linecap="round" stroke-linejoin="round"/>
<path d="M24 28H24.02" stroke="#BCDAE8" stroke-width="4" stroke-linecap="round" stroke-linejoin="round"/>
<path d="M32 28H32.02" stroke="#BCDAE8" stroke-width="4" stroke-linecap="round" stroke-linejoin="round"/>
<path d="M16 36H16.02" stroke="#BCDAE8" stroke-width="4" stroke-linecap="round" stroke-linejoin="round"/>
<path d="M24 36H24.02" stroke="#BCDAE8" stroke-width="4" stroke-linecap="round" stroke-linejoin="round"/>
<path d="M32 36H32.02" stroke="#BCDAE8" stroke-width="4" stroke-linecap="round" stroke-linejoin="round"/>
</svg>
