<svg width="1304" height="952" viewBox="0 0 1304 952" fill="none" xmlns="http://www.w3.org/2000/svg">
<path opacity="0.1" d="M133.079 442.946L133.057 443.375L132.861 443.757C93.9853 519.555 77.211 571.584 74.9983 608.346C73.8941 626.692 76.4212 641.17 81.5848 652.891C86.7448 664.603 94.5899 673.682 104.305 681.157C121.048 694.041 143.152 702.056 166.481 710.515C170.402 711.936 174.357 713.371 178.327 714.843C205.741 725.006 233.678 736.928 254.404 759.112L254.706 759.435L254.844 759.857C283.622 848.062 315.366 898.422 349.124 924.728C382.747 950.927 418.638 953.465 456.382 945.295C485.731 938.943 515.987 926.173 547.039 913.068C556.088 909.249 565.204 905.402 574.385 901.676C614.918 885.229 656.598 871.223 698.456 873.362C1003.19 888.934 1260.38 691.532 1273.59 433.139C1275.52 395.202 1281.5 358.528 1287.38 323.5C1287.64 321.958 1287.89 320.419 1288.15 318.883C1293.76 285.497 1299.11 253.668 1300.65 223.523C1302.27 192.012 1299.71 162.48 1289.01 135.119C1278.32 107.786 1259.45 82.4837 1228.22 59.5062C1205.99 43.1494 1170.47 31.7282 1127.41 23.7699C1084.42 15.8237 1034.18 11.3746 982.711 8.79761C931.251 6.22098 878.619 5.51823 830.85 5.05226C825.456 4.99964 820.124 4.95005 814.863 4.90112C773.547 4.51686 736.565 4.17291 708.208 2.72379C652.898 -0.102609 511.653 16.0298 372.904 38.3603C303.575 49.5181 234.948 62.2105 178.098 74.8284C121.167 87.4642 76.2653 99.9802 54.2283 110.74C15.4961 129.651 2.29333 149.162 2.89639 169.932C3.20258 180.478 7.05742 191.618 13.4092 203.523C19.7576 215.423 28.5238 227.949 38.5065 241.256C43.022 247.276 47.786 253.453 52.6771 259.795C69.3478 281.411 87.4943 304.941 102.304 330.643C121.489 363.939 135.217 401.1 133.079 442.946Z" stroke="url(#paint0_linear_1850_12652)" stroke-width="4"/>
<defs>
<linearGradient id="paint0_linear_1850_12652" x1="168.262" y1="36.8953" x2="425.539" y2="1080.71" gradientUnits="userSpaceOnUse">
<stop stop-color="#E86427"/>
<stop offset="0.485" stop-color="#F5C518"/>
<stop offset="1" stop-color="#1195D6"/>
</linearGradient>
</defs>
</svg>
