<svg width="48" height="48" viewBox="0 0 48 48" fill="none" xmlns="http://www.w3.org/2000/svg">
<rect width="48" height="48" fill="#EFEFEF"/>
<path d="M7.99707 3.99805V43.998L11.9971 41.998L15.9971 43.998L19.9971 41.998L23.9971 43.998L27.9971 41.998L31.9971 43.998L35.9971 41.998L39.9971 43.998V3.99805L35.9971 5.99805L31.9971 3.99805L27.9971 5.99805L23.9971 3.99805L19.9971 5.99805L15.9971 3.99805L11.9971 5.99805L7.99707 3.99805Z" stroke="#BCDAE8" stroke-width="4" stroke-linecap="round" stroke-linejoin="round"/>
<path d="M15.9941 14.002H31.9941" stroke="#BCDAE8" stroke-width="4" stroke-linecap="round" stroke-linejoin="round"/>
<path d="M23.9941 35.002L15.9941 30.002H17.9941C20.1159 30.002 22.1507 29.1591 23.651 27.6588C25.1513 26.1585 25.9941 24.1237 25.9941 22.002C25.9941 19.8802 25.1513 17.8454 23.651 16.3451C22.1507 14.8448 20.1159 14.002 17.9941 14.002" stroke="#BCDAE8" stroke-width="4" stroke-linecap="round" stroke-linejoin="round"/>
<path d="M15.9941 21.998H31.9941" stroke="#BCDAE8" stroke-width="4" stroke-linecap="round" stroke-linejoin="round"/>
</svg>
